/* XPM */
static char *result[] = {
/* columns rows colors chars-per-pixel */
"40 40 215 2 ",
"   c #4A0D00",
".  c #4C1201",
"X  c #571C08",
"o  c #601F07",
"O  c #5A220C",
"+  c #5A2815",
"@  c #77330C",
"#  c #7C3509",
"$  c #723715",
"%  c #693C26",
"&  c #7A421A",
"*  c #6C462F",
"=  c #6F482F",
"-  c #764A2C",
";  c #784828",
":  c #6B4634",
">  c #654A3B",
",  c #684738",
"<  c #754D33",
"1  c #744B35",
"2  c #7C533D",
"3  c #775137",
"4  c #3B567D",
"5  c #5C4B47",
"6  c #624844",
"7  c #7C5B45",
"8  c #4F5766",
"9  c #566279",
"0  c #686979",
"q  c #747B7B",
"w  c #767779",
"e  c #6D6A6A",
"r  c #803B0C",
"t  c #8A4A1A",
"y  c #955115",
"u  c #9D5616",
"i  c #95521B",
"p  c #98521C",
"a  c #9E5E1C",
"s  c #984F11",
"d  c #A15718",
"f  c #A5641D",
"g  c #975B28",
"h  c #835937",
"j  c #82522A",
"k  c #96612A",
"l  c #9B6C34",
"z  c #966735",
"x  c #A66825",
"c  c #B37326",
"v  c #BA7B26",
"b  c #B57929",
"n  c #AB7C37",
"m  c #AF7625",
"M  c #805D4B",
"N  c #8C684F",
"B  c #87654A",
"V  c #916947",
"C  c #9C7442",
"Z  c #8B6D54",
"A  c #8C735C",
"S  c #8B7257",
"D  c #92755C",
"F  c #9B7A5C",
"G  c #987759",
"H  c #A07F5D",
"J  c #8A7668",
"K  c #977B63",
"L  c #BB812B",
"P  c #BD8835",
"I  c #C58E34",
"U  c #C69236",
"Y  c #C3923C",
"T  c #CD9D3C",
"R  c #C89538",
"E  c #C3892F",
"W  c #AD8341",
"Q  c #B88F4A",
"!  c #9D8368",
"~  c #958D7F",
"^  c #A38A6C",
"/  c #A48668",
"(  c #A68E72",
")  c #AB9374",
"_  c #A79379",
"`  c #B19575",
"'  c #B29872",
"]  c #B49C7C",
"[  c #BA9E7B",
"{  c #BDA37C",
"}  c #B8A075",
"|  c #C89C45",
" . c #D4A948",
".. c #DAB757",
"X. c #CCA149",
"o. c #E1BF5C",
"O. c #D1B264",
"+. c #DFC770",
"@. c #E5C663",
"#. c #E6C965",
"$. c #212D9C",
"%. c #162BBE",
"&. c #323CA7",
"*. c #335F9B",
"=. c #1E45BF",
"-. c #2A4FAA",
";. c #1F68BE",
":. c #2468B9",
">. c #3C61B0",
",. c #414781",
"<. c #425682",
"1. c #615980",
"2. c #4E7299",
"3. c #6C7C87",
"4. c #706C8C",
"5. c #4857B3",
"6. c #4459AA",
"7. c #546DA9",
"8. c #6D72B6",
"9. c #021DCD",
"0. c #0520CD",
"q. c #162BC3",
"w. c #022AD6",
"e. c #1035D0",
"r. c #0239E5",
"t. c #1548DC",
"y. c #1E45C1",
"u. c #345DD5",
"i. c #2854CA",
"p. c #146EDB",
"a. c #1B6CD3",
"s. c #1674DD",
"d. c #1E6BC3",
"f. c #296ECD",
"g. c #0B4AE8",
"h. c #0A59E9",
"j. c #0045F2",
"k. c #024CF2",
"l. c #0353F3",
"z. c #0459F4",
"x. c #0C5BF3",
"c. c #0256F7",
"v. c #1454E5",
"b. c #0873EB",
"n. c #0563F6",
"m. c #046BFB",
"M. c #0667F6",
"N. c #0275FC",
"B. c #0179FD",
"V. c #0574F2",
"C. c #1878F6",
"Z. c #1677E4",
"A. c #5678CF",
"S. c #827C8D",
"D. c #60839E",
"F. c #6D8AAF",
"G. c #548BB3",
"H. c #338EC8",
"J. c #3197D9",
"K. c #0B81FC",
"L. c #178BF8",
"P. c #1894F9",
"I. c #169AF1",
"U. c #2594FA",
"Y. c #239DF6",
"T. c #2893ED",
"R. c #1CA3FD",
"E. c #1CAAFE",
"W. c #1CB8FC",
"Q. c #1FA1EF",
"!. c #27A1EF",
"~. c #2DA5FC",
"^. c #2DADFE",
"/. c #25A1F4",
"(. c #21B7F8",
"). c #33A3FC",
"_. c #1FC8F9",
"`. c #25C8FA",
"'. c #25D1FB",
"]. c #25E1FC",
"[. c #B79F86",
"{. c #BCA281",
"}. c #BEAB87",
"|. c #B8A89B",
" X c #9CA2A9",
".X c #C5AE86",
"XX c #C4AB89",
"oX c #C4AA84",
"OX c #CDB58E",
"+X c #C8B58E",
"@X c #C4AE96",
"#X c #CBB692",
"$X c #CBB997",
"%X c #D4BE97",
"&X c #D3BE8D",
"*X c #D7C39B",
"=X c #E1CD9B",
"-X c #F7E798",
";X c #FDF090",
":X c #DCCCA4",
">X c #DCCEAB",
",X c #D5C6A3",
"<X c #D7CDAE",
"1X c #E7D9AA",
"2X c #E7DBB6",
"3X c #F4E1A2",
"4X c #ECE2BE",
"5X c #F4EBC5",
"6X c #F6EDC9",
"7X c #F1E7C4",
"8X c #FBF4CC",
"9X c #F9F3CA",
"0X c #FEF6D1",
"qX c #FFF9D1",
"wX c None",
/* pixels */
"wXwXwXwXwXwXwXwXwXwXwXwXwXwXwXwXwXwXwXwXwXwXwXwXwXwXwXwXwXwXwXwXwXwXwXwXwXwXwXwX",
"wXwXwXwXwXwXwXwXwXwXwXwXwXwXwXwXwXwXwXwXwXwXwXwXwXwXwXwXwXwXwXwXwXwXwXwXwXwXwXwX",
"wXwXwXwXwXwXwXwXwXwXwXwXwXwXwXwXwXwXwXwXwXwXwXwXwXwXwXwXwXwXwXwXwXwXwXwXwXwXwXwX",
"wXwXwXwXwXwXwXwXwXwXwXwXwXwXwXwXwXD A A wXwXwXwXwXwXwXwXwXwXwXwXwXwXwXwXwXwXwXwX",
"wXwXwXwXwXwXwXwXwXwXwXwXwXwXwXwXA D ( ( wXwXwXwXwXwXwXwXwXwXwXwXwXwXwXwXwXwXwXwX",
"wXwXwXwXwXwXwXwXwXwXwXwXwXwXwXwXJ J @X[.> wXwXwXwXwXwXwXwXwXwXwXwXwXwXwXwXwXwXwX",
"wXwXwXwXwXwXwXA A J wXwXwXwXwXt.t.i.u.u.y.t.j.g.t.wXwXwX: : , wXwXwXwXwXwXwXwXwX",
"wXwXwXwXwXwXwXD ^ _ wXwXwXwXwXx.x.z.x.l.c.k.k.k.g.wXwXwXM 7 : wXwXwXwXwXwXwXwXwX",
"wXwXwXwXwXwXwXK <X4XoXD , y.x.U.~.~.~.P.N.N.N.N.n.0.0.q.|.` : wXwXwXwXwXwXwXwXwX",
"wXwXwXwXwXwXwXK ,X>X>X/ , d.C.C.U.^.^.~.L.K.N.N.n.r.r.g.8.4.: wXwXwXwXwXwXwXwXwX",
"wXwXwXwXwXwXwXwX[.OX6X[., H.L.k.C.).).~.~.L.m.N.n.k.n.m.r.$., wXwXwXwXwXwXwXwXwX",
"wXwXwXwXwXwXwXwXK K ( B > H.E.W.L.x.x.x.x.l.l.l.z.m.N.N.n.-., , , : : , wXwXwXwX",
"wXwXwXwXwXwXwXwX3.3.q e 8 J.W.].I.j.h.x.x.l.l.k.z.K.B.B.N.:., 7 N B h : wXwXwXwX",
"wXwXwX, = * ,.g.L.!.Y./.Q.R.W.].L.k.U.~.~.L.m.k.n.^.L.N.B.:.: @X6X:X) : wXwXwXwX",
"wXwXwX= 3 / 7.j.L.R.R.R.E.W.W.I.M.k.U.~.^.P.V.>.7.D.2.*.b.p.*. X@X8.4.wXwXwXwXwX",
"wXwXwX: M OXF.t.T.T.!.!.Q.'.W.g.j.k.Y.^.^.L.Z.w F F 2 5 p.N.N.2.e 0.9.wXwXwXwXwX",
"wXwXwXwXwXK J 0 w q q q D.a.M.m.c.k.(.'.^.G.3.<X2X2X/ > p.B.B.Z.a.w.0.wXwXwXwXwX",
"wXwXwXwXwX^ ( ) ` ) ) ) ) 5.i.f.v.l.`.'.R.D.H 4X8X5X/ 6 s.K.B.B.m.w.%.wXwXwXwXwX",
"wXwXwXJ / $X1X8X8X8X9X9X4X( A A 6.h.`.`.K.2.F 4X5X*XF 6 J.P.B.B.m.w.&.J wXwXwXwX",
"wXwXK _ }.2X7X0XqXqXqXqX8X:X#X] S.6.I.P.B.s.2.~ ^ F 1.-.).P.N.B.n.w.5..X) wXwXwX",
"wXwXD XX:X6X9X5X5X6X6X6X9XqX6X:X[ J f.b.N.B.b.8 > > -.k.Y.U.N.N.C.e.8.3X` S wXwX",
"wXwXD XX*X:X.X/ ! ^ ! }.:X6X8X6X7X2Xe 4 V.B.B.s.p.p.g.j.x.n.N.c.x. X>X3X` S wXwX",
"wXwXD {.OX.X/ V h M 7 G ] $X<X0X0X6X( w :.;.d.V.N.N.z.j.l.h.d.u.A.>X-X3X' A wXwX",
"wXwXD ` ' G z i o . . + = * A 6X0X0X8X,X> * 5 a.B.N.z.k.m.:.> ) %X3X3X3X' S wXwX",
"wXwXwX/ H k W O.$ .   - Q l l ( ,XqXqX4X}.[.^ 9 <.<.,.8 *.0 / oX*X=X&X} ) wXwXwX",
"wXwXwXJ V y | -X-   . z #.U x - ` 7X9X9XqX2X%XB 1 3 3 2 1 G %X%X%XOX] S wXwXwXwX",
"wXwXwXwXwXy | -X-     z #.I b P C B +X2XqX8X7X{.` ` { .XXXOX%XOX[ B 7 wXwXwXwXwX",
"wXwXwXwXwXi Q O.l h 3 W  .| T  .z % ! {.$X>X1X.X{ { .XOX&XXX` ( F ; % wXwXwXwXwX",
"wXwXwXwXwXwXwXu +.;X;X..v o.@.#.z . % : * F { { { { [ { { H - 1 ; @ @ wXwXwXwXwX",
"wXwXwXwXwXwXwXu X.o.o... .o.#.#.z . O O + 1 N N N N B B N V C x k r @ wXwXwXwXwX",
"wXwXwXwXwXwXwXu L R T ..@.@.@.o.l X . . . + % - < - - < < z T E x r @ wXwXwXwXwX",
"wXwXwXwXwXwXwXwXa f T  .@.@.o.X.L x O     . O n P c P Y Y T T d # wXwXwXwXwXwXwX",
"wXwXwXwXwXwXwXwXg x L | .... .U R R g j & $ t P R v I T R E c g @ wXwXwXwXwXwXwX",
"wXwXwXwXwXwXwXwXwXwXi m T T R v T @.#...T X.T T U v I T L d @ wXwXwXwXwXwXwXwXwX",
"wXwXwXwXwXwXwXwXwXwXwXx x x c U T  . . .T T T E E v f y s t wXwXwXwXwXwXwXwXwXwX",
"wXwXwXwXwXwXwXwXwXwXwXwXi y x U U U U I R R U v c c y @ # $ wXwXwXwXwXwXwXwXwXwX",
"wXwXwXwXwXwXwXwXwXwXwXwXwXwXwXd d d d d u d d u s d wXwXwXwXwXwXwXwXwXwXwXwXwXwX",
"wXwXwXwXwXwXwXwXwXwXwXwXwXwXwXg p p p y y i i i i i wXwXwXwXwXwXwXwXwXwXwXwXwXwX",
"wXwXwXwXwXwXwXwXwXwXwXwXwXwXwXwXwXwXwXwXwXwXwXwXwXwXwXwXwXwXwXwXwXwXwXwXwXwXwXwX",
"wXwXwXwXwXwXwXwXwXwXwXwXwXwXwXwXwXwXwXwXwXwXwXwXwXwXwXwXwXwXwXwXwXwXwXwXwXwXwXwX"
};
