/* XPM */
static char *result[] = {
/* columns rows colors chars-per-pixel */
"50 50 230 2 ",
"   c #1F1E1E",
".  c #261D1C",
"X  c #371B1B",
"o  c #18211E",
"O  c #24241F",
"+  c #1D1F20",
"@  c #002626",
"#  c #0D2424",
"$  c #012927",
"%  c #002729",
"&  c #012929",
"*  c #0B2D2B",
"=  c #092827",
"-  c #112424",
";  c #1B2222",
":  c #122D2B",
">  c #002833",
",  c #0C3232",
"<  c #073237",
"1  c #143533",
"2  c #143939",
"3  c #1A3D3D",
"4  c #1B3733",
"5  c #0F312E",
"6  c #242121",
"7  c #2C2020",
"8  c #2C3C34",
"9  c #253C37",
"0  c #353B36",
"q  c #241934",
"w  c #4C0C0C",
"e  c #481717",
"r  c #531414",
"t  c #541919",
"y  c #591515",
"u  c #570D0D",
"i  c #630E0E",
"p  c #670B0B",
"a  c #760000",
"s  c #7A0404",
"d  c #7A0A08",
"f  c #6B1515",
"g  c #661717",
"h  c #781212",
"j  c #67001C",
"k  c #710F21",
"l  c #512A23",
"z  c #34411F",
"x  c #344224",
"c  c #27413B",
"v  c #3B453A",
"b  c #36453D",
"n  c #47493A",
"m  c #514F3F",
"M  c #001D55",
"N  c #002049",
"B  c #002346",
"V  c #003D58",
"C  c #00364C",
"Z  c #101965",
"A  c #0A3663",
"S  c #36307F",
"D  c #1A4242",
"F  c #164357",
"G  c #244545",
"H  c #294949",
"J  c #264949",
"K  c #3A4A44",
"L  c #345454",
"P  c #325A5C",
"I  c #3E5E5E",
"U  c #3C5454",
"Y  c #2A4D55",
"T  c #02456F",
"R  c #28536D",
"E  c #454E43",
"W  c #4C5247",
"Q  c #4D5449",
"!  c #575749",
"~  c #535151",
"^  c #6B5D4A",
"/  c #645E57",
"(  c #6D5348",
")  c #7D634C",
"_  c #73604B",
"`  c #696455",
"'  c #786B59",
"]  c #436363",
"[  c #456A6E",
"{  c #737E7E",
"}  c #636A68",
"|  c #5C5578",
" . c #810101",
".. c #8C0303",
"X. c #820A07",
"o. c #980505",
"O. c #871804",
"+. c #841212",
"@. c #8A1111",
"#. c #921515",
"$. c #A40C0C",
"%. c #A60404",
"&. c #B70506",
"*. c #A91B1B",
"=. c #B20E10",
"-. c #9B380C",
";. c #9C370A",
":. c #94300C",
">. c #A42C2C",
",. c #93293E",
"<. c #C70303",
"1. c #CA0303",
"2. c #C60909",
"3. c #D20404",
"4. c #D90404",
"5. c #D11515",
"6. c #E40101",
"7. c #EA0101",
"8. c #F30101",
"9. c #FA0000",
"0. c #F31515",
"q. c #F52A2A",
"w. c #E92121",
"e. c #D83030",
"r. c #944830",
"t. c #A56115",
"y. c #C87915",
"u. c #B72942",
"i. c #93524F",
"p. c #B05353",
"a. c #89684E",
"s. c #896B52",
"d. c #9B7458",
"f. c #8F7158",
"g. c #AC7B5B",
"h. c #A57759",
"j. c #875F66",
"k. c #8C7763",
"l. c #967D67",
"z. c #B07867",
"x. c #C85151",
"c. c #DF6969",
"v. c #BB8033",
"b. c #D2911C",
"n. c #D29422",
"m. c #C68C2C",
"M. c #9A806A",
"N. c #A7866E",
"B. c #BD8A6A",
"V. c #B68566",
"C. c #AB8A72",
"Z. c #BA9277",
"A. c #C9997B",
"S. c #D29C7C",
"D. c #C08B6A",
"F. c #00128C",
"G. c #000D9B",
"H. c #2C018E",
"J. c #320A90",
"K. c #0E268D",
"L. c #030BAB",
"P. c #2419BE",
"I. c #3627AB",
"U. c #4F3597",
"Y. c #005296",
"T. c #3950B9",
"R. c #0565B0",
"E. c #1B63B3",
"W. c #614586",
"Q. c #4F619E",
"!. c #4060BC",
"~. c #0E01C9",
"^. c #0001D6",
"/. c #0608DA",
"(. c #170FCC",
"). c #0831DE",
"_. c #0011E5",
"`. c #016FD1",
"'. c #0059EA",
"]. c #027BF3",
"[. c #0079E4",
"{. c #2F7AC8",
"}. c #768989",
"|. c #0081FA",
" X c #8E969A",
".X c #9DA09F",
"XX c #99B4B6",
"oX c #91A6A6",
"OX c #B3ACAC",
"+X c #B5B1B1",
"@X c #B8B9B8",
"#X c #A8AFAF",
"$X c #A698B8",
"%X c #CF9E81",
"&X c #D29788",
"*X c #DDA686",
"=X c #D9A485",
"-X c #DAB097",
";X c #E0A786",
":X c #E2A989",
">X c #E1A887",
",X c #E5B79D",
"<X c #C9BEBE",
"1X c #C4B7AC",
"2X c #E1B0B0",
"3X c #DBCABF",
"4X c #EDCEBD",
"5X c #9DB8C8",
"6X c #9FC1C2",
"7X c #B9C3C3",
"8X c #B9D8D8",
"9X c #9ECCF7",
"0X c #9EC6EA",
"qX c #C6CECE",
"wX c #C8DADA",
"eX c #D6D3D2",
"rX c #ECDEDB",
"tX c #F1DDD1",
"yX c #E3CAC4",
"uX c #C4E3E3",
"iX c #C8E9E9",
"pX c #DCE3E3",
"aX c #D5E4E4",
"sX c #E9EAEA",
"dX c #F8E9E9",
"fX c #E8F2F2",
"gX c #FBFBFA",
"hX c #F9F5F3",
"jX c #F4E3D9",
"kX c None",
/* pixels */
"kXkXkXkXkXkXkXkXkXkXkXkXkXkXkXkXkXkXkXkXkXkX& & & & & & & kXkXkXkXkXkXkXkXkXkXkXkXkXkXkXkXkXkXkXkXkX",
"kXkXkXkXkXkXkXkXkXkXkXkXkXkXkXkXkXkXkXkXkXkXt f f f f f g kXkXkXkXkXkXkXkXkXkXkXkXkXkXkXkXkXkXkXkXkX",
"kXkXkXkXkXkXkXkXkXkXkXkXkXkXkXkXkXkXkX- - # @.9.9.9.9.9.3.6 # # kXkXkXkXkXkXkXkXkXkXkXkXkXkXkXkXkXkX",
"kXkXkXkXkXkXkXkXkXkXkXkXkXkXkXkX% % % @.2.2.6.9.9.8.9.9.8.2.2.2.e & & kXkXkXkXkXkXkXkXkXkXkXkXkXkXkX",
"kXkXkXkXkXkXkXkXkXkXkXkXkXkXkXkX7 7 7 =.9.9.8.7.q.q.q.0.7.9.9.8.g 7 . kXkXkXkXkXkXkXkXkXkXkXkXkXkXkX",
"kXkXkXkXkXkXkXkXkXkXkXkXkXkX& ; 3.7.7.8.9.9.1.%.2XdXdXp.&.7.9.9.7.7.7.t % kXkXkXkXkXkXkXkXkXkXkXkXkX",
"kXkXkXkXkXkXkXkXkXkXkXkXkX& y #.7.7.1.1.1.1.x.&XrXgXgX2Xc.2.1.<.1.3.8.=.+.6 kXkXkXkXkXkXkXkXkXkXkXkX",
"kXkXkXkXkXkXkXkXkXkXkXkXkX% @.9.8.3.........z.sXpXpXpXaX<X#.......%.7.9.7.7 % kXkXkXkXkXkXkXkXkXkXkX",
"kXkXkXkXkXkXkXkXkXkXkXkXkX% @.8.&.X.- - - - 1 D C c D D 3 # # - # X %.6.7.7 % kXkXkXkXkXkXkXkXkXkXkX",
"kXkXkXkXkXkXkXkXkXkXkXkXkX% f 1.p y f g f f g g f h f f f f f f f f y %.<.6 % kXkXkXkXkXkXkXkXkXkXkX",
"kXkXkXkXkXkXkXkXkXkXkXkXkX% u o.- e 8.9.9.9.9.9.9.9.9.9.9.8.9.9.9.&.@ i o.  @ kXkXkXkXkXkXkXkXkXkXkX",
"kXkXkXkXkXkXkXkXkXkXkXkXkX@ o X i i t t t t t t t t t t t r t t y y p e X # @ kXkXkXkXkXkXkXkXkXkXkX",
"kXkXkXkXkXkXkXkXkXkXkXkXkXc 5 # d i % 1 c H 3 $ 3 c c , * J J 9 & 6 X.X % 9 8 kXkXkXkXkXkXkXkXkXkXkX",
"kXkXkXkXkXkXkXkXkXkXkX& 8 A./ @ = = @ k.-XsX{ $ M.%XS.W J aXyXA.K % = @ 5 C.k.@ kXkXkXkXkXkXkXkXkXkX",
"kXkXkXkXkXkXkXkXkXkX% ! k.=XC.` * 9 ' Z.,XhX}.$ N.:X*XQ J sXtX*XM.! & Q k.%XZ.' b kXkXkXkXkXkXkXkXkX",
"kXkXkXkXkXkXkXkXkXkX% k.:X:X:XA.4 K *X*X,XgX}.D C.:X*X/ I sXjX*X:XC.* k.:X=X*X=XK @ kXkXkXkXkXkXkXkX",
"kXkXkXkXkXkXkXkXkXkX& _ B.;X*X%X1 v =X*X,XhXsXeX,X*X:X3XsXgXtX*X:XN.& k.:X:XA.g.c @ kXkXkXkXkXkXkXkX",
"kXkXkXkXkXkXkXkXkXkX$ m s.A.%XD.W ` *X*X-X@XeXjX,X*X:XyXrX7X1X*X*XZ.E l.S.S.V.) 8 @ kXkXkXkXkXkXkXkX",
"kXkXkXkXkXkXkXkXkXkXkX% 9 d.h.g.%X=X*X:XZ.1 ' :X:X*X*X:XZ.1 Q *X*X*X=XB.g.g.^ = kXkXkXkXkXkXkXkXkXkX",
"kXkXkXkXkXkXkXkXkXkXkXkXkXv v m S.Z.! Q E & ` D.B.B.B.D.d.5 4 Q W ' =X' v v 8 kXkXkXkXkXkXkXkXkXkXkX",
"kXkXkXkXkXkXkXkXkXkXkXkXkX$ @ 4 Z.N.9 * % % n s.a.a.a.a._ * $ $ 4 Q S.! $ $ $ kXkXkXkXkXkXkXkXkXkXkX",
"kXkXkXkXkXkXkXkXkXkXkXkXkXkX$ 5 d.V.%XW @ @ = * * * * * * & $ & M.A.g.v $ kXkXkXkXkXkXkXkXkXkXkXkXkX",
"kXkXkXkXkXkXkXkXkXkXkXkXkXkXkX5 n ^ D.a.! ' v % @ @ @ @ 4 _ ` ! N.h.m 8 kXkXkXkXkXkXkXkXkXkXkXkXkXkX",
"kXkXkXkXkXkXkXkXkXkXkXkXkXkXkXkX@ 8 d.h.g.;X` & & % & $ c S.S.h.h.) = kXkXkXkXkXkXkXkXkXkXkXkXkXkXkX",
"kXkXkXkXkXkXkXkXkXkXkXkXkXkXkX; $.u.{.R n z.d.) a.) ) ) s.V.s.c E.Q.=.l $ kXkXkXkXkXkXkXkXkXkXkXkXkX",
"kXkXkXkXkXkXkXkXkXkXkXkXkXkX7 t 7.>.].Y.F _ ) ) ) ) ) ) ) ) Q T `.!.9.#.X kXkXkXkXkXkXkXkXkXkXkXkXkX",
"kXkXkXkXkXkXkXkXkXkXkXkXkX& +.8.8.u.].].`.< * * & * & & = = T ].|.T.8.8.6.7 & kXkXkXkXkXkXkXkXkXkXkX",
"kXkXkXkXkXkXkXkXkXkXkXkXkX% @.9.<.u.0X9X0XXXi.$.$.o.$.$.>..X6X9X9X$X2.7.7.7 & kXkXkXkXkXkXkXkXkXkXkX",
"kXkXkXkXkXkXkXkXkXkXkXkXkX& h 7.*.p.hXgXgXgXc.1.3.3.3.3.e.dXgXgXgXyX>.5.4.7 % kXkXkXkXkXkXkXkXkXkXkX",
"kXkXkXkXkXkXkXkXkXkXkXkXkX& y *.qXaXhXgXgXgX X= - - - # K sXgXgXgXfXwXp.o.6 % kXkXkXkXkXkXkXkXkXkXkX",
"kXkXkXkXkXkXkXkXkXkXkXkXkX% e g }.XXfXfXpX#X/ X # & % . 0 .X7XfXfXwXoX( p   kXkXkXkXkXkXkXkXkXkXkXkX",
"kXkXkXkXkXkXkXkXkXkXkXkXkXkX& & > P uXuX6X< r o.6 & % i ..@ [ uXuXXX> % @ kXkXkXkXkXkXkXkXkXkXkXkXkX",
"kXkXkXkXkX@ @ @ @ @ @ @ @ kX@ > R.R.P U Y L.Z X # % @   q L.K.P P R R.T @ kXkX@ @ @ % $ $ @ kXkXkXkX",
"kXkXkXkXkX1 2 2 2 1 2 2 2 kXC T '.E.0 8 0 I.K.M > @ @ B Z I.U.O z Y '.Y.T kX5 2 2 2 2 2 2 2 , kXkXkX",
"kXkXkX$ , ] [ ] ] ] [ ] I & Y.]._.I.m.b.n.n.W./.M @ % G.P.m.n.n.b.a./.'.[.C 3 ] ] ] ] ] ] ] L % kXkX",
"kXkXkX@ * L L L L L L L J & K.).} i.-.-.-.-.r.j.9 @ @ ~ j.-.-.-.;.r.j.T.).B 1 L L L L L L L G % kXkX",
"kXkXkX$ & G G G G J G G D $ F.(.v.y.a a a a t.b.0 @ $ t.m.d a a s :.b.U.^.N , G G J G G J J 3 % kXkX",
"kXkXkX$ & * , & & * & * * $ F.~.k O.a a a a  .h O $ $ t d a a a a s O.J.^.N $ * * & * & * & & % kXkX",
"kXkXkX% % % & , , , , , , $ F.~.j a a a a a a a   $ @ w s a a a s a a H.^.N = , , , , , , & % % kXkX",
"kXkXkX% % % 3 H H H H H D & F.~.k s s s s s d a   $ @ w d s d a s s s H.^.N , H J H J J J * $ & kXkX",
"kXkXkX$ $ @ G ] I I ] I L & B A  XOXOXOXOXOXOXOXH @ % { +XOXOXOXOX+XOXR M % 2 I I ] I I I , % % kXkX",
"kXkXkX% $ $ J ] ] ] ] ] L %   0 8XuX+X+X+X+X+XOXH @ $ { +X+X+X+X+X7XaX} . $ 3 ] ] I ] ] U , % % kXkX",
"kXkXkX% % $ 2 H J H H H G & u *.qXOXd s s s s d 6 % % r X.s s d s ,.uXp...  < H J H H H J * $ % kXkX",
"kXkXkXkX% @ , 2 2 2 2 2 2 & i 5.qX#Xe p s a s a . @ % w s a a a w ( uXx.&.  * 2 2 2 2 2 2 & $ % kXkX",
"kXkXkXkXkX% $ $ $ $ $ $ % % +.0.3XoX: u  . . .s . # : u  . . .s . U qXc.7.7 % $ $ $ $ $ % $ % kXkXkX",
"kXkXkXkXkX& % % % $ % & % % 7 kXq.w.3.4.6.6.6.6.4.1.1.4.6.6.6.6.3.5.q.kXkX= $ % % % % & % % % kXkXkX",
"kXkXkXkXkX% & % % % & % % % kXkX$.$.$.$.$.$.$.$.$.$.$.$.$.$.$.$.$.$.%.kXkX% % $ % $ $ % % & kXkXkXkX",
"kXkXkXkXkXkX$ $ % % $ % & kXkXkX@ $ % @ @ = @ @ % = & & % $ % $ @ @ = kXkXkXkX& % % & % $ kXkXkXkXkX",
"kXkXkXkXkXkXkXkXkXkXkXkXkXkXkXkXkXkXkXkXkXkXkXkXkXkXkXkXkXkXkXkXkXkXkXkXkXkXkXkXkXkXkXkXkXkXkXkXkXkX",
"kXkXkXkXkXkXkXkXkXkXkXkXkXkXkXkXkXkXkXkXkXkXkXkXkXkXkXkXkXkXkXkXkXkXkXkXkXkXkXkXkXkXkXkXkXkXkXkXkXkX"
};
