/* XPM */
static char *result[] = {
/* columns rows colors chars-per-pixel */
"50 50 226 2 ",
"   c #1C1E1E",
".  c #0A1F1F",
"X  c #261C1C",
"o  c #2B1C1A",
"O  c #3C1B1B",
"+  c #351717",
"@  c #001F27",
"#  c #331B24",
"$  c #012626",
"%  c #0C2424",
"&  c #032A27",
"*  c #002529",
"=  c #012929",
"-  c #0A2D2C",
";  c #0A2D26",
":  c #132323",
">  c #1C2222",
",  c #112C29",
"<  c #14322D",
"1  c #0C3333",
"2  c #073030",
"3  c #133534",
"4  c #1D3631",
"5  c #163A3A",
"6  c #1A3D3D",
"7  c #1C3A35",
"8  c #002334",
"9  c #232122",
"0  c #2B2121",
"q  c #273C37",
"w  c #2E302B",
"e  c #2A221B",
"r  c #480E0E",
"t  c #560C0C",
"y  c #461919",
"u  c #591616",
"i  c #620707",
"p  c #690809",
"a  c #760000",
"s  c #7A0100",
"d  c #750A0A",
"f  c #780909",
"g  c #690619",
"h  c #6D1616",
"j  c #651717",
"k  c #741515",
"l  c #4D1A24",
"z  c #47352E",
"x  c #523333",
"c  c #710135",
"v  c #29423D",
"b  c #37453B",
"n  c #484A3C",
"m  c #534E23",
"M  c #6B503E",
"N  c #081B4D",
"B  c #001B56",
"V  c #011D59",
"C  c #081C51",
"Z  c #1F1940",
"A  c #032248",
"S  c #023D5C",
"D  c #003445",
"F  c #00157D",
"G  c #001861",
"H  c #4A036D",
"J  c #6E0064",
"K  c #1E4242",
"L  c #1E484B",
"P  c #234444",
"I  c #2B4C4C",
"U  c #2A4647",
"Y  c #354D4D",
"T  c #384741",
"R  c #355454",
"E  c #3D5555",
"W  c #3D5D5C",
"Q  c #39585A",
"!  c #2D5050",
"~  c #044774",
"^  c #376770",
"/  c #4D544A",
"(  c #59594B",
")  c #435C5C",
"_  c #4C5C5C",
"`  c #445756",
"'  c #4B564F",
"]  c #675B47",
"[  c #6E564B",
"{  c #5C635A",
"}  c #7C624B",
"|  c #796C5A",
" . c #6C6557",
".. c #476868",
"X. c #5C6666",
"o. c #546161",
"O. c #587C7B",
"+. c #636B6B",
"@. c #6B7474",
"#. c #737575",
"$. c #797B7B",
"%. c #797268",
"&. c #850101",
"*. c #8C0101",
"=. c #8A0A0A",
"-. c #9D0101",
";. c #960707",
":. c #841212",
">. c #971111",
",. c #A30000",
"<. c #AC0000",
"1. c #A40D0D",
"2. c #AC0E0D",
"3. c #B70506",
"4. c #A60F19",
"5. c #86002E",
"6. c #B3003E",
"7. c #C60101",
"8. c #CC0606",
"9. c #C30808",
"0. c #D20101",
"q. c #D80000",
"w. c #D40C0C",
"e. c #E50202",
"r. c #EB0101",
"t. c #F50000",
"y. c #F90000",
"u. c #F91111",
"i. c #E01717",
"p. c #DF3F3F",
"a. c #F12727",
"s. c #A17D22",
"d. c #93681E",
"f. c #C47317",
"g. c #904141",
"h. c #89684E",
"j. c #87674D",
"k. c #916D51",
"l. c #9A7255",
"z. c #A67757",
"x. c #B17F5F",
"c. c #967E68",
"v. c #857662",
"b. c #B0796B",
"n. c #C67676",
"m. c #A9846A",
"M. c #BD8A6A",
"N. c #B88464",
"B. c #AC8A72",
"V. c #BC9378",
"C. c #B08C73",
"Z. c #C38F6F",
"A. c #C79678",
"S. c #000E9E",
"D. c #001482",
"F. c #38038B",
"G. c #250592",
"H. c #0009B2",
"J. c #0905BA",
"K. c #0410A4",
"L. c #2B00A4",
"P. c #3600B0",
"I. c #1C3088",
"U. c #025DA8",
"Y. c #004FB4",
"T. c #0064B5",
"R. c #357486",
"E. c #0602CA",
"W. c #0002D5",
"Q. c #0000DD",
"!. c #0F14C7",
"~. c #0000E1",
"^. c #0008E1",
"/. c #0016E4",
"(. c #001EE5",
"). c #0035EA",
"_. c #0069C1",
"`. c #006ECE",
"'. c #0374DD",
"]. c #0F68D7",
"[. c #0053EF",
"{. c #0077F6",
"}. c #007EF4",
"|. c #007BFA",
" X c #006FF0",
".X c #688787",
"XX c #728585",
"oX c #798989",
"OX c #779A9A",
"+X c #6E9191",
"@X c #7EA2A2",
"#X c #5798AF",
"$X c #0081F9",
"%X c #76BFDE",
"&X c #858B8B",
"*X c #818786",
"=X c #839595",
"-X c #889A9A",
";X c #899696",
":X c #939D9D",
">X c #908686",
",X c #85A4A4",
"<X c #9DBABA",
"1X c #98AAAC",
"2X c #A6BBBB",
"3X c #CD8787",
"4X c #DCA585",
"5X c #D6A283",
"6X c #D4AE96",
"7X c #E1A988",
"8X c #E1A787",
"9X c #E7A195",
"0X c #EDC1A8",
"qX c #ABC4C4",
"wX c #B8D7D7",
"eX c #B8C1C0",
"rX c #CEC9C9",
"tX c #EDCCCC",
"yX c #C7E6E6",
"uX c #CCEBEB",
"iX c #D8EAEA",
"pX c #EAEDED",
"aX c #EAF3F3",
"sX c #F4F5F5",
"dX c #FBFAF9",
"fX c None",
/* pixels */
"fXfXfXfXfXfXfXfXfXfXfXfXfXfXfXfXfXfXfXfXfXfX= = = = = = = fXfXfXfXfXfXfXfXfXfXfXfXfXfXfXfXfXfXfXfXfX",
"fXfXfXfXfXfXfXfXfXfXfXfXfXfXfXfXfXfXfXfXfXfXy k h h h h j fXfXfXfXfXfXfXfXfXfXfXfXfXfXfXfXfXfXfXfXfX",
"fXfXfXfXfXfXfXfXfXfXfXfXfXfXfXfXfXfXfXfXfX; >.y.y.y.y.y.w.> % % fXfXfXfXfXfXfXfXfXfXfXfXfXfXfXfXfXfX",
"fXfXfXfXfXfXfXfXfXfXfXfXfXfXfXfXfXfXfX= 0 3.e.y.y.y.y.y.r.8.8.9.O = = fXfXfXfXfXfXfXfXfXfXfXfXfXfXfX",
"fXfXfXfXfXfXfXfXfXfXfXfXfXfXfXfXfXfXfX= 0 r.y.y.y.y.y.y.y.y.y.y.j 0 0 fXfXfXfXfXfXfXfXfXfXfXfXfXfXfX",
"fXfXfXfXfXfXfXfXfXfXfXfXfXfXfXfXfXfXfX$ 0 e.y.y.y.y.y.y.y.y.y.y.r.r.r.u = fXfXfXfXfXfXfXfXfXfXfXfXfX",
"fXfXfXfXfXfXfXfXfXfXfXfXfXfXfXfXfXfXfX$ q 3Xp.8.7.0.y.y.y.y.y.y.y.y.y.2.:.9 fXfXfXfXfXfXfXfXfXfXfXfX",
"fXfXfXfXfXfXfXfXfXfXfXfXfXfXfXfXfXfXfX$ I pXn.,.-.<.r.r.r.r.r.y.y.y.y.y.r.y : fXfXfXfXfXfXfXfXfXfXfX",
"fXfXfXfXfXfXfXfXfXfXfXfXfXfXfXfXfXfX= $ ! aXb.a s *.<.<.<.<.7.y.y.y.y.y.y.q.>.= = $ fXfXfXfXfXfXfXfX",
"fXfXfXfXfXfXfXfXfXfXfXfXfXfXfXfXfX  y : D =X[ r + t *.*.*.*.,.0.0.0.0.r.y.y.8.j u O fXfXfXfXfXfXfXfX",
"fXfXfXfXfXfXfXfXfXfXfXfXfXfXfXfX= o ,.O ; $ = = $ X a a s a &.-.-.-.,.0.y.y.y.y.3.f $ - fXfXfXfXfXfX",
"fXfXfXfXfXfXfXfXfXfXfXfXfXfXfX% u =.q.3.1.1.1.1.2.:.X X X X r &.&.*.&.,.7.t.y.t.3.d $ = fXfXfXfXfXfX",
"fXfXfXfXfXfXfXfXfXfXfXfXfXfXfX: f -.8.8.w.a.i.8.w.1.0 0 0 0 O i i i i &.-.q.r.e.3.f $ $ fXfXfXfXfXfX",
"fXfXfXfXfXfXfXfXfXfXfXfXfXfXfXfX% % % % U rX@.$ % y e.r.r.r.>.% % $ $ t &.-.,.,.,.f $ $ fXfXfXfXfXfX",
"fXfXfXfXfXfXfXfXfXfXfXfXfXfXfXfXfX= = / %.O.+X;X%.[ h k h k y $ ( %.| x + s *.*.t O fXfXfXfXfXfXfXfX",
"fXfXfXfXfXfXfXfXfXfXfXfXfXfXfXfXfXfX= c.A.; ;XdX0XC.7 3 < = - q C.7X4X] , t p p X = fXfXfXfXfXfXfXfX",
"fXfXfXfXfXfXfXfXfXfXfXfXfXfXfXfX$ $ = c.V.- -XdX0X5X5XV.m.- / V.A.7X7XN.h.w . % & = fXfXfXfXfXfXfXfX",
"fXfXfXfXfXfXfXfXfXfXfXfXfXfXfXfXT T T m.A.Y oXeX6X8X7X7XV.2 ' 4X8X4X7XZ.l.7 $ = = $ fXfXfXfXfXfXfXfX",
"fXfXfXfXfXfXfXfXfXfXfXfXfXfX$ 3 V.4X4X4X4X4X .- m.7X7X7XC.- / 7X4X8X8XZ.l.4 = $ $ = fXfXfXfXfXfXfXfX",
"fXfXfXfXfXfXfXfXfXfXfXfXfXfX$ 3 z.Z.M.M.x.( q $ m.7X4X7X5Xc.m.M.M.M.M.[ b ; $ = = fXfXfXfXfXfXfXfXfX",
"fXfXfXfXfXfXfXfXfXfXfXfXfXfXfX3 } h.j.h.[ ; 3 b C.7X4X7X4XA.A.z.l.j.j.q $ $ = = fXfXfXfXfXfXfXfXfXfX",
"fXfXfXfXfXfXfXfXfXfXfXfXfXfXfXfX- - - ; ; $  .5X4X7X7X4X5XN.x.z.q - - - = = = fXfXfXfXfXfXfXfXfXfXfX",
"fXfXfXfXfXfXfXfXfXfXfXfXfXfXfXfXfX= = b ] | B.7X7X5XZ.Z.m.M n n < > :.:.k > & fXfXfXfXfXfXfXfXfXfXfX",
"fXfXfXfXfXfXfXfXfXfXfXfXfXfXfXfXfXfX= ] x.5X4X4X7XA.z.l.j., $ % - # r.y.r.0 = fXfXfXfXfXfXfXfXfXfXfX",
"fXfXfXfXfXfXfXfXfXfXfXfXfXfXfXfXfXfX= < q T j.M.M.l.b v w 2.3.2.G.J.P.5.3.0 = fXfXfXfXfXfXfXfXfXfXfX",
"fXfXfXfXfXfXfXfXfXfXfXfXfXfXfXfXfXfXW W R = b } } M O O j t.y.y.J P.~.H c # e fXfXfXfXfXfXfXfXfXfXfX",
"fXfXfXfXfXfXfXfXfXfXfXfXfXfX= = $ ) aXaXrX3 $ ; = O r.r.t.t.y.y.y.6.Q.~.E.5.p & fXfXfXfXfXfXfXfXfXfX",
"fXfXfXfXfXfXfXfXfXfXfXfXfX$ ^ #X1XeXdXdXtX4.>.1.k =.t.y.t.y.y.y.0.,.J P.~.P.H p X = $ $ $ fXfXfXfXfX",
"fXfXfXfXfXfXfXfXfXfXfXfXfX$ R.%XaXaXaXsXtXu.y.y.7.7.y.y.t.r.e.e.<.,.,.F.~.~.L.5.9 - q 7 4 fXfXfXfXfX",
"fXfXfXfXfXfXfXfXfXfXfXfXfX= 2 L wXuXuXuXrXu.y.y.t.t.y.y.r.<.,.<.,.,.,.F.~.Q.W.E.B b 5XM.h.4 $ fXfXfX",
"fXfXfXfXfXfXfXfXfXfXfXfXfX= = 1 +X@X,X@X>Xw.q.0.0.0.q.q.8.,.-.,.,.*.p G.~.~.~.Q.V T 5XA.l.q $ fXfXfX",
"fXfXfXfXfXfXfXfXfXfX; & = = = 8 2 2 2 2 > ;.-.-.,.,.-.,.-.-.-.-.-.d - K.~.~.Q.W.V T 5XM.l.4 = fXfXfX",
"fXfXfXfXfXfXfXfX= m s.s.d.; ~ `._._._._.U.0 o o &.,.,.,.=.+ e o e > H.W.~.~.H.V %.c. .{ / v 5 fXfXfX",
"fXfXfXfXfXfXfXfX= m f.f.d.e ~ `.$X$X$X$X'.~ S ~ u d d d g A V V B F ~.~.~.~.S.; v.c.D 6 K ...XfXfXfX",
"fXfXfXfXfXfXfXfX= + s s s a O D '.$X$X$X$X}.}.'.~ = $ % A E.Q.Q.Q.Q.~.~.Q.~.S.= K P = = 1 <XyXyXfXfX",
"fXfXfXfXfXfXfX= = + s a a s t l ].$X}.$X$X$X}.}.T.U.U.U.Y.Q.Q.~.Q.~.Q.~.Q.D.B = 2 ! OX@X@XO.....fXfX",
"fXfXfXfXfXfX- = - + a a a a s g ].{.{.{.{.{.|.|.$X$X$X$X X^.Q.~.~.Q.W.W.E.A = 2 $ R yXyXwXI = 1 fXfX",
"fXfXfXfXfX$ P W W P : t s s s g !./././././.[.$X$X$X$X)./.~.~.~.~.H.A N A R W Q 1 K *X&XoX+.XXqXfXfX",
"fXfXfXfXfX5 I W W ! 5 # t a s g J.~.Q.Q.Q.Q.).[.[.[.[.(.~.~.Q.Q.H.D.= - 3 ! W W P P ` #.:X:X<XqXfXfX",
"fXfXfX$ 1 ..Q U I R ..5 : a s g E.Q.Q.Q.Q.Q.~.~.Q.Q.Q.Q.~.Q.Q.W.V = = 5 I I I I W Q - O.yXyX2X#.fXfX",
"fXfX= 5 P I _ +.+.o.I P 6   t p N B B B B B K.~.~.~.~.~.E.G B B 8 - K P U X.+.+.W U 6 I W oX&X$.fXfX",
"fXfX= P U R _ X.X.o.E I P = x g.' Q ) W W E I.H.H.H.H.H.K.Q W W 1 2 U Y E o.X.+._ R I 3 = X.*X;XfXfX",
"fXfX= K R #.Y - K _ #.` D = =XsXsXsXsXsXsXsXXX* * * $ @ U pXsXpXW - P X.#.3 1 U +.+.U 5 - X.:XyXfXfX",
"fXfX= P Y #.E 6 .XXX$.) U = o.-X-X-X-X-X-X;XoXXXXXXXXXXXoX3X3X3XT 2 P X.#.P R +X$.+.I 5 2 =X:X+XfXfX",
"fXfX- 6 R @._ W qX<X#.` v = $ $ $ $ $ $ $ $ =XaXpXpXpXpXrX1.-.*.X 2 P X.#.E .XyX;X+.U 3 1 <X@X= fXfX",
"fXfXfX- 1 Y o.#.&X@.Y 5 - fXfXfXfXfXfXfXfXfXU I ! ! I ! U >   > $ - U X.$.<XwXyX:X+.I 5 = K D = fXfX",
"fXfXfX$ - 5 Y _ o.Y 5 1 $ fXfXfXfXfXfXfXfXfXfX$ $ $ $ @ $ $ = = = - 6 ) +.2XeXqX$._ 6 5 1 - ; & fXfX",
"fXfXfXfXfX= = = $ = = fXfXfXfXfXfXfXfXfXfXfXfXfXfXfXfXfXfXfXfXfXfXfX= 5 I @.$.$.' D = 3 P - $ fXfXfX",
"fXfXfXfXfXfXfXfXfXfXfXfXfXfXfXfXfXfXfXfXfXfXfXfXfXfXfXfXfXfXfXfXfXfXfX1 3 U Y Y 5 3 fXfXfXfXfXfXfXfX",
"fXfXfXfXfXfXfXfXfXfXfXfXfXfXfXfXfXfXfXfXfXfXfXfXfXfXfXfXfXfXfXfXfXfXfX= = $ $ $ $ $ fXfXfXfXfXfXfXfX"
};
