/* XPM */
static char *result[] = {
/* columns rows colors chars-per-pixel */
"50 50 209 2 ",
"   c #191E1F",
".  c #361A1A",
"X  c #3A1B1A",
"o  c #261E1E",
"O  c #331626",
"+  c #002626",
"@  c #0D2525",
"#  c #002923",
"$  c #012828",
"%  c #0A2C2C",
"&  c #032728",
"*  c #142222",
"=  c #1B2122",
"-  c #122E2C",
";  c #0E302E",
":  c #012334",
">  c #04223A",
",  c #0C3232",
"<  c #0D323C",
"1  c #133938",
"2  c #1B3D3D",
"3  c #183734",
"4  c #12302D",
"5  c #242121",
"6  c #2C2020",
"7  c #253E39",
"8  c #273B35",
"9  c #353A33",
"0  c #431616",
"q  c #481919",
"w  c #571212",
"e  c #690B0B",
"r  c #620F0F",
"t  c #631515",
"y  c #6D1616",
"u  c #621818",
"i  c #761414",
"p  c #700D0E",
"a  c #54211E",
"s  c #713636",
"d  c #740E34",
"f  c #1A403D",
"g  c #2B413A",
"h  c #3B4438",
"j  c #32443D",
"k  c #464A3D",
"l  c #504E3F",
"z  c #011F53",
"x  c #032448",
"c  c #153457",
"v  c #10314B",
"b  c #213C4E",
"n  c #001673",
"m  c #11146C",
"M  c #250E6D",
"N  c #172B69",
"B  c #313B67",
"V  c #68004F",
"C  c #1C4447",
"Z  c #264646",
"A  c #2C4A49",
"S  c #254949",
"D  c #3A4940",
"F  c #374A42",
"G  c #2C5050",
"H  c #26515B",
"J  c #325555",
"K  c #3C5C5C",
"L  c #335356",
"P  c #38537B",
"I  c #4D5449",
"U  c #595748",
"Y  c #4A5959",
"T  c #404C43",
"R  c #695C4A",
"E  c #634E4E",
"W  c #77604C",
"Q  c #696454",
"!  c #776959",
"~  c #456665",
"^  c #476C6C",
"/  c #567B7B",
"(  c #687979",
")  c #777777",
"_  c #7B7C7C",
"`  c #777979",
"'  c #7B6F6F",
"]  c #8E0404",
"[  c #880708",
"{  c #930204",
"}  c #9D0000",
"|  c #990A0F",
" . c #841212",
".. c #8B1111",
"X. c #891B19",
"o. c #9A0E12",
"O. c #A30000",
"+. c #A30E0E",
"@. c #AC0B0B",
"#. c #AC0000",
"$. c #BE0101",
"%. c #B50908",
"&. c #B20B10",
"*. c #91103A",
"=. c #B5003B",
"-. c #B8003C",
";. c #9B3E33",
":. c #A72626",
">. c #C40404",
",. c #CC0404",
"<. c #C30808",
"1. c #D30202",
"2. c #DA0206",
"3. c #E40101",
"4. c #ED0101",
"5. c #EA020D",
"6. c #F50001",
"7. c #F90000",
"8. c #F50806",
"9. c #F21717",
"0. c #DC2920",
"q. c #900050",
"w. c #B00B43",
"e. c #924244",
"r. c #B25E4A",
"t. c #876B53",
"y. c #8A6D55",
"u. c #916D51",
"i. c #9E7358",
"p. c #A67757",
"a. c #AA7959",
"s. c #A3745B",
"d. c #B37C5E",
"f. c #8C7865",
"g. c #837363",
"h. c #957B65",
"j. c #A56B7F",
"k. c #E45050",
"l. c #A6846B",
"z. c #B58363",
"x. c #BC8867",
"c. c #B68869",
"v. c #AC8A72",
"b. c #B89278",
"n. c #B08F77",
"m. c #C28E6D",
"M. c #CC9676",
"N. c #C69779",
"B. c #D29C7C",
"V. c #D8A07F",
"C. c #030F9A",
"Z. c #27039B",
"A. c #122189",
"S. c #000DA3",
"D. c #0814A6",
"F. c #0307B9",
"G. c #1D00B7",
"H. c #3F00A6",
"J. c #2A1FBD",
"K. c #2F1EB7",
"L. c #2800B9",
"P. c #1824B1",
"I. c #501A94",
"U. c #4000AA",
"Y. c #4C7581",
"T. c #0104CD",
"R. c #0006C0",
"E. c #0300DC",
"W. c #0205D4",
"Q. c #0000E3",
"!. c #40859A",
"~. c #7A858A",
"^. c #739393",
"/. c #7C9E9E",
"(. c #628D93",
"). c #5395AE",
"_. c #799CAB",
"`. c #78C9EC",
"'. c #848787",
"]. c #B08C98",
"[. c #BB9EAC",
"{. c #84A6A6",
"}. c #84A9A8",
"|. c #93A9A9",
" X c #92B5B5",
".X c #9FB9B9",
"XX c #A6BEBD",
"oX c #CF9E80",
"OX c #D09F81",
"+X c #D5A182",
"@X c #DCA585",
"#X c #E3A989",
"$X c #E1A786",
"%X c #A4C6C6",
"&X c #AEC2C2",
"*X c #A8CACA",
"=X c #B4CCCC",
"-X c #B8CFCF",
";X c #BCD5D5",
":X c #BCDCDF",
">X c #8DDBF9",
",X c #A8D7E0",
"<X c #BCE4EB",
"1X c #BAE7F0",
"2X c #C4DCDE",
"3X c #CEC0C0",
"4X c #C1E1E1",
"5X c #C6E8EA",
"6X c None",
/* pixels */
"6X6X6X6X6X6X6X6X6X6X6X6X6X6X6X6X6X6X6X6X6X6X$ $ $ $ $ $ $ 6X6X6X6X6X6X6X6X6X6X6X6X6X6X6X6X6X6X6X6X6X",
"6X6X6X6X6X6X6X6X6X6X6X6X6X6X6X6X6X6X6X6X6X6Xq i y y y y u 6X6X6X6X6X6X6X6X6X6X6X6X6X6X6X6X6X6X6X6X6X",
"6X6X6X6X6X6X6X6X6X6X6X6X6X6X6X6X6X6X6X@ @ @ ..7.7.7.7.7.1.5 @ @ 6X6X6X6X6X6X6X6X6X6X6X6X6X6X6X6X6X6X",
"6X6X6X6X6X6X6X6X6X6X6X6X6X6X6X6X6X6X$ ..<.<.3.7.7.7.7.7.8.,.<.<.X $ 6X6X6X6X6X6X6X6X6X6X6X6X6X6X6X6X",
"6X6X6X6X6X6X6X6X6X6X6X6X6X6X6X6X6X6X6 &.7.7.7.7.7.7.7.6.7.7.7.6.u 5 6X6X6X6X6X6X6X6X6X6X6X6X6X6X6X6X",
"6X6X6X6X6X6X6X6X6X6X6X6X6X6X6X6X$ q 2.6.7.7.7.7.7.6.7.7.7.7.7.7.6.&.% 6X6X6X6X6X6X6X6X6X6X6X6X6X6X6X",
"6X6X6X6X6X6X6X6X6X6X6X6X6X6X6X* i +.7.7.7.7.7.7.6.7.6.7.6.7.7.7.7.2...q $ 6X6X6X6X6X6X6X6X6X6X6X6X6X",
"6X6X6X6X6X6X6X6X6X6X6X6X6X6X* . 3.8.7.7.7.7.7.7.6.7.7.7.7.7.7.6.7.7.7.y * 6X6X6X6X6X6X6X6X6X6X6X6X6X",
"6X6X6X6X6X6X6X6X6X6X6X6X6X$ i 3.6.7.7.7.7.7.7.7.7.7.6.7.7.7.7.7.7.7.6.3.,.6 $ 6X6X6X6X6X6X6X6X6X6X6X",
"6X6X6X6X6X6X6X6X6X6X6X6X6X$ i 2.4.7.6.7.7.7.7.7.6.7.7.7.7.6.7.6.7.7.7.2.>.5 $ 6X6X6X6X6X6X6X6X6X6X6X",
"6X6X6X6X6X6X6X6X6X6X6X6X6X$ w #.3.7.7.7.7.7.7.7.7.7.7.6.7.7.7.6.7.7.7.$.{ = + 6X6X6X6X6X6X6X6X6X6X6X",
"6X6X6X6X6X6X6X6X6X6X6X6X6X& w O.$.>.$.3.7.7.7.7.7.7.7.7.7.7.7.6.,.$.$.#.}   + 6X6X6X6X6X6X6X6X6X6X6X",
"6X6X6X6X6X6X6X6X6X6X6X6X6Xg a [ { } O.,.3.3.3.3.3.3.3.3.3.3.4.3.#.O.} ] p 9 g 6X6X6X6X6X6X6X6X6X6X6X",
"6X6X6X6X6X6X6X6X6X6X6X& 7 N.R   ] O.O.O.O.O.#.O.#.O.#.O.O.O.O.O.O.O.O.0 = v.f.& 6X6X6X6X6X6X6X6X6X6X",
"6X6X6X6X6X6X6X6X6X6X$ U f.@Xv.Q q 0 0 [ O.O.O.O.O.} O.} O.} O.} r 0 0 U g.B.b.! j 6X6X6X6X6X6X6X6X6X",
"6X6X6X6X6X6X6X6X6X6X$ f.$X$X$XoX8 + + w ] ] ] ] ] ] ] ] ] { ] [ o + # l.#X#X@X@XD + 6X6X6X6X6X6X6X6X",
"6X6X6X6X6X6X6X6X6X6X# W x.@X$XN.3 & + @ * * * * * * * * * * * * & & + f.#X#XB.a.g + 6X6X6X6X6X6X6X6X",
"6X6X6X6X6X6X6X6X6X6X+ U y.M.B.N.I g + + $ & + $ $ + + $ $ + $ $ & 4 D h.B.B.c.W 8 + 6X6X6X6X6X6X6X6X",
"6X6X6X6X6X6X6X6X6X6X6X$ 8 i.a.a.OXl.% + + $ $ $ + $ $ $ $ $ $ + & D OXx.a.a.W $ 6X6X6X6X6X6X6X6X6X6X",
"6X6X6X6X6X6X6X6X6X6X6X6X6Xh h k l.c.h.j + + & $ $ $ + $ + $ + $ Q h.x.R h h 9 6X6X6X6X6X6X6X6X6X6X6X",
"6X6X6X6X6X6X6X6X6X6X6X6X6X+ + 4 u.z.@XQ 3 & & $ $ + $ $ $ + ; g l.M.a.h + + $ 6X6X6X6X6X6X6X6X6X6X6X",
"6X6X6X6X6X6X6X6X6X6X6X6X6X6X+ 4 u.p.a.m.v.; & & $ $ $ $ $ + I oXc.a.a.k $ 6X6X6X6X6X6X6X6X6X6X6X6X6X",
"6X6X6X6X6X6X6X6X6X6X6X6X6X6X+ % k R p.c.d.X... . . ... . . .;.m.d.u.l 3 + 6X6X6X6X6X6X6X6X6X6X6X6X6X",
"6X6X6X6X6X6X6X6X6X6X6X6X6X6X@ % # 9 i.i.r.8.7.7.7.7.7.7.7.7.0.s.a.W @ & & 6X6X6X6X6X6X6X6X6X6X6X6X6X",
"6X6X6X6X6X6X6X6X6X6X6X6X6X$ y %.<.*.K.J.I.5.7.7.7.7.7.7.7.7.w.K.J.I.&.&.@.6 6X6X6X6X6X6X6X6X6X6X6X6X",
"6X6X6X6X6X6X6X6X6X6X6X6X6XX +.7.7.-.E.Q.L.,.3.3.3.3.2.3.3.3.q.Q.Q.U.6.7.6.u . 6X6X6X6X6X6X6X6X6X6X6X",
"6X6X6X6X6X6X6X6X6X6X6X+ 6 3.8.7.7.-.E.Q.G.| O.O.O.O.O.O.O.O.V Q.Q.U.5.6.7.7.o.+ 6X6X6X6X6X6X6X6X6X6X",
"6X6X6X6X6X6X6X6X6X6X6X$ 6 3.7.7.7.-.E.Q.T.O . . . . . . . . M Q.Q.U.6.7.7.7.+.+ 6X6X6X6X6X6X6X6X6X6X",
"6X6X6X6X6X6X6X6X6X6X6X$ 6 5.7.7.7.-.E.T.D.2 8 7 7 7 2 g 8 g N F.Q.U.6.6.7.7.+.+ 6X6X6X6X6X6X6X6X6X6X",
"6X6X6X6X6X6X6X6X6X6X6X$ 6 4.7.7.7.-.E.n b N.OXOXB.OXOXOXB.+Xg.> F.U.6.7.7.7.+.$ 6X6X6X6X6X6X6X6X6X6X",
"6X6X6X6X6X6X6X6X6X6X6X6X5 o.$.1.@.d C.B Q @XV.N.M.M.M.M.B.@Xv.I A.M o.>.2.@.i + 6X6X6X6X6X6X6X6X6X6X",
"6X6X6X6X6X6X6X6X6X6X6X6X6X+ w ] * + % h.#X@Xx.a.a.a.a.s.z.@X@X@XT $ $ r { = $ 6X6X6X6X6X6X6X6X6X6X6X",
"6X6X6X6X6X6X6X6X6X6X+ + + # m Z.> g l.oX@Xx.d.a.a.p.a.p.a.z.M.@Xb.! % m Z.> $ $ + + 6X6X6X6X6X6X6X6X",
"6X6X6X6X6X6X6X6X6X, 1 1 < z S.T.x F n.n.v.y.t.y.t.t.t.t.y.t.i.n.b.g.< D.E.n x 1 1 1 6X6X6X6X6X6X6X6X",
"6X6X6X6X6X6X6X6X$ C ~ ~ P W.E.W.b A A A Z A A A A A A A A A A A A A Z D.Q.E.P.~ ~ L $ + 6X6X6X6X6X6X",
"6X6X6X6X6X$ $ $ $ , 2 f c E.S.z < , , , , , , , , , , ; , , , , , 1 1 z n T.D.C f 1 $ $ + $ 6X6X6X6X",
"6X6X6X6X6X$ $ % % $ $ $ z T.n $ # $ , , , , , ; , , , , , , , , , , + # : F.C.$ $ $ $ $ $ % $ 6X6X6X",
"6X6X6X$ , K K K K K K K J x : + # G %X%X*X%X%X%X%X*X%X%X%X*X%X%X*X/.@ # & > v K K K K K K K G $ 6X6X",
"6X6X6X+ , K K Y K K K Y J $ 3 A ~ / {.XX&X&X&X&X&X&X&X&X&X&X&X&X X^.^ L b $ f K ~ K ~ K K K S $ 6X6X",
"6X6X6X+ $ S Z Z S S Z Z C + Y '.:X X% Y _ _ _ ` _ _ ` _ _ _ _ ) 2 L 4X|.' , ; Z Z Z Z Z Z S f $ 6X6X",
"6X6X6X+ $ , % , , ; , ; % + / ;X5X X% ^.-X=X=X=X=X=X=X=X=X=X=X=XG G 4X;XXXC $ ; , , , % , , $ $ 6X6X",
"6X6X6X$ + & $ + + + + + $ + (.<X5X X$ ^.-X=X=X=X=X=X=X=X=X=X-X-XG L 4X5X,XS + + + + + + + + $ $ 6X6X",
"6X6X6X$ $ + + $ $ $ $ $ & + !.>X1X X$ Y _ _ _ _ _ _ _ _ Y.j.Y.f.2 J :X>X`.C + + + $ $ $ $ $ $ $ 6X6X",
"6X6X6X$ $ $ $ $ $ $ + $ & : E ].4X X, Y._.` ) ) ) ) ) ` ` ` ~._.C J <X[.j.2 + $ $ & & $ $ + $ & 6X6X",
"6X6X6X$ $ $ $ $ $ $ + $ & &  .9.3X|.% ).`.~.l._ _ l.~.Y.~.g._.`.H L 2Xk.3.6 $ $ $ + $ $ $ $ $ + 6X6X",
"6X6X6X$ + $ + $ + $ $ & & & r %.:.:.[ ].<X:X,X;X;X;X2X2X;X;X<X<Xe...:.%.O.5 + $ $ $ & $ + $ $ $ 6X6X",
"6X6X6X$ $ $ $ $ $ $ $ $ & $ 0 e e e e ' {.{.}.}.{.{.{.{.{.{.{.{.s e e e r = + $ $ $ $ + $ $ $ + 6X6X",
"6X6X6X6X6X+ $ $ + $ & $ $ 6X& & & & & & & & & $ + + + # + + + $ + + + + + 6X6X$ $ + $ $ + $ $ 6X6X6X",
"6X6X6X6X6X6X6X6X6X6X6X6X6X6X6X6X6X6X6X6X6X6X6X6X6X6X6X6X6X6X6X6X6X6X6X6X6X6X6X6X6X6X6X6X6X6X6X6X6X6X",
"6X6X6X6X6X6X6X6X6X6X6X6X6X6X6X6X6X6X6X6X6X6X6X6X6X6X6X6X6X6X6X6X6X6X6X6X6X6X6X6X6X6X6X6X6X6X6X6X6X6X"
};
