/* XPM */
static char *result[] = {
/* columns rows colors chars-per-pixel */
"50 50 215 2 ",
"   c #1E1F1F",
".  c #251C1B",
"X  c #2B1C19",
"o  c #3A1C1C",
"O  c #3B211E",
"+  c #002626",
"@  c #0C2424",
"#  c #022926",
"$  c #00252A",
"%  c #022929",
"&  c #0B2D2B",
"*  c #0A2829",
"=  c #132323",
"-  c #1C2121",
";  c #112C2B",
":  c #0D302D",
">  c #13312E",
",  c #0C3232",
"<  c #073030",
"1  c #113635",
"2  c #143A3A",
"3  c #1A3D3D",
"4  c #1B3734",
"5  c #072F30",
"6  c #282222",
"7  c #243C36",
"8  c #243C38",
"9  c #2A252C",
"0  c #251B2D",
"q  c #4B0E0E",
"w  c #580B0B",
"e  c #461616",
"r  c #541919",
"t  c #561818",
"y  c #540C13",
"u  c #690606",
"i  c #750102",
"p  c #7A0100",
"a  c #760B0A",
"s  c #7B0908",
"d  c #6B1616",
"f  c #651717",
"g  c #771413",
"h  c #530E2B",
"j  c #502A27",
"k  c #27413B",
"l  c #39453C",
"z  c #334429",
"x  c #7E581D",
"c  c #4A4B3D",
"v  c #5A483A",
"b  c #675E24",
"n  c #6F6D39",
"m  c #001E48",
"M  c #001D43",
"N  c #001D58",
"B  c #191751",
"V  c #002048",
"C  c #023D5B",
"Z  c #0F3D43",
"A  c #011A67",
"S  c #001571",
"D  c #3B046D",
"F  c #570067",
"G  c #670067",
"H  c #1D4141",
"J  c #224343",
"K  c #2D4C4C",
"L  c #244848",
"P  c #3C4A42",
"I  c #344E4E",
"U  c #345252",
"Y  c #3C5353",
"T  c #3D5D5C",
"R  c #2C5555",
"E  c #135069",
"W  c #2E6673",
"Q  c #324D68",
"!  c #4C5446",
"~  c #4D5449",
"^  c #57574A",
"/  c #425656",
"(  c #435B5B",
")  c #4D5D5D",
"_  c #555E59",
"`  c #675B48",
"'  c #615F51",
"]  c #715E48",
"[  c #7C634B",
"{  c #74644F",
"}  c #786C5B",
"|  c #6F6757",
" . c #446565",
".. c #4A6F6F",
"X. c #546363",
"o. c #5C6666",
"O. c #577676",
"+. c #646C6C",
"@. c #6C7171",
"#. c #747575",
"$. c #757A7A",
"%. c #830404",
"&. c #8C0101",
"*. c #860808",
"=. c #930101",
"-. c #9C0000",
";. c #9B0E0E",
":. c #841212",
">. c #941010",
",. c #851403",
"<. c #A30000",
"1. c #AB0000",
"2. c #A30D0D",
"3. c #A90C0C",
"4. c #B80303",
"5. c #993A10",
"6. c #9F1622",
"7. c #923131",
"8. c #A92727",
"9. c #CB0303",
"0. c #C60606",
"q. c #D90000",
"w. c #D40202",
"e. c #E60101",
"r. c #EB0000",
"t. c #F40000",
"y. c #FA0000",
"u. c #EC151A",
"i. c #CD2E2E",
"p. c #A27D22",
"a. c #8E601B",
"s. c #C67417",
"d. c #820268",
"f. c #89694F",
"g. c #9A7457",
"h. c #8D7158",
"j. c #A77858",
"k. c #957C67",
"l. c #8A6D6D",
"z. c #B16060",
"x. c #C97070",
"c. c #CA9327",
"v. c #9D816B",
"b. c #A6836A",
"n. c #BA8766",
"m. c #BD9378",
"M. c #AE8B71",
"N. c #C28E6E",
"B. c #C89678",
"V. c #D29C7C",
"C. c #001486",
"Z. c #010D9E",
"A. c #020EA6",
"S. c #0009B2",
"D. c #1E09AB",
"F. c #003DBE",
"G. c #21428E",
"H. c #005FAB",
"J. c #1E58B7",
"K. c #0261A9",
"L. c #0864B7",
"P. c #1460A2",
"I. c #5656A7",
"U. c #0005C8",
"Y. c #0002D4",
"T. c #0000DC",
"R. c #0000E1",
"E. c #000FE4",
"W. c #0017E4",
"Q. c #001BE8",
"!. c #0035EA",
"~. c #0068C1",
"^. c #0D71C3",
"/. c #0053EF",
"(. c #004DF0",
"). c #007BED",
"_. c #0077F6",
"`. c #007DF4",
"'. c #007BFA",
"]. c #688A8A",
"[. c #728585",
"{. c #798787",
"}. c #76999A",
"|. c #0081F9",
" X c #3585C0",
".X c #70C6EB",
"XX c #858888",
"oX c #8B9A9A",
"OX c #80A4A3",
"+X c #97B0AF",
"@X c #A1B8B8",
"#X c #BAA4A4",
"$X c #B39B86",
"%X c #C78484",
"&X c #D09F81",
"*X c #D58B8B",
"=X c #D4A183",
"-X c #DCA686",
";X c #DEA889",
":X c #E1A989",
">X c #C9B3AC",
",X c #B7C4C3",
"<X c #B9D7D7",
"1X c #A2C3C3",
"2X c #C5DBDB",
"3X c #CFD2D2",
"4X c #E9D8D8",
"5X c #EDE3DB",
"6X c #C8E7E7",
"7X c #D8E9E9",
"8X c #EAEDED",
"9X c #EDF3F3",
"0X c #F5F6F6",
"qX c #F8E8E0",
"wX c None",
/* pixels */
"wXwXwXwXwXwXwXwXwXwXwXwXwXwXwXwXwXwXwXwXwXwX% % % + % % % wXwXwXwXwXwXwXwXwXwXwXwXwXwXwXwXwXwXwXwXwX",
"wXwXwXwXwXwXwXwXwXwXwXwXwXwXwXwXwXwXwXwXwXwXr d d d d d f wXwXwXwXwXwXwXwXwXwXwXwXwXwXwXwXwXwXwXwXwX",
"wXwXwXwXwXwXwXwXwXwXwXwXwXwXwXwXwXwX@ @ * * >.y.y.y.y.y.9.= % wXwXwXwXwXwXwXwXwXwXwXwXwXwXwXwXwXwXwX",
"wXwXwXwXwXwXwXwXwXwXwXwXwXwXwX% % O 0.0.0.0.e.y.y.y.y.y.0.= % wXwXwXwXwXwXwXwXwXwXwXwXwXwXwXwXwXwXwX",
"wXwXwXwXwXwXwXwXwXwXwXwXwXwX6 6 6 f t.y.y.r.r.e.e.r.t.u.i.= % wXwXwXwXwXwXwXwXwXwXwXwXwXwXwXwXwXwXwX",
"wXwXwXwXwXwXwXwXwXwXwXwXwX% :.r.e.t.y.t.r.1.<.<.<.<.3.*X3X1 + wXwXwXwXwXwXwXwXwXwXwXwXwXwXwXwXwXwXwX",
"wXwXwXwXwXwXwXwXwXwXwXwX6 :.0.y.y.r.9.9.4.=.&.&.&.8.%X4X3X2 + wXwXwXwXwXwXwXwXwXwXwXwXwXwXwXwXwXwXwX",
"wXwXwXwXwXwXwXwXwXwXwX; e r.t.r.r.q.-.-.=.u u u w 7.4X7X,X, + wXwXwXwXwXwXwXwXwXwXwXwXwXwXwXwXwXwXwX",
"wXwXwXwXwXwXwXwXwXwX% >.e.t.w.1.1.-.%.p u = + @ + & 3 H 2 % % % wXwXwXwXwXwXwXwXwXwXwXwXwXwXwXwXwXwX",
"wXwXwXwXwXwXwXwXwX% + 2.t.q.1.&.=.i q e q d d d d d d d f d d d 6 wXwXwXwXwXwXwXwXwXwXwXwXwXwXwXwXwX",
"wXwXwXwXwXwXwXwX+ % + 2.r.<.%.i p w % % 6 r.y.y.y.y.t.y.y.y.y.t.o % wXwXwXwXwXwXwXwXwXwXwXwXwXwXwXwX",
"wXwXwXwXwXwXwX= >.2.2.4.1.&.w . . e 2.2.;.t r r t t t t t t g 4.o + % wXwXwXwXwXwXwXwXwXwXwXwXwXwXwX",
"wXwXwXwXwXwX+ - 9.r.r.4.&.u j k 8 j 0.w.3.; > k H R H k 4 % X s . % % wXwXwXwXwXwXwXwXwXwXwXwXwXwXwX",
"wXwXwXwXwXwX% = =.1.<.&.u @ | =X=Xk.; ; @ # | =X<X<X<X>XM.: # * wXwXwXwXwXwXwXwXwXwXwXwXwXwXwXwXwXwX",
"wXwXwXwXwXwX% = *.<.<.w o v b.:X:XB.h.8 > | M.:X5X<X].$Xm.> + wXwXwXwXwXwXwXwXwXwXwXwXwXwXwXwXwXwXwX",
"wXwXwXwXwXwXwX= *.*.*.o 4 g.N.;X;X:X:X~ k V.:X:X5X,X% k.m.1 + wXwXwXwXwXwXwXwXwXwXwXwXwXwXwXwXwXwXwX",
"wXwXwXwXwXwXwXwX= = - # 4 g.N.:X;X:X:X~ 8 &X:X:XqX,X% k.m.5 + $ + + wXwXwXwXwXwXwXwXwXwXwXwXwXwXwXwX",
"wXwXwXwXwXwXwXwX+ % + + ; ] n.V.V.&X-X~ 8 &X:X:X>XoX! b.B.! P P P l wXwXwXwXwXwXwXwXwXwXwXwXwXwXwXwX",
"wXwXwXwXwXwXwXwXwXwX% + # # ^ j.j.n.-X~ 8 &X:X=XY P =X-X-X=X=X-X:Xb.& wXwXwXwXwXwXwXwXwXwXwXwXwXwXwX",
"wXwXwXwXwXwXwXwXwXwX+ # # + 7 l l ` -XM.k.-X:X-Xl 1 ~ ~ ' n.N.n.N.h.% wXwXwXwXwXwXwXwXwXwXwXwXwXwXwX",
"wXwXwXwXwXwXwXwXwXwX% % % + + + > ! V.:X:X:X:X-X^ 4 + + > f.f.f.f.` % wXwXwXwXwXwXwXwXwXwXwXwXwXwXwX",
"wXwXwXwXwXwXwXwXwXwXwX+ # % % > f.j.j.B.:X:X:X-X-Xk.* % # & * * & & wXwXwXwXwXwXwXwXwXwXwXwXwXwXwXwX",
"wXwXwXwXwXwXwXwXwXwXwXwXwXwX+ @ c c c g.N.N.V.:X:XB.} k + + + # + wXwXwXwXwXwXwXwXwXwXwXwXwXwXwXwXwX",
"wXwXwXwXwXwXwXwXwXwXwXwXwXwX% + + + @ ` j.j.N.-X;X;X;X^ + % + % wXwXwXwXwXwXwXwXwXwXwXwXwXwXwXwXwXwX",
"wXwXwXwXwXwXwXwXwXwXwXwXwX+ P.H.6.4.4.j k 8 { n.n.n.n.g.` * + + wXwXwXwXwXwXwXwXwXwXwXwXwXwXwXwXwXwX",
"wXwXwXwXwXwXwXwXwXwXwXwXwXN G.I.u.y.y.:.o e v [ [ [ ] f.] ( T ( wXwXwXwXwXwXwXwXwXwXwXwXwXwXwXwXwXwX",
"wXwXwXwXwXwXwXwXwXwXwX# V Y.d.t.y.y.t.t.r.t.g % % % % # L 8X9X8X .+ % wXwXwXwXwXwXwXwXwXwXwXwXwXwXwX",
"wXwXwXwXwXwXwXwXwXwX+ + V Y.G 9.r.y.y.t.y.y.0.;.;.;.2.l.+X0X0X0X,X{.% % % wXwXwXwXwXwXwXwXwXwXwXwXwX",
"wXwXwXwXwXwXwXwXwX7 7 & V Y.F 1.e.r.r.t.y.t.y.y.y.y.y.%X<X9X9X0X0X,X< + % wXwXwXwXwXwXwXwXwXwXwXwXwX",
"wXwXwXwXwXwXwXwX+ _ &X! V Y.F <.<.<.<.q.y.y.y.y.y.y.y.r R <X7X6X6X1X5 % % + % wXwXwXwXwXwXwXwXwXwXwX",
"wXwXwXwXwXwXwXwX+ ' :X~ V Y.D u -.-.-.9.w.q.q.q.q.q.w.g j }.}.OX}.}.W Z + + + wXwXwXwXwXwXwXwXwXwXwX",
"wXwXwXwXwXwXwXwX+ ' :X~ V Y.C.= *.-.-.-.<.-.<.-.<.<.-.-.g 5 < < $ R .XW # % % % wXwXwXwXwXwXwXwXwXwX",
"wXwXwXwXwXwXwXwX+ ' :X! V Y.U.Z.0 X X a <.-.<.<.<.*.X X 4 L.~.~.~.K.E n p.p.b + + + + + + wXwXwXwXwX",
"wXwXwXwXwXwXwXwX% ' :X! M Y.T.Y.A N N r s a a a s r C C E ).'.'.'.^.z a.s.s.a.+ , 2 2 2 1 wXwXwXwXwX",
"wXwXwXwXwX6X6X<X3 _ :X! m Y.R.T.T.T.T.A # # # @ + E ).`.`.|.|.`.|. Xc.5.p p q % R X. . .T , + wXwXwX",
"wXwXwXwXwX.... .< 8 ^ 4 V Y.R.R.R.R.T.F.K.H.H.H.H.L.`.'.`.|.|.|.|.J.5.,.p p q + 2 Z H L U , % wXwXwX",
"wXwXwXwXwX+ + + % % + % V U.T.T.R.T.R.(.'.'.'.|.`.'.`.`._._._._.|.J.a i i i q + % % % 1 J % % wXwXwX",
"wXwXwXwXwX% + % 3 H H , $ V Z.R.R.R.R.E.W.Q./.|.|.|.`.(.W.W.W.W.Q.D.i p i . = % K T T L & % + wXwXwX",
"wXwXwXwXwX+ & 2 Y ( ( 8 : # A A.A.Z.A.U.R.R.!.(./././.Q.R.T.R.T.D.F u s i = & 3 R T T R 2 & % wXwXwX",
"wXwXwX+ % + 2 I #.#.#.( H % # % & % + Z.T.R.R.R.T.T.R.T.T.T.T.Y.h *.i i u = Z  .U K L T T , + % wXwX",
"wXwXwX% & 3 / o./ K 3 ) X.J 5 2 +XoX+ M S T.R.R.R.R.R.Z.N N N N y p p o   4 J U X.+.+.) K : # # wXwX",
"wXwXwX+ 5 L X.#.O.K & _ @.K 1 4 >X*XT T Q A.S.S.S.S.S.B . X 6 X y w w . % J K / o.+.+. .U 1 < # wXwX",
"wXwXwX+ & J ) XX<X}.J +.+.K 1 = =.z.8X0X3X1 $ $ $ $ $ d -.-.=.=.X + + + % J / #.Y k # l #.U 2 # wXwX",
"wXwXwX+ 5 J _ XX2X1X].{.@.K 1 = =.8.%X*X%X[.[.[.[.[.{.k.x.x.x.x.l.+.o = % H / $.{.I.1 Y #.U 3 # wXwX",
"wXwXwX+ 5 J ) {.<X2X6XoX+.K 1 = %.=.=.=.8.4X8X8X8X8X8X8X8X8X8X8X9X>Xa X % Z / #.,X@XU ) @.I 3 # wXwX",
"wXwXwXwXwX& J ( XXoXXXX.L : & wX-   - - ; K K K K K K K K K K K R J - wXwX& 3 Y [.XX@.X.I 1 < wXwXwX",
"wXwXwXwXwX+ , J / ) ) L 2 % wXwX% % + % % + + + + + + + + + + + + + + wXwX+ , 3 Y ) ) I 2 < wXwXwXwX",
"wXwXwXwXwXwX+ + + + % % + wXwXwXwXwXwXwXwXwXwXwXwXwXwXwXwXwXwXwXwXwXwXwXwXwXwX# % # # % # wXwXwXwXwX",
"wXwXwXwXwXwXwXwXwXwXwXwXwXwXwXwXwXwXwXwXwXwXwXwXwXwXwXwXwXwXwXwXwXwXwXwXwXwXwXwXwXwXwXwXwXwXwXwXwXwX",
"wXwXwXwXwXwXwXwXwXwXwXwXwXwXwXwXwXwXwXwXwXwXwXwXwXwXwXwXwXwXwXwXwXwXwXwXwXwXwXwXwXwXwXwXwXwXwXwXwXwX"
};
