/* XPM */
static char *result[] = {
/* columns rows colors chars-per-pixel */
"50 50 175 2 ",
"   c #7A2838",
".  c #086401",
"X  c #086D03",
"o  c #0A7305",
"O  c #0A7C04",
"+  c #3F6B04",
"@  c #125574",
"#  c #A40D36",
"$  c #B71135",
"%  c #B91033",
"&  c #A13C2C",
"*  c #A93E36",
"=  c #DC161B",
"-  c #F41A0B",
";  c #E71717",
":  c #F41C11",
">  c #D4293F",
",  c #8B4806",
"<  c #934C06",
"1  c #9B560A",
"2  c #A25C09",
"3  c #BB5F0B",
"4  c #A36B0B",
"5  c #BC620B",
"6  c #BD690B",
"7  c #976A37",
"8  c #CB740C",
"9  c #CE7A0D",
"0  c #D37F0D",
"q  c #C77B10",
"w  c #8A0A45",
"e  c #961348",
"r  c #9C2053",
"t  c #A42B5A",
"y  c #C62546",
"u  c #CD2D4A",
"i  c #D63652",
"p  c #F53F46",
"a  c #F64B54",
"s  c #E84D63",
"d  c #EC5765",
"f  c #F7666E",
"g  c #F86973",
"h  c #0D8405",
"j  c #088905",
"k  c #0A9306",
"l  c #0F930A",
"z  c #0F9B0C",
"x  c #11960C",
"c  c #0DA409",
"v  c #0CB209",
"b  c #0CB809",
"n  c #0EA110",
"m  c #11A412",
"M  c #11AD15",
"N  c #0FB814",
"B  c #16B019",
"V  c #279C22",
"C  c #1FB520",
"Z  c #29B727",
"A  c #37B234",
"S  c #568E09",
"D  c #59990E",
"F  c #77A61F",
"G  c #58B534",
"H  c #0CC20A",
"J  c #0BCC0B",
"K  c #0CD30C",
"L  c #0FC513",
"P  c #10D310",
"I  c #26D512",
"U  c #2DD117",
"Y  c #0CE40C",
"T  c #0CEA0C",
"R  c #37C436",
"E  c #31ED2E",
"W  c #41F03D",
"Q  c #48B746",
"!  c #6BB95D",
"~  c #4BD748",
"^  c #57C654",
"/  c #68C444",
"(  c #63CE5D",
")  c #72D756",
"_  c #51E94D",
"`  c #4BF148",
"'  c #50F04C",
"]  c #6BC76D",
"[  c #6CC96E",
"{  c #73CE6F",
"}  c #66DD63",
"|  c #74D774",
" . c #71F06E",
".. c #7AEB77",
"X. c #9AB72D",
"o. c #D6830C",
"O. c #D9850C",
"+. c #DE8C0D",
"@. c #D69B17",
"#. c #E39E12",
"$. c #E99E11",
"%. c #DCA91A",
"&. c #E5A213",
"*. c #EBA312",
"=. c #E6A816",
"-. c #EBAC13",
";. c #E0A719",
":. c #E3AD1B",
">. c #F1AA11",
",. c #E9B218",
"<. c #E8B71C",
"1. c #F3BA17",
"2. c #85CD37",
"3. c #85CD39",
"4. c #98C93E",
"5. c #84D037",
"6. c #87D13A",
"7. c #8AD33E",
"8. c #A4C32D",
"9. c #A3C631",
"0. c #A7D134",
"q. c #EDC51A",
"w. c #F2C41A",
"e. c #F6CE1F",
"r. c #F8D11F",
"t. c #F8D521",
"y. c #F5D923",
"u. c #FBDD23",
"i. c #A78453",
"p. c #BDAC44",
"a. c #B89770",
"s. c #BEA27C",
"d. c #C6BF4A",
"f. c #8DDA65",
"g. c #89E467",
"h. c #8BE66A",
"j. c #186899",
"k. c #226C9C",
"l. c #0E65A1",
"z. c #106BA3",
"x. c #116EAA",
"c. c #1472A4",
"v. c #1273AC",
"b. c #117BB2",
"n. c #2272A0",
"m. c #F77589",
"M. c #1A82AF",
"N. c #1286B9",
"B. c #1189BC",
"V. c #2A86A3",
"C. c #1A9BC8",
"Z. c #1DA3CB",
"A. c #16A7D5",
"S. c #23BBDC",
"D. c #31B8D8",
"F. c #19B8E3",
"G. c #22BBE2",
"H. c #23C3E9",
"J. c #33CCE6",
"K. c #3BD2ED",
"L. c #3DD8F1",
"P. c #45CACF",
"I. c #55E4DB",
"U. c #40CFE3",
"Y. c #52E5E2",
"T. c #46E7FB",
"R. c #F8839A",
"E. c #C6B48D",
"W. c #F792B4",
"Q. c #87F886",
"!. c #8FF98D",
"~. c #90FA8E",
"^. c #F59EC6",
"/. c #F6A0C7",
"(. c #F6A0C9",
/* pixels */
"3.3.3.3.3.3.3.3.3.3.3.3.3.3.3.3.3.2.3.3.3.3.3.3.3.3.2.3.3.2.3.3.3.3.3.3.2.2.2.3.3.3.E.^.^.m.g g s r ",
"3.3.3.3.3.3.3.2.3.3.3.3.3.3.3.3.3.3.2.3.3.3.2.2.2.2.3.3.3.3.3.3.3.3.3.3.3.2.3.3.2.3.E.^.(.m.g d y w ",
"3.3.3.3.3.3.3.3.3.3.3.3.3.3.3.3.3.3.3.3.3.3.2.3.3.3.3.3.3.3.2.3.3.3.3.3.3.3.3.3.3.3.E.^.(.m.p > $ w ",
"3.3.3.3.3.3.3.3.3.3.3.3.3.3.3.3.2.2.3.3.3.3.3.3.3.3.3.3.3.3.3.3.3.3.3.3.3.3.2.3.3.7.E.(.m.p - = % w ",
"3.3.3.3.3.3.3.6.3.3.3.3.3.3.3.3.3.3.3.3.3.3.3.3.3.3.3.3.3.3.3.2.3.2.3.3.3.3.3.3.3.3.E.m.s ; : - ; e ",
"3.3.3.2.3.3.6.6.3.7.3.3.3.3.3.3.3.3.3.3.3.3.3.3.3.3.3.3.3.3.3.3.3.3.3.3.3.2.3.3.3.3.a.i = = = = = # ",
"3.3.2.2.3.2.3.7.3.3.3.3.3.3.3.3.3.3.2.3.3.3.2.3.3.2.2.3.3.3.2.3.3.3.3.2.3.2.2.3.3.3.7 m.i u u u y r ",
"3.2.3.3.3.3.7.3.3.3.3.7.3.3.3.3.3.3.3.3.3.3.3.3.3.3.3.3.2.3.3.3.3.2.3.3.3.2.2.3.3.3.E.(.m.m.g f s t ",
"3.3.3.3.3.3.3.3.3.3.3.3.7.3.3.3.3.3.3.2.3.3.3.3.3.3.3.3.3.4.3.2.7.3.3.6.3.3.2.3.3.3.E././.R.f f u w ",
"3.3.3.3.3.3.3.3.7.3.3.3.7.3.3.3.3.2.3.3.3.3.2.3.3.3.3.2.3.3.7.2.3.3.3.3.3.3.3.3.3.3.E./.(.m.a u $ w ",
"3.3.3.3.3.3.7.3.3.3.3.3.3.3.3.3.3.2.2.3.3.3.3.3.3.3.3.3.3.7.3.3.3.3.7.3.6.3.3.3.3.3.E./.W.a : = % w ",
"3.3.3.3.3.7.3.3.3.3.3.7.3.3.3.3.2.2.3.3.3.2.3.3.3.2.2.3.2.3.3.3.3.3.3.7.3.3.3.3.3.6.E.W.d : - - = e ",
"3.3.3.3.3.3.3.7.7.7.3.3.3.3.3.3.2.2.2.2.3.3.3.3.3.3.3.3.3.3.3.3.3.3.3.7.3.3.3.3.3.3.s.s ; ; ; : ; # ",
"6.3.3.3.7.3.3.3.3.3.3.7.7.3.3.3.2.2.2.2.3.6.3.3.3.3.3.3.3.3.3.3.3.3.3.3.3.3.6.3.3.3.i.t * & & & &   ",
"3.3.3.3.3.3.3.3.3.3.3.3.3.3.3.3.3.3.3.7.3.3.3.3.3.3.3.3.7.3.3.3.3.3.3.3.3.3.3.6.3.7.f.h.} U I I U h ",
"3.3.3.3.3.3.3.3.3.3.3.3.3.3.3.3.2.2.7.2.3.7.3.3.6.3.3.3.3.3.7.7.7.3.3.3.2.3.3.3.3.7.h.~.Q.` T Y c X ",
"3.3.3.3.3.3.3.3.2.3.3.3.3.3.3.3.2.3.2.7.3.3.3.3.3.3.3.3.3.2.6.3.7.2.7.6.2.2.3.3.3.3.h.~.!.' K b h . ",
"3.3.3.3.3.3.3.3.3.3.2.2.2.3.3.3.2.3.7.3.3.3.3.7.2.7.3.3.3.3.2.2.2.3.2.2.2.5.6.3.2.3.h.~.Q.~ N n h . ",
"5.3.3.3.3.3.3.3.3.3.2.3.2.2.3.2.3.3.3.3.3.3.3.3.7.3.3.3.2.2.2.6.2.3.3.3.3.5.3.3.2.3.h.Q.( C m M x . ",
"3.3.3.3.3.3.3.3.3.3.3.2.2.2.2.3.3.3.3.3.3.3.3.3.7.2.2.3.3.2.2.2.2.3.3.3.3.3.3.3.3.5.g.^ B M M M m O ",
"3.3.3.5.3.3.3.3.3.3.3.2.3.3.3.3.3.3.3.3.3.3.3.2.3.2.2.3.3.3.2.2.3.2.3.7.2.2.3.3.3.3.G V l l l l x X ",
"3.3.3.3.2.3.3.3.3.3.3.3.3.3.3.3.3.7.2.3.3.3.3.3.3.3.3.3.3.3.3.2.3.2.3.3.6.6./ 3.3.3.) ..~ P K K J k ",
"3.3.3.3.2.2.3.3.3.2.2.2.3.3.3.3.3.2.3.7.7.7.2.3.3.2.3.2.3.3.2.2.3.3.2.2.2.2.3.3.3.3.( ~.h.W T T H o ",
"3.3.3.3.3.3.3.3.3.3.3.2.3.3.3.3.3.3.3.3.3.7.3.7.7.3.3.2.3.3.3.3.2.2.3.2.2.2.3.3.6.3.^ ~.~.' T L j . ",
"3.3.3.2.3.3.2.3.3.3.3.2.2.3.3.3.3.3.3.3.3.3.3.2.2.2.3.6.3.3.3.3.3.3.3.3.3.3.3.3.3.3.^ ~.~.~ L n h . ",
"3.3.3.3.3.3.2.3.6.3.3.3.2.3.3.3.3.2.3.3.3.2.3.3.3.6.2.3.2.3.3.3.3.3.3.3.3.3.3.3.3.3.^ ~.} Z M m l . ",
"3.3.3.3.2.3.6.3.3.3.3.3.2.2.3.2.3.2.3.2.3.2.3.3.6.6.2.7.3.3.6.2.3.3.3.3.3.3.3.3.3.3.^ } Z M M M n o ",
"3.3.3.3.3.6.6.3.7.3.3.7.3.3.2.3.3.3.3.2.3.3.3.3.3.7.2.3.2.2.3.3.3.3.3.3.3.3.3.3.3.3.V V l x x x l X ",
"3.3.3.2.3.2.7.5.3.3.3.3.2.2.3.3.2.3.X.3.3.2.3.3.7.3.3.3.2.7.2.6.3.3.3.3.3.3.3.3.3.6./ ( R J H H H j ",
"3.3.3.3.2.7.3.3.3.3.7.3.7.2./ 3.2.3.3.3.3.3.3.2.3.3.3.3.3.3.7.2.3.3.3.3.3.3.3.3.3.3.h.~...E T T J h ",
"2.3.2.3.3.3.2.3.2.3.6.7.2.2.3.3.3.3.3.3.3.3.3.3.3.3.3.3.3.3.7.2.3.3.3.3.3.3.3.3.3.3.h.~.~.' T J k . ",
"3.3.3.3.3.3.3.3.6.3.2.4.2.2.3.3.3.3.3.3.3.3.3.3.3.3.3.3.3.3.2.2.3.3.3.3.3.3.3.3.3.3.h.~.!._ L c O . ",
"3.3.3.3.3.6.3.3.3.3.3.3.6.3.3.3.3.3.3.3.3.3.3.7.3.3.3.3.3.7.2.3.3.3.3.2.3.3.2.3.2.3.g.!. .R M n j . ",
"3.3.3.3.7.3.3.3.3.3.6.3.3.3.3.3.3.3.3.3.3.3.3.3.3.3.7.7.3.3.2.2.3.2.3.3.3.3.3.3.3.3.g.| A N M M m X ",
"3.3.3.2.3.3.7.7.7.3.3.3.3.3.3.3.3.3.3.3.3.3.3.3.3.3.3.3.3.7.7.3.2.2.3.3.3.3.3.3.3.3./ A x x z z l o ",
"3.3.3.2.3.3.3.3.7.3.7.7.3.3.3.3.3.3.3.7.3.3.7.3.3.3.3.3.3.3.3.3.3.3.3.2.3.3.3.3.3.3./ Q Z v v v v j ",
"3.3.3.3.3.3.3.3.6.3./ 6.3.3.6.3.3.3.3.3.3.3.3.3.3.3.3.3.3.3.3.3.3.2.3.3.3.3.3.3.) 3.h.~. .E T T K j ",
"3.3.3.3.3.3.3.3.3.3.7.3.3.3.3.3.3.3.3.3.3.3.3.3.3.3.3.3.3.3.3.3.3.3.3.3.3.3.3.3.2.6.h.~.Q.' T K c . ",
"3.3.3.3.3.3.3.3.3.6.3.3.3.3.3.3.3.3.3.3.3.3.3.3.3.3.3.3.3.3.3.3.3.3.3.3.3.3.3.3.2.2.h.~.~._ K v h . ",
"3.3.3.3.3.3.3.3.3.3.6.3.3.3.3.3.3.6.3.3.3.3.3.3.3.3.3.3.3.6.3.3.3.3.3.3.3.3.3.3.2.2.h.~.h.R M z h . ",
"3.3.3.2.3.3.3.3.3.3.3.3.3.3.3.3.3.3.3.3.3.3.3.3.2.6.3.5.3.3.3.3.2.2.6.6.3.3.3.3.2.2.h.Q.R B B M z X ",
"3.3.2.2.2.2.2.2.3.3.3.3.3.3.3.3.2.5.3.3.3.3.3.2.3.7./ 3.3.3.3.2.3.3.3./ 3.3.3.3.3.3.) A m n n n n o ",
"[ ! { { [ ] ] ] ] ! { f.[ ] ] ] { ! 4.0.9.8.8.8.8.X.9.0.9.8.8.8.8.X.9.0.9.9.8.8.8.X.F D D S S S S + ",
"Z.M.I.T.J.S.S.F.Z.b.U.T.J.G.S.S.Z.n.d.u.q.,.-.-.#.9 <.y.w.,.-.-.&.9 :.u.w.,.-.-.$.q %.y.q.-.*.=.&.4 ",
"v.v.Y.T.T.G.F.A.b.v.U.T.T.H.F.A.b.k.d.u.t.1.>.$.8 5 <.u.r.1.>.*.8 5 :.u.t.1.>.*.9 5 ;.u.u.w.>.*.0 < ",
"l.v.Y.T.T.G.A.b.l.v.L.T.T.G.A.b.l.k.d.u.t.1.$.8 3 5 <.u.u.1.*.9 5 5 :.u.u.1.*.o.3 5 ;.u.u.1.*.o.5 , ",
"l.v.Y.T.K.C.N.x.l.x.K.T.L.C.B.v.l.k.d.u.e.$.+.8 5 5 <.u.e.&.+.8 3 3 :.u.t.=.+.8 5 3 ;.u.t.-.+.0 5 < ",
"v.b.Y.U.C.B.N.N.x.v.K.L.C.B.N.N.v.k.d.r.&.+.+.O.8 6 <.t.=.+.+.O.8 8 :.u.-.+.+.+.8 5 ;.t.-.+.+.+.8 < ",
"b.c.P.C.N.N.b.N.b.c.D.Z.N.b.N.N.b.n.p.+.o.o.o.o.0 5 %.&.O.O.o.o.0 5 @.=.O.o.O.O.0 6 @.=.+.o.o.o.o.2 ",
"z.@ V.v.x.x.x.x.z.@ j.z.l.l.l.z.l.j.7 8 3 5 5 5 3 , 2 5 5 5 5 5 3 , 1 5 5 5 5 5 5 , 1 5 5 5 5 3 5 < "
};
