/* XPM */
static char *result[] = {
/* columns rows colors chars-per-pixel */
"50 50 177 2 ",
"   c #7A2838",
".  c #086401",
"X  c #086D03",
"o  c #0A7305",
"O  c #0A7C04",
"+  c #3F6B04",
"@  c #125574",
"#  c #980C3D",
"$  c #A40D36",
"%  c #B71135",
"&  c #B91033",
"*  c #A13C2C",
"=  c #A93E36",
"-  c #DC161B",
";  c #F41A0B",
":  c #E71717",
">  c #F41C11",
",  c #8B4806",
"<  c #934C06",
"1  c #9B560A",
"2  c #A25C09",
"3  c #BB5F0B",
"4  c #A36B0B",
"5  c #BC620B",
"6  c #BD690B",
"7  c #976A37",
"8  c #CB740C",
"9  c #CE7A0D",
"0  c #D37F0D",
"q  c #C77B10",
"w  c #8A0A45",
"e  c #9C2053",
"r  c #A42B5A",
"t  c #C62546",
"y  c #CD2D4A",
"u  c #D63652",
"i  c #F53F46",
"p  c #F64B54",
"a  c #CD416D",
"s  c #E84D63",
"d  c #EC5765",
"f  c #F7666E",
"g  c #F86973",
"h  c #0D8405",
"j  c #088905",
"k  c #0A9306",
"l  c #0F930A",
"z  c #0F9B0C",
"x  c #11960C",
"c  c #0DA409",
"v  c #0CB209",
"b  c #0CB809",
"n  c #0EA110",
"m  c #11A412",
"M  c #11AD15",
"N  c #0FB814",
"B  c #16B019",
"V  c #279C22",
"C  c #29B727",
"Z  c #37B234",
"A  c #568E09",
"S  c #59990E",
"D  c #77A61F",
"F  c #58B534",
"G  c #0CC20A",
"H  c #0BCC0B",
"J  c #0CD30C",
"K  c #0FC513",
"L  c #10D310",
"P  c #26D512",
"I  c #2DD117",
"U  c #0CE40C",
"Y  c #0CEA0C",
"T  c #37C436",
"R  c #31ED2E",
"E  c #41F03D",
"W  c #48B746",
"Q  c #6BB95D",
"!  c #68B960",
"~  c #53CC4C",
"^  c #4BD748",
"/  c #57C654",
"(  c #68C444",
")  c #63CE5D",
"_  c #72D756",
"`  c #51E94D",
"'  c #50F04C",
"]  c #6BC76D",
"[  c #6CC96E",
"{  c #73CE6F",
"}  c #66DD63",
"|  c #74D774",
" . c #71F06E",
".. c #7AEB77",
"X. c #9AB72D",
"o. c #D6830C",
"O. c #D9850C",
"+. c #DE8C0D",
"@. c #D69B17",
"#. c #E39E12",
"$. c #E99E11",
"%. c #DCA91A",
"&. c #E5A213",
"*. c #EBA312",
"=. c #E6A816",
"-. c #EBAC13",
";. c #E0A719",
":. c #E3AD1B",
">. c #F1AA11",
",. c #E9B218",
"<. c #E8B71C",
"1. c #F3BA17",
"2. c #85CD37",
"3. c #85CD39",
"4. c #98C93E",
"5. c #84D037",
"6. c #87D13A",
"7. c #8AD33E",
"8. c #A4C32D",
"9. c #A3C631",
"0. c #A7D134",
"q. c #EDC51A",
"w. c #F2C41A",
"e. c #F6CE1F",
"r. c #F8D11F",
"t. c #F8D521",
"y. c #F5D923",
"u. c #FBDD23",
"i. c #A78453",
"p. c #BDAC44",
"a. c #B89770",
"s. c #C6BF4A",
"d. c #8DDA65",
"f. c #89E467",
"g. c #8BE66A",
"h. c #186899",
"j. c #226C9C",
"k. c #0E65A1",
"l. c #106BA3",
"z. c #116EAA",
"x. c #0E70AB",
"c. c #1472A4",
"v. c #1273AC",
"b. c #117BB2",
"n. c #2272A0",
"m. c #F77589",
"M. c #1A82AF",
"N. c #1182B7",
"B. c #1286B9",
"V. c #1189BC",
"C. c #2A86A3",
"Z. c #1A9BC8",
"A. c #1DA3CB",
"S. c #16A7D5",
"D. c #23BBDC",
"F. c #31B8D8",
"G. c #19B8E3",
"H. c #22BBE2",
"J. c #23C3E9",
"K. c #33CCE6",
"L. c #3BD2ED",
"P. c #3DD8F1",
"I. c #45CACF",
"U. c #55E4DB",
"Y. c #40CFE3",
"T. c #52E5E2",
"R. c #46E7FB",
"E. c #F8839A",
"W. c #C6B48D",
"Q. c #F685A5",
"!. c #F792B4",
"~. c #87F886",
"^. c #8FF98D",
"/. c #90FA8E",
"(. c #F59EC6",
"). c #F6A0C7",
"_. c #F6A0C9",
/* pixels */
"< 5 5 3 5 5 6 1 , 3 5 3 3 5 6 2 , 3 5 5 5 5 6 2 , 3 3 3 5 5 5 7 h.l.l.k.k.l.l.h.@ l.z.z.v.v.x.C.@ l.",
"2 o.O.o.o.O.=.@.5 9 O.O.o.O.=.@.6 0 o.o.o.O.#.%.6 9 O.O.o.O.#.p.n.b.b.N.N.N.Z.F.v.b.N.N.N.B.Z.I.c.b.",
"< 8 +.+.+.,.r.;.8 8 +.+.+.-.t.:.8 8 O.+.+.=.y.<.6 8 O.+.+.*.r.s.j.z.B.V.Z.Z.L.L.v.z.N.B.B.Z.L.T.v.x.",
"< 5 9 +.-.t.u.;.3 3 8 +.=.t.u.:.3 5 8 +.&.t.u.<.5 3 8 O.#.e.u.s.j.k.v.V.Z.L.R.L.v.k.v.B.Z.P.R.T.v.h.",
"< 5 o.*.1.u.u.;.3 3 0 *.1.u.u.:.3 3 8 *.1.u.u.<.5 3 9 $.1.u.u.s.j.l.b.S.H.R.R.L.v.k.v.S.H.R.R.T.v.k.",
"< 9 *.>.w.u.u.;.3 0 *.>.w.u.u.:.3 8 $.>.1.t.u.<.5 8 $.>.1.t.u.s.j.b.S.G.H.R.R.Y.v.v.S.G.J.P.R.T.v.x.",
"4 #.-.-.-.q.y.%.q &.-.>.,.w.y.:.q #.=.-.>.w.u.<.q #.-.-.-.w.u.s.n.A.D.H.H.L.R.Y.M.A.D.D.D.K.R.U.M.A.",
"+ A A A A S S D X.8.8.8.9.9.0.9.X.8.8.8.8.9.0.9.X.8.8.8.8.8.0.4.Q ] ] [ [ [ | { ! ] ] ] [ [ | { ! ] ",
"o n n n n n Z _ 3.3.3.( 6.3.3.3.3.3.3.3.3.3.3.3.3.3.( 6.6.2.2.2.3.7.3.3.2.3.3.3.3.3.3.3.3.3.2.2.3.3.",
"X n M M B ^ ~.g.3.3.6.6.3.3.3.3.3.3.3.3.3.3.3.3.3.3.3.3.6.2.3.3.3.3.3.3.3.3.3.3.3.3.3.3.3.3.3.3.3.3.",
". h n M T g./.g.3.2.2.2.3.3.3.3.3.3.3.3.3.3.3.3.3.3.3.3.3.3.3.3.3.3.3.3.3.3.3.3.3.3.3.3.3.3.2.2.3.3.",
". O v L ` /./.f.3.3.2.2.3.3.3.3.3.3.3.3.3.3.3.3.3.3.3.3.3.3.3.3.3.3.3.3.3.3.3.3.3.3.3.3.3.3.3.3.3.3.",
". c J Y ' ^.^.f.3.3.3.3.3.3.3.3.3.3.3.3.3.3.3.3.3.3.3.3.3.3.3.3.3.3.3.3.6.3.3.3.3.3.6.3.3.3.3.3.3.3.",
"j J Y Y R  .~.f.3.3.3.3.3.3.3.2.3.3.6.3.3.3.3.3.3.3.3.3.6.3.3.6.3.3.3.3.3.3.3.3.3.3.3.3.3.3.3.3.3.3.",
"j v v v v C W Q 3.3.3.3.3.3.3.3.3.3.3.3.3.3.3.3.3.3.3.3.3.3.3.3.3.3.3.3.3.3.7.7.3.6.3.3.3.3.2.3.3.3.",
"o l x x k z C ( 3.3.3.2.3.2.3.3.3.3.3.7.7.3.6.3.3.3.3.3.3.3.3.3.3.3.3.3.7.3.3.3.3.7.7.7.3.3.2.3.3.3.",
"o m M M M Z ..g.3.3.3.3.3.3.3.3.3.3.3.3.3.3.7.7.7.2.2.2.3.3.3.3.3.3.3.3.3.3.3.3.3.3.3.3.3.7.3.3.3.3.",
". h m M T  ./.g.3.3.3.3.3.3.3.3.3.3.3.3.7.3.3.2.3.3.7.2.3.3.3.3.3.3.3.3.3.3.3.3.3.3.3.3.3.2.3.3.3.3.",
". h c K ` ^./.g.3.3.3.3.3.3.3.3.3.3.3.3.3.3.3.3.3.3.3.3.2.3.3.3.3.3.3.3.3.3.7.3.3.3.3.3.3.3.2.3.3.3.",
". l H Y ' ^./.g.3.3.3.3.3.3.3.3.3.3.3.3.3.3.3.3.3.3.3.2.3.3.2.2.2.2.3.3.3.3.7.3.3.3.3.3.2.3.3.3.3.3.",
"h H Y Y R ../.g.3.3.3.3.3.3.3.3.3.3.3.7.3.3.3.3.2.2.2.2.3.2.3.2.3.3.3.2.3.7.3.7.3.3.3.3.7.3.3.2.3.3.",
"j G G G G T } W 3.3.3.3.3.3.3.3.3.3.6.3.7.3.3.2.2.7.3.2.3.3.2.2.3.3.3.3.2.3.3.3.3.3.3.7.3.3.3.3.3.3.",
"o l k l l l V V 3.3.3.3.3.3.3.3.3.3.3.3.3.3.3.2.7.3.3.3.3.3.2.2.3.3.3.2.3.3.3.3.3.7.3.3.7.3.3.3.3.3.",
"o m M M B C } / 3.3.3.3.3.3.3.3.3.3.3.3.3.3.7.3.3.3.3.3.3.3.3.3.3.3.3.2.2.3.2.3.3.3.3.7.3.3.3.3.3.3.",
". l m B C } /./ 3.3.3.3.3.3.3.3.2.3.3.3.3.3.3.3.3.3.3.3.3.3.3.3.2.2.2.3.3.2.2.3.3.6.3.2.3.3.2.3.3.7.",
". O c N ^ /././ 3.3.3.3.3.3.3.3.3.3.2.2.6.2.6.2.3.3.3.3.3.3.3.3.3.2.2.3.3.2.3.2.3.3.3.2.2.3.3.3.3.3.",
". j G Y ' /././ 3.5.3.3.3.3.3.3.3.2.3.3.3.3.3.2.3.7.7.3.3.3.3.3.2.2.3.3.3.3.3.3.3.3.3.3.3.3.3.3.3.3.",
"o G Y Y E ~./.) 3.3.3.5.3.3.3.3.3.3.2.2.3.3.3.2.3.3.3.3.7.7.4.3.3.3.3.3.3.3.3.2.3.3.3.3.2.2.3.3.3.3.",
"k H J J L ^  ._ 3.3.3.3.2.3.3.3.2.2.2.3.3.3.3.3.3.3.7.3.3.3.3.3.7.3.3.3.3.2.3.3.3.3.3.3.3.3.3.3.3.3.",
"X l l l l x V F 3.3.3.3.2.3.3.3.3.3.2.2.3.3.2.3.3.3.3.3.3.3.3.6.2.3.2.3.3.3.3.3.3.3.3.3.3.3.3.3.3.3.",
"O m M M M C / d.3.3.3.3.3.3.2.3.3.2.2.2.2.3.3.3.3.7.3.3.3.3.3.3.3.3.2.3.3.3.3.3.3.3.3.3.3.3.3.3.3.3.",
". l M B B ~ ~.f.3.3.3.3.5.3.3.3.5.2.2.3.2.3.3.3.3.7.3.3.3.3.3.3.3.3.3.3.3.3.3.3.3.3.3.3.3.2.2.2.3.2.",
". h z N ^ ^./.g.3.2.3.3.5.2.2.2.3.2.2.2.2.2.3.3.6.3.7.3.3.3.3.7.3.3.3.3.3.2.3.2.3.3.3.3.3.3.3.3.3.3.",
". h b U ' /./.g.3.3.3.3.3.3.7.7.2.7.2.2.2.6.2.3.3.3.3.2.2.3.7.3.3.3.3.3.3.2.3.2.3.3.3.3.3.3.3.3.3.3.",
"X v U Y ' ^./.f.3.3.3.3.5.2.3.3.3.7.7.7.2.3.3.3.3.6.3.2.7.2.6.6.3.3.3.3.3.3.3.3.2.3.3.3.3.3.3.6.3.3.",
"h P P P I _ g.d.3.3.3.3.3.2.3.6.3.3.3.3.3.7.3.2.3.3.3.3.2.2.6.3.2.2.3.3.3.3.3.3.2.3.3.3.3.3.3.3.3.3.",
"  * * * * = r i.3.3.3.3.3.2.3.3.3.3.3.3.3.3.3.2.3.3.3.3.7.2.3.2.2.2.3.3.3.7.7.3.6.3.7.3.3.6.3.3.3.3.",
"$ : : : : : s W.3.3.3.3.3.3.7.3.3.3.3.3.3.3.3.3.3.3.3.3.2.3.3.3.2.2.3.3.3.2.3.3.7.7.7.3.3.3.3.3.3.3.",
"w - ; ; > p !.W.3.3.3.3.2.3.7.3.3.3.3.3.3.3.2.3.3.3.2.3.3.3.3.3.3.3.3.3.3.3.3.3.3.3.3.3.7.3.3.3.3.3.",
"w & - > p !._.W.3.3.3.3.3.6.3.7.3.3.3.3.7.2.3.3.2.3.3.3.3.2.2.3.3.2.2.3.3.3.3.3.3.3.3.7.3.3.3.3.3.3.",
"w % y s m._.(.W.3.3.3.3.3.3.3.3.3.3.3.7.3.3.3.3.3.3.3.3.3.3.2.3.3.3.3.3.3.7.3.3.3.3.3.3.3.3.3.3.3.3.",
"w u d g m.(._.W.3.3.3.3.3.3.3.3.3.7.3.3.7.3.3.3.3.3.2.2.3.3.3.3.3.3.3.3.3.7.3.3.3.3.3.3.3.3.3.3.3.3.",
"r d m.d m.m.(.W.3.3.3.3.3.3.3.3.3.3.3.3.2.3.2.2.3.3.3.3.3.3.3.3.3.3.3.3.6.3.7.3.3.3.3.7.3.3.3.3.3.3.",
"e y y y y a m.7 3.3.3.3.2.3.3.3.3.3.3.3.2.3.3.3.3.3.2.3.3.3.3.3.3.3.3.3.3.3.3.3.3.3.7.2.3.3.3.3.3.3.",
"$ - - - - - u a.3.3.3.3.2.3.3.3.3.3.2.2.3.3.3.3.2.3.3.3.2.3.3.2.3.3.3.3.3.3.3.3.7.3.6.7.3.3.3.3.3.3.",
"# - ; ; > p Q.W.3.3.3.3.3.3.3.3.3.3.2.3.2.3.3.3.3.3.4.3.2.3.3.3.3.3.3.3.3.3.3.3.3.3.6.3.3.3.3.3.3.3.",
"w & : ; i m.(.W.3.3.3.3.3.3.3.3.3.3.3.3.3.3.3.3.3.3.2.2.2.2.3.3.3.3.3.3.3.3.3.3.7.3.3.3.3.3.3.3.3.3.",
"w & y i m._.(.W.3.3.3.3.3.3.3.3.3.3.3.3.3.3.3.3.3.3.2.3.2.3.3.3.3.3.3.3.3.3.3.3.3.3.3.3.3.3.3.3.3.3.",
"w t s f E.).).W.2.2.2.3.2.2.2.3.3.2.3.3.3.3.3.3.3.3.3.3.3.3.3.3.3.3.3.3.3.3.2.3.3.3.2.2.3.3.2.2.2.3.",
"e s f f m.!.).W.6.6.2.2.2.2.3.3.3.3.3.2.2.3.2.3.2.3.3.3.3.3.3.3.3.3.3.3.2.3.3.3.2.3.3.3.2.2.2.2.3.3."
};
