/* XPM */
static char *result[] = {
/* columns rows colors chars-per-pixel */
"50 50 181 2 ",
"   c #7A2838",
".  c #086401",
"X  c #086D03",
"o  c #0A7305",
"O  c #0A7C04",
"+  c #3F6B04",
"@  c #125574",
"#  c #980C3D",
"$  c #A40D36",
"%  c #B71135",
"&  c #B91033",
"*  c #A13C2C",
"=  c #A93E36",
"-  c #DC161B",
";  c #F41A0B",
":  c #E71717",
">  c #F41C11",
",  c #D4293F",
"<  c #8B4806",
"1  c #934C06",
"2  c #9B560A",
"3  c #A25C09",
"4  c #BB5F0B",
"5  c #A36B0B",
"6  c #BC620B",
"7  c #BD690B",
"8  c #976A37",
"9  c #CB740C",
"0  c #CE7A0D",
"q  c #D37F0D",
"w  c #C77B10",
"e  c #8A0A45",
"r  c #961348",
"t  c #9C2053",
"y  c #A42B5A",
"u  c #C62546",
"i  c #CD2D4A",
"p  c #D63652",
"a  c #F53F46",
"s  c #B4434D",
"d  c #F64B54",
"f  c #CD416D",
"g  c #E84D63",
"h  c #EC5765",
"j  c #F7666E",
"k  c #F86973",
"l  c #0D8405",
"z  c #088905",
"x  c #0A9306",
"c  c #0F930A",
"v  c #0F9B0C",
"b  c #11960C",
"n  c #12970F",
"m  c #0DA409",
"M  c #0CB209",
"N  c #0CB809",
"B  c #0EA110",
"V  c #11A412",
"C  c #11AD15",
"Z  c #0FB814",
"A  c #16B019",
"S  c #279C22",
"D  c #1FB520",
"F  c #29B727",
"G  c #37B234",
"H  c #568E09",
"J  c #59990E",
"K  c #77A61F",
"L  c #58B534",
"P  c #0CC20A",
"I  c #0BCC0B",
"U  c #0CD30C",
"Y  c #0FC513",
"T  c #10D310",
"R  c #26D512",
"E  c #2DD117",
"W  c #0CE40C",
"Q  c #0CEA0C",
"!  c #37C436",
"~  c #31ED2E",
"^  c #48B746",
"/  c #6BB95D",
"(  c #68B960",
")  c #53CC4C",
"_  c #4BD748",
"`  c #57C654",
"'  c #68C444",
"]  c #63CE5D",
"[  c #72D756",
"{  c #51E94D",
"}  c #4BF148",
"|  c #50F04C",
" . c #6BC76D",
".. c #6CC96E",
"X. c #73CE6F",
"o. c #66DD63",
"O. c #74D774",
"+. c #71F06E",
"@. c #9AB72D",
"#. c #D6830C",
"$. c #D9850C",
"%. c #DE8C0D",
"&. c #D69B17",
"*. c #E39E12",
"=. c #E99E11",
"-. c #DCA91A",
";. c #E5A213",
":. c #EBA312",
">. c #E6A816",
",. c #EBAC13",
"<. c #E0A719",
"1. c #E3AD1B",
"2. c #F1AA11",
"3. c #E9B218",
"4. c #E8B71C",
"5. c #F3BA17",
"6. c #85CD37",
"7. c #85CD39",
"8. c #98C93E",
"9. c #84D037",
"0. c #87D13A",
"q. c #8AD33E",
"w. c #A4C32D",
"e. c #A3C631",
"r. c #A7D134",
"t. c #EDC51A",
"y. c #F2C41A",
"u. c #F6CE1F",
"i. c #F8D11F",
"p. c #F8D521",
"a. c #F5D923",
"s. c #FBDD23",
"d. c #A78453",
"f. c #BDAC44",
"g. c #B89770",
"h. c #BEA27C",
"j. c #C6BF4A",
"k. c #8DDA65",
"l. c #89E467",
"z. c #8BE66A",
"x. c #186899",
"c. c #226C9C",
"v. c #0E65A1",
"b. c #106BA3",
"n. c #116EAA",
"m. c #1472A4",
"M. c #1273AC",
"N. c #117BB2",
"B. c #2272A0",
"V. c #F77589",
"C. c #1A82AF",
"Z. c #1182B7",
"A. c #1286B9",
"S. c #1189BC",
"D. c #2A86A3",
"F. c #1A9BC8",
"G. c #1DA3CB",
"H. c #16A7D5",
"J. c #23BBDC",
"K. c #31B8D8",
"L. c #19B8E3",
"P. c #22BBE2",
"I. c #23C3E9",
"U. c #33CCE6",
"Y. c #3BD2ED",
"T. c #3DD8F1",
"R. c #45CACF",
"E. c #40CFE3",
"W. c #52E5E2",
"Q. c #46E7FB",
"!. c #F8839A",
"~. c #C6B48D",
"^. c #F685A5",
"/. c #F792B4",
"(. c #87F886",
"). c #8FF98D",
"_. c #93F08B",
"`. c #90FA8E",
"'. c #F59EC6",
"]. c #F6A0C7",
"[. c #F6A0C9",
/* pixels */
"t e # e # # r y e e e r $   l X . . . O o x o . . . O o z O . . . o o O z . . . X o + 5 1 1 1 1 3 1 ",
"g u & & - - i h i % & - : * R M l O n V c I N x O x B c P I x l c B n M U m l l B B H *.q 4 4 9 #.6 ",
"j h , : ; - i j j i - ; : * R W N v C C c U Q I v B A c P Q I B B C b M W U M B C B H >.:.#.0 %.$.6 ",
"j k d ; ; - i j k d > ; : * R Q W Z C V v U Q Q Y C C c P Q Q Y C C v M Q Q U C A v H >.2.:.%.%.#.6 ",
"V.^.V.a ; - , k !.V.d > : * E } | ) F C x T } } _ F C c P ~ | { G Z v m ~ | { ! A B H ,.y.5.,.%.#.4 ",
"/.[.'.^.d - i ^.[.[./.g : = [ (.`.(.) D c _ z.`.`.o.F c ! +.`.`.+.! v F +.`.`.z.! B J t.s.s.p.3.$.6 ",
"].].[.[.^.p f [.[.[.[./.g s _.`.`.`.).) S O.`.`.`.`.o.S o.`.`.`.`.O.F ^ `.`.`.`.(.G J a.s.s.s.s.>.7 ",
"~.~.~.~.~.g.d.~.~.~.~.~.h.d.k.z.z.z.z.l.L [ ] ` ` ` ] S ^ z.z.z.z.z.' ' z.z.z.z.z.[ K -.<.<.<.<.&.2 ",
"7.7.7.7.7.7.7.7.7.7.7.7.7.7.7.7.7.7.7.7.7.7.7.7.0.7.7.7.7.7.7.7.7.7.7.7.7.7.7.7.7.7.@.w 6 4 4 6 7 1 ",
"7.7.7.7.7.7.7.7.7.7.7.7.7.7.7.7.7.7.7.7.7.7.7.7.7.7.7.7.0.7.7.7.7.6.7.7.7.7.7.7.7.7.w.;.q 4 4 9 q 6 ",
"7.7.7.7.7.7.7.7.7.7.7.7.7.7.7.7.7.7.7.7.7.7.7.7.7.7.7.7.7.7.7.7.7.7.7.7.7.7.7.7.7.7.w.,.=.q 0 %.#.6 ",
"7.7.7.7.6.7.6.6.7.7.7.7.7.7.7.7.7.7.7.7.7.7.6.6.7.7.7.7.7.7.7.7.6.7.6.7.7.7.7.7.7.7.w.,.2.:.%.%.#.4 ",
"7.6.7.7.7.7.6.6.7.7.7.7.7.7.7.7.7.7.6.7.7.7.7.7.7.7.7.7.7.7.7.7.6.6.6.7.7.7.7.7.7.7.e.3.5.5.>.%.#.6 ",
"6.7.7.7.7.7.7.6.7.7.7.7.7.7.7.7.7.7.7.7.7.7.7.7.7.7.7.7.7.7.7.7.7.6.6.7.7.7.7.7.7.6.e.y.s.s.p.>.$.6 ",
"7.6.7.7.7.7.7.7.7.7.7.q.q.7.7.7.q.6.7.7.7.7.7.7.7.7.7.7.7.7.q.7.7.7.0.7.7.7.0.6.0.0.r.s.s.s.s.u.<.7 ",
"7.7.7.7.7.7.7.7.7.7.q.7.7.7.7.7.q.6.7.7.7.7.7.7.7.7.7.7.7.7.7.7.6.6.7.7.6.7.6.6.6.' e.1.1.1.1.<.&.3 ",
"7.7.7.7.6.7.6.7.7.7.7.7.7.7.7.6.6.7.9.7.6.7.7.7.7.7.7.7.6.6.7.7.6.7.6.7.7.7.7.7.7.7.@.w 6 6 4 9 7 < ",
"7.7.7.7.7.7.0.7.q.7.7.7.7.7.7.q.0.6.6.6.7.7.6.9.6.7.6.7.7.7.7.6.7.7.7.6.6.7.7.7.7.7.w.*.9 4 6 9 q 6 ",
"7.7.7.7.7.6.7.6.7.7.7.7.7.7.7.q.6.9.6.6.6.6.6.7.7.7.7.7.7.7.7.6.7.6.6.7.7.7.7.7.7.7.w.,.=.q 9 $.$.6 ",
"6.7.7.6.7.7.7.0.q.q.7.7.7.7.7.q.6.9.7.6.6.7.7.7.7.6.0.6.7.q.q.7.6.6.q.7.6.7.7.7.7.7.w.,.2.:.%.%.#.4 ",
"7.7.7.7.7.7.6.6.0.7.q.7.7.0.6.7.6.6.6.7.7.7.7.7.7.7.7.7.q.7.7.7.7.7.q.6.7.7.0.7.7.7.w.3.5.5.:.%.#.6 ",
"7.7.7.7.7.7.7.7.7.6.7.6.7.7.q.7.6.6.7.7.7.7.7.7.7.7.7.7.7.7.7.7.7.7.7.7.7.7.7.7.7.7.e.t.s.s.i.:.$.6 ",
"7.6.7.7.7.7.7.7.7.7.7.6.6.7.7.7.6.6.7.7.7.7.7.7.0.7.q.7.7.7.7.7.7.q.q.7.7.7.7.7.7.7.r.a.s.s.s.p.;.7 ",
"7.7.7.7.7.7.6.7.7.6.7.7.7.7.6.7.6.9.7.6.7.7.7.7.6.7.7.7.7.7.7.7.7.q.7.7.7.7.7.7.7.7.8.4.4.4.4.4.-.3 ",
"7.6.7.7.7.7.7.7.7.7.7.6.7.7.7.7.7.0.7.7.7.7.7.7.7.0.q.q.6.7.7.7.7.q.7.7.7.7.7.7.7.7.@.w 7 6 6 6 6 < ",
"7.7.7.7.7.7.6.7.7.6.7.7.7.7.7.0.7.7.q.q.7.7.7.q.7.6.7.7.q.6.6.0.7.6.6.7.7.7.7.7.7.7.w.*.9 4 4 9 0 4 ",
"6.6.7.7.7.7.7.7.7.7.7.7.7.7.7.6.7.q.7.7.6.7.7.q.6.6.7.7.7.6.7.7.q.6.7.7.7.7.7.7.7.7.w.,.=.9 9 $.#.6 ",
"7.7.7.7.7.7.6.7.7.6.7.7.7.7.7.7.7.7.7.7.7.7.7.7.7.7.7.7.7.7.7.6.7.7.7.7.7.7.7.7.7.7.w.,.2.=.%.%.#.6 ",
"7.7.7.7.7.6.7.7.7.7.7.7.7.0.7.q.6.7.7.7.7.7.7.q.7.6.7.6.6.6.7.7.7.7.7.7.7.7.7.7.7.' w.2.y.5.=.%.#.6 ",
"6.7.7.7.7.7.7.7.7.7.6.7.6.7.6.6.7.7.7.7.7.7.q.7.7.6.6.7.7.7.7.7.7.7.7.7.7.7.7.7.7.7.e.y.i.s.i.:.#.6 ",
"7.7.6.7.7.7.7.7.6.7.7.7.7.7.0.0.q.7.7.7.7.7.8.7.7.7.6.7.7.7.6.7.7.7.q.7.7.7.0.7.6.6.r.s.s.s.i.i.*.7 ",
"8.6.7.7.7.7.7.7.7.7.6.6.7.7.7.q.7.q.7.7.7.7.7.7.7.7.7.7.6.6.6.6.7.7.7.7.7.7.7.7.7.9.8.j.j.j.j.j.f.8 ",
"6.6.6.7.7.7.7.7.7.7.7.6.6.6.6.7.7.7.7.7.7.8.7.6.7.7.6.7.7.7.7.7.7.7.7.7.7.7.7.7.7.7.( B.c.c.c.c.B.x.",
"6.6.7.6.7.7.7.7.7.7.7.7.6.6.6.7.7.7.7.7.7.7.7.7.7.7.6.7.7.7.6.7.7.7.7.7.7.7.7.7.7.7. .G.N.v.v.M.N.v.",
"7.6.7.7.7.7.7.7.7.7.7.7.6.7.6.7.7.7.6.6.7.7.7.7.6.7.7.7.7.7.7.7.7.7.7.7.7.7.7.7.7.7. .J.H.N.M.A.Z.v.",
"7.7.7.7.7.7.7.7.7.7.7.7.7.7.6.7.7.6.7.6.7.7.7.7.7.7.7.6.7.7.7.7.7.7.7.7.7.7.7.7.7.q. .P.L.H.S.A.Z.v.",
"6.7.7.6.7.7.7.7.7.7.7.7.7.7.6.7.7.7.6.6.6.0.6.6.7.7.7.7.6.7.7.7.7.7.7.7.7.7.7.7.7.7. .J.I.P.F.F.Z.v.",
"6.7.7.7.7.7.7.7.q.q.7.7.7.8.7.6.6.7.6.7.7.6.6.6.6.6.6.7.7.7.7.7.7.7.7.q.7.7.7.q.7.7.X.U.Q.Q.Y.F.A.b.",
"7.7.6.7.7.7.7.q.7.7.7.7.7.q.7.7.7.7.7.7.7.7.0.6.6.7.7.7.7.7.q.q.7.7.7.q.7.7.7.7.7.6.O.Q.Q.Q.Q.T.F.b.",
"7.7.7.7.7.7.7.7.7.7.7.7.7.7.7.7.6.7.7.6.7.7.0.' 6.7.7.7.7.q.7.7.7.7.7.q.7.7.7.7.7.7.X.E.Y.Y.Y.Y.K.x.",
"7.7.7.0.7.q.7.7.7.7.7.7.q.0.7.7.7.7.7.7.7.7.7.7.7.7.7.7.7.7.7.7.7.7.7.7.7.7.7.7.7.7./ N.m.M.M.M.m.@ ",
"7.7.7.7.7.7.7.7.7.7.7.7.q.7.7.7.7.7.7.7.7.7.7.7.7.0.7.q.7.7.7.7.7.7.q.q.7.7.7.7.7.6. .G.M.v.v.n.N.b.",
"7.7.7.7.7.7.q.7.7.7.7.7.q.7.7.7.7.7.7.7.7.7.7.7.7.7.7.7.7.7.7.7.7.7.q.q.7.7.7.7.7.7. .J.H.N.n.Z.Z.n.",
"7.7.7.7.7.q.7.q.7.7.q.7.7.7.7.7.0.7.7.7.0.7.7.7.7.9.0.0.q.7.6.7.7.7.q.7.7.7.7.7.7.7. .J.P.H.A.A.Z.n.",
"7.7.7.7.7.7.7.7.7.7.7.q.7.7.7.7.7.7.7.6.6.6.6.7.7.7.7.0.6.q.7.7.0.7.7.7.7.7.7.7.6.6. .J.P.P.F.A.Z.n.",
"7.7.7.7.7.7.7.7.0.7.7.7.7.7.7.7.7.7.0.6.6.6.6.6.7.7.7.7.7.7.7.7.7.q.7.7.6.7.7.7.6.6...U.Q.Q.Y.F.A.M.",
"7.7.7.7.7.7.7.7.7.7.7.7.7.7.7.0.7.7.6.7.6.7.7.7.7.7.7.7.7.7.7.7.7.7.7.6.6.7.7.7.7.6.O.Q.Q.Q.Q.Y.F.M.",
"7.7.7.7.7.7.7.7.7.7.0.7.7.7.7.7.7.6.6.9.7.7.7.7.6.7.7.7.7.7.7.7.7.7.7.7.7.7.6.6.7.6.X.W.W.W.W.W.R.D.",
"7.7.7.7.7.7.7.7.7.7.7.7.7.7.7.7.7.7.7.7.7.7.7.7.7.7.7.7.7.0.7.7.7.7.7.7.7.7.7.7.7.7.( C.M.M.n.M.m.@ ",
"7.7.7.7.7.7.7.7.7.7.7.7.7.7.7.7.7.7.7.7.7.7.7.7.7.7.7.7.7.6.7.7.7.7.7.7.7.7.7.7.7.7. .G.M.v.v.n.N.b."
};
