/* XPM */
static char *result[] = {
/* columns rows colors chars-per-pixel */
"50 50 178 2 ",
"   c #7A2838",
".  c #086401",
"X  c #086D03",
"o  c #0A7305",
"O  c #0A7C04",
"+  c #3F6B04",
"@  c #125574",
"#  c #980C3D",
"$  c #A40D36",
"%  c #B71135",
"&  c #B91033",
"*  c #A13C2C",
"=  c #A93E36",
"-  c #DC161B",
";  c #F41A0B",
":  c #E71717",
">  c #F41C11",
",  c #8B4806",
"<  c #934C06",
"1  c #9B560A",
"2  c #A25C09",
"3  c #BB5F0B",
"4  c #A36B0B",
"5  c #BC620B",
"6  c #BD690B",
"7  c #976A37",
"8  c #CB740C",
"9  c #CE7A0D",
"0  c #D37F0D",
"q  c #C77B10",
"w  c #8A0A45",
"e  c #9C2053",
"r  c #A42B5A",
"t  c #C62546",
"y  c #CD2D4A",
"u  c #D63652",
"i  c #F53F46",
"p  c #B4434D",
"a  c #F64B54",
"s  c #CD416D",
"d  c #E84D63",
"f  c #EC5765",
"g  c #F7666E",
"h  c #F86973",
"j  c #0D8405",
"k  c #088905",
"l  c #0A9306",
"z  c #0F930A",
"x  c #0F9B0C",
"c  c #11960C",
"v  c #0DA409",
"b  c #0CB209",
"n  c #0CB809",
"m  c #0EA110",
"M  c #11A412",
"N  c #11AD15",
"B  c #0FB814",
"V  c #16B019",
"C  c #279C22",
"Z  c #1FB520",
"A  c #29B727",
"S  c #37B234",
"D  c #568E09",
"F  c #59990E",
"G  c #77A61F",
"H  c #58B534",
"J  c #0CC20A",
"K  c #0BCC0B",
"L  c #0CD30C",
"P  c #0FC513",
"I  c #10D310",
"U  c #26D512",
"Y  c #2DD117",
"T  c #0CE40C",
"R  c #0CEA0C",
"E  c #37C436",
"W  c #31ED2E",
"Q  c #48B746",
"!  c #6BB95D",
"~  c #68B960",
"^  c #53CC4C",
"/  c #4BD748",
"(  c #57C654",
")  c #68C444",
"_  c #63CE5D",
"`  c #72D756",
"'  c #51E94D",
"]  c #4BF148",
"[  c #50F04C",
"{  c #6BC76D",
"}  c #6CC96E",
"|  c #73CE6F",
" . c #66DD63",
".. c #74D774",
"X. c #71F06E",
"o. c #7AEB77",
"O. c #9AB72D",
"+. c #D6830C",
"@. c #D9850C",
"#. c #DE8C0D",
"$. c #D69B17",
"%. c #E39E12",
"&. c #E99E11",
"*. c #DCA91A",
"=. c #E5A213",
"-. c #EBA312",
";. c #E6A816",
":. c #EBAC13",
">. c #E0A719",
",. c #E3AD1B",
"<. c #F1AA11",
"1. c #E9B218",
"2. c #E8B71C",
"3. c #F3BA17",
"4. c #85CD37",
"5. c #85CD39",
"6. c #98C93E",
"7. c #84D037",
"8. c #87D13A",
"9. c #8AD33E",
"0. c #A4C32D",
"q. c #A3C631",
"w. c #A7D134",
"e. c #EDC51A",
"r. c #F2C41A",
"t. c #F6CE1F",
"y. c #F8D11F",
"u. c #F8D521",
"i. c #F5D923",
"p. c #FBDD23",
"a. c #BEA27C",
"s. c #C6BF4A",
"d. c #8DDA65",
"f. c #89E467",
"g. c #8BE66A",
"h. c #186899",
"j. c #226C9C",
"k. c #0E65A1",
"l. c #106BA3",
"z. c #116EAA",
"x. c #0E70AB",
"c. c #1472A4",
"v. c #1273AC",
"b. c #117BB2",
"n. c #2272A0",
"m. c #F77589",
"M. c #1A82AF",
"N. c #1182B7",
"B. c #1286B9",
"V. c #1189BC",
"C. c #2A86A3",
"Z. c #1A9BC8",
"A. c #1DA3CB",
"S. c #16A7D5",
"D. c #23BBDC",
"F. c #31B8D8",
"G. c #19B8E3",
"H. c #22BBE2",
"J. c #23C3E9",
"K. c #33CCE6",
"L. c #3BD2ED",
"P. c #45CACF",
"I. c #55E4DB",
"U. c #40CFE3",
"Y. c #52E5E2",
"T. c #46E7FB",
"R. c #F8839A",
"E. c #C6B48D",
"W. c #F685A5",
"Q. c #F58FB2",
"!. c #F792B4",
"~. c #87F886",
"^. c #8FF98D",
"/. c #93F08B",
"(. c #90FA8E",
"). c #F59EC6",
"_. c #F6A0C7",
"`. c #F6A0C9",
/* pixels */
"l.b.v.k.k.v.A.{ 4.5.5.5.5.5.5.5.5.5.5.5.5.5.5.5.5.5.5.5.5.5.5.4.5.5.5.5.5.5.5.5.5.5.5.5.5.5.5.5.5.5.",
"@ c.v.v.v.v.M.~ 5.5.5.5.5.5.5.5.5.5.5.5.5.4.5.5.5.5.5.5.5.5.5.5.5.5.5.5.5.5.5.5.5.5.5.5.5.5.5.5.5.5.",
"C.P.Y.Y.Y.I.I.| 5.5.5.5.5.5.5.5.5.5.5.5.4.4.4.4.5.5.5.5.5.5.5.4.5.5.5.9.5.5.5.5.5.5.5.5.5.5.5.5.5.5.",
"v.Z.L.T.T.T.T...5.5.5.5.5.5.4.4.5.5.5.5.5.5.4.5.5.5.5.5.5.5.5.4.5.5.5.5.5.9.5.5.5.5.5.5.5.5.5.5.5.5.",
"x.N.Z.L.T.T.K.{ 8.5.5.5.5.5.5.5.9.5.5.5.8.4.4.5.5.5.5.5.4.5.4.4.5.5.5.5.5.5.5.5.5.5.5.5.5.5.5.5.5.5.",
"z.N.V.Z.H.J.D.{ 5.5.5.5.5.5.5.5.5.5.5.5.9.4.9.5.5.4.5.5.7.7.7.5.5.5.5.5.5.5.9.5.5.5.5.5.5.5.5.5.5.5.",
"z.N.B.V.S.G.D.{ 5.5.5.5.5.5.5.9.5.5.5.5.5.9.5.9.4.4.5.5.5.5.5.5.5.5.5.5.5.5.5.9.5.5.9.5.9.5.5.5.5.5.",
"z.N.N.x.x.S.D.{ 5.5.5.5.5.5.5.9.5.5.5.5.5.4.5.5.5.5.8.5.5.5.5.5.5.5.5.5.5.9.5.5.5.5.5.9.5.9.5.5.5.4.",
"l.b.z.k.k.v.A.} 8.5.5.5.5.5.9.9.5.5.5.5.5.5.9.5.8.5.5.5.5.5.5.5.5.5.4.5.5.9.5.5.5.5.4.5.5.5.5.5.5.5.",
"@ c.v.v.v.v.M.~ 4.8.5.5.5.5.5.5.5.5.5.5.5.5.5.5.5.5.5.5.5.5.5.5.5.5.4.5.5.9.5.5.5.5.5.4.9.5.9.5.4.5.",
"h.F.L.L.U.L.L.| 4.8.5.5.5.5.9.5.9.5.5.5.9.5.5.5.5.4.5.4.4.5.5.4.4.4.5.5.5.5.5.5.5.5.5.4.5.5.5.5.5.5.",
"z.A.U.T.T.T.T...4.5.5.5.5.5.9.9.5.5.9.9.5.5.5.5.5.4.4.5.5.5.4.5.5.5.5.5.9.5.8.5.5.5.9.5.5.5.5.5.5.4.",
"k.B.A.L.T.T.K.} 4.5.5.5.5.5.5.5.5.5.5.9.5.4.4.4.4.5.5.5.5.5.5.4.5.5.5.5.9.5.5.5.9.9.5.5.8.5.5.5.5.4.",
"k.N.V.Z.H.J.D.{ 5.5.5.5.5.5.5.5.5.5.5.5.5.5.5.4.5.5.5.5.5.5.4.4.5.5.5.4.5.5.5.5.5.5.5.5.5.5.5.5.5.5.",
"k.N.B.V.S.G.H.{ 4.5.5.5.5.5.5.5.5.5.5.5.5.5.4.5.5.5.5.5.5.5.4.4.5.5.5.4.5.5.5.5.5.5.5.5.5.5.5.5.4.4.",
"k.B.B.v.b.S.D.{ 4.5.5.5.5.5.5.5.5.5.5.5.5.5.5.5.5.5.4.5.5.5.4.4.5.5.5.4.5.5.5.5.5.5.5.5.4.5.5.5.5.5.",
"l.b.v.k.k.b.A.{ 5.9.5.5.5.5.5.5.5.5.5.5.4.7.5.4.4.4.5.5.5.5.5.5.5.5.5.4.4.4.4.4.4.5.5.5.5.5.5.5.4.5.",
"h.n.j.j.j.n.n.! 5.5.5.5.5.5.5.5.5.5.5.5.) O.4.8.4.4.5.5.9.5.5.5.5.5.4.5.4.4.4.5.5.5.5.5.5.5.5.4.5.5.",
"7 s.s.s.s.s.s.6.5.5.5.5.5.5.5.5.5.5.5.5.4.5.5.5.4.5.5.5.5.5.5.5.9.5.8.4.5.5.4.4.5.5.5.5.5.5.5.4.5.5.",
"5 #.y.p.p.p.p.w.5.5.5.5.5.9.5.5.5.5.5.5.5.5.4.5.4.4.5.9.5.5.5.5.5.9.8.8.5.5.4.4.5.5.5.5.5.5.5.5.5.4.",
"3 @.-.t.u.u.r.q.5.5.5.5.5.5.5.5.5.5.5.5.5.5.5.5.5.5.5.9.5.5.5.5.5.5.4.4.4.4.4.5.5.5.5.5.5.5.5.5.5.5.",
"5 +.#.%.3.3.:.q.) 8.5.8.5.5.5.5.5.5.5.5.5.5.5.5.5.5.9.9.5.5.5.5.5.4.9.5.8.8.5.5.5.5.4.5.5.5.5.5.4.5.",
"5 +.#.#.-.<.<.0.5.5.5.5.5.5.5.5.5.5.5.5.5.5.5.5.5.5.5.5.5.5.5.5.5.5.5.5.5.5.5.5.5.5.5.5.5.5.5.5.5.5.",
"5 +.@.8 8 &.<.0.5.5.5.5.5.5.5.5.5.9.5.5.5.5.5.5.5.5.9.5.5.5.5.5.9.5.5.5.5.5.5.5.5.5.5.5.5.5.8.4.4.4.",
"3 0 8 3 3 8 %.0.5.5.5.5.5.5.5.5.5.5.8.5.5.9.5.8.5.5.9.4.4.5.9.9.4.5.8.5.5.5.5.4.4.5.5.5.5.5.5.5.5.5.",
", 6 6 5 3 5 q O.5.5.5.5.5.5.5.5.9.5.5.5.5.4.9.8.8.5.4.4.4.5.5.5.8.5.5.5.5.5.5.4.5.5.4.4.5.5.5.5.5.4.",
"2 *.2.2.2.2.2.q.5.5.5.5.5.5.5.5.9.5.5.5.5.5.4.4.5.4.5.5.5.5.5.5.5.5.5.5.4.5.5.5.5.5.5.5.5.5.5.5.5.5.",
"5 =.y.p.p.p.i.w.5.5.5.5.5.5.5.9.9.5.5.5.5.5.5.9.5.8.4.5.5.5.5.5.5.5.4.5.5.5.4.5.5.5.5.5.5.5.5.5.4.5.",
"5 @.-.y.p.p.e.q.5.5.5.5.5.5.4.4.4.5.5.5.5.5.5.5.5.5.5.5.5.5.5.5.5.5.5.9.5.4.5.4.4.5.5.5.5.5.5.5.5.5.",
"5 @.#.-.2.3.:.0.5.5.5.5.5.5.4.9.5.5.5.5.5.9.4.5.5.5.5.4.5.5.4.4.4.5.5.4.9.5.4.9.4.5.5.5.5.5.5.5.5.5.",
"5 +.#.#.-.<.:.0.5.5.5.5.5.4.5.9.4.4.5.9.9.5.5.8.5.5.5.5.5.4.4.5.5.5.9.5.4.5.5.5.6.5.5.5.5.5.5.5.5.5.",
"5 @.@.8 0 &.:.0.5.5.5.5.5.5.5.4.4.5.5.5.5.8.4.5.4.5.4.4.4.4.4.4.5.5.9.4.5.5.5.5.5.5.5.5.5.5.5.5.5.5.",
"5 0 8 3 3 8 =.q.4.5.5.5.5.5.5.5.5.5.4.4.5.5.5.5.4.5.4.5.4.5.4.4.4.8.9.5.5.5.5.5.5.9.5.9.4.4.5.5.4.4.",
", 6 5 3 5 6 q O.5.5.5.5.5.5.5.5.5.5.5.5.5.4.5.5.5.5.4.5.5.5.5.4.8.4.5.4.5.5.9.5.5.5.5.4.4.4.5.5.4.4.",
"2 $.,.,.,.,.,.q.5.5.5.5.5.5.5.5.5.5.5.5.5.5.5.5.5.5.5.5.5.5.5.5.4.9.4.8.5.5.5.9.5.5.5.5.5.5.5.5.4.4.",
"6 ;.i.p.p.p.i.w.5.5.5.5.5.5.5.5.5.5.5.5.5.5.5.5.5.5.5.5.5.5.5.5.4.9.5.5.5.9.9.5.5.5.5.5.5.5.5.5.4.4.",
"3 @.:.u.p.p.t.q.5.5.5.5.5.5.5.5.5.5.5.5.8.4.4.4.5.4.5.5.5.5.5.5.4.4.4.5.4.5.5.5.5.5.5.5.5.5.5.5.5.4.",
"5 +.#.-.3.3.:.0.5.5.5.5.5.5.5.5.4.4.5.5.5.8.4.4.5.5.5.5.4.4.5.4.7.4.5.4.5.5.5.5.5.5.5.4.5.5.5.5.4.4.",
"5 +.#.#.-.:.:.0.) 9.5.5.5.5.5.5.4.4.5.5.5.4.4.4.4.4.4.5.4.5.5.5.8.4.8.5.5.5.5.5.5.5.5.4.5.4.5.5.5.4.",
"5 +.@.9 +.&.:.0.4.8.5.5.5.5.5.5.8.5.5.5.5.5.4.4.5.5.5.5.5.5.5.5.4.4.4.4.5.5.5.5.5.5.5.5.5.5.5.5.5.5.",
"3 +.8 5 3 9 =.0.4.4.5.5.5.5.5.5.4.4.4.5.5.5.8.7.5.5.5.5.5.5.5.5.5.5.5.5.5.5.5.5.5.5.9.9.5.5.5.5.4.4.",
", 6 5 5 3 5 q O.8.8.5.9.5.5.5.5.5.5.4.4.5.5.8.) 5.5.8.9.5.5.5.8.5.5.5.9.5.5.5.5.5.5.9.9.5.5.5.5.8.8.",
"1 $.>.>.>.>.*.G ` g.g.g.g.f.) ) g.g.g.g.g.) C ( ( ( ( _ ` H f.g.g.g.g.d.7 E.E.E.E.E.E.7 a.E.E.E.E.E.",
"5 ;.u.p.p.p.i.F S g.(.(.^.^.Q S X.(.(.(.(.{ C  .(.(.(.(...C ^ ^.(.(././.p d !.`.).).).s s m.`.`.`._.",
"5 @.1.y.p.p.r.F m / o.(.^.X.Z x E X./.(.o.E z A  .(.(.~./ z Z ^ /.^.~. .= : a Q.`.`.W.u - i m.`._.!.",
"5 +.#.:.r.3.:.D m V E ' [ W b x N E / [ W J z N A / [ W I l M Z / ' ] Y * : > a m.m.m.y - > i m.R.m.",
"5 +.#.#.-.:.;.D m N V I R R b z N N P R R K z N V B R R L z N N B T R U * : ; > f h g y : > > i h g ",
"5 @.#.0 +.-.;.D m N m v L T b c N M v I R J z N N M P R K z N N x n T U * : ; : u f g y - > : y d g ",
"5 0 8 5 5 0 %.D m x j j v L b z m j j l K J z m z O j n L z m x j k b Y * : - % % y f y - - & % t d ",
"< 2 < < < < 4 + o X . . . k k o o . . . O k o O . . . O l X o X . . X j   $ w w w w r e $ # w w w e "
};
