/* XPM */
static char *result[] = {
/* columns rows colors chars-per-pixel */
"50 50 229 2 ",
"   c #002800",
".  c #002E00",
"X  c #003200",
"o  c #003600",
"O  c #003900",
"+  c #003C00",
"@  c #003E00",
"#  c #772934",
"$  c #004000",
"%  c #004400",
"&  c #004800",
"*  c #004A00",
"=  c #034B00",
"-  c #004C00",
";  c #004D00",
":  c #014E00",
">  c #0E4D00",
",  c #015200",
"<  c #015400",
"1  c #025600",
"2  c #045400",
"3  c #015A00",
"4  c #035A00",
"5  c #055D00",
"6  c #155101",
"7  c #1A5501",
"8  c #125C00",
"9  c #225B03",
"0  c #036100",
"q  c #016400",
"w  c #076500",
"e  c #086100",
"r  c #0C6700",
"t  c #016B00",
"y  c #0A6C00",
"u  c #146F01",
"i  c #037200",
"p  c #0C7100",
"a  c #0D7400",
"s  c #037A00",
"d  c #037D00",
"f  c #107400",
"g  c #107500",
"h  c #167401",
"j  c #1F7503",
"k  c #147901",
"l  c #167B01",
"z  c #1A7E01",
"x  c #217001",
"c  c #257503",
"v  c #287E07",
"b  c #9E0436",
"n  c #BC092E",
"m  c #A60532",
"M  c #B70A36",
"N  c #DC0E15",
"B  c #E80F0D",
"V  c #F31203",
"C  c #E50F12",
"Z  c #F3201B",
"A  c #C80D2A",
"S  c #D10C20",
"D  c #D51E34",
"F  c #F52C2C",
"G  c #9E412A",
"H  c #8A0243",
"J  c #8D0341",
"K  c #940642",
"L  c #9B1750",
"P  c #A42459",
"I  c #A73362",
"U  c #C81F47",
"Y  c #D12A4A",
"T  c #DA3B56",
"R  c #F53A40",
"E  c #B2494E",
"W  c #E4445E",
"Q  c #F64953",
"!  c #D64972",
"~  c #E84E61",
"^  c #F35A68",
"/  c #F0626D",
"(  c #F96770",
")  c #F26679",
"_  c #048100",
"`  c #048200",
"'  c #058300",
"]  c #088600",
"[  c #068D01",
"{  c #1E8203",
"}  c #128901",
"|  c #1A8F02",
" . c #069402",
".. c #0A9A03",
"X. c #0C9F03",
"o. c #1E9003",
"O. c #238605",
"+. c #268A06",
"@. c #2C8709",
"#. c #298B08",
"$. c #2A8E09",
"%. c #308E0B",
"&. c #3C880F",
"*. c #219504",
"=. c #2D910C",
"-. c #31930B",
";. c #34970E",
":. c #239B1B",
">. c #209D1B",
",. c #3F9111",
"<. c #369A11",
"1. c #399B11",
"2. c #3E9911",
"3. c #3A9D11",
"4. c #3D9E13",
"5. c #07A508",
"6. c #08AC0A",
"7. c #04BB06",
"8. c #0CB00F",
"9. c #3EA013",
"0. c #25B316",
"q. c #37B31A",
"w. c #4B8F18",
"e. c #54901B",
"r. c #5D9B1F",
"t. c #44A415",
"y. c #48A91B",
"u. c #4CAC19",
"i. c #50AE1B",
"p. c #53B11D",
"a. c #56B51E",
"s. c #53B625",
"d. c #5DBC22",
"f. c #57B929",
"g. c #5DBE2C",
"h. c #60A321",
"j. c #66AA24",
"k. c #62B723",
"l. c #6DB028",
"z. c #75BD2C",
"x. c #04C804",
"c. c #05D604",
"v. c #1CD709",
"b. c #04E204",
"n. c #04EB04",
"m. c #31C42F",
"M. c #32E626",
"N. c #5FC12D",
"B. c #63C224",
"V. c #67C82B",
"C. c #77C12D",
"Z. c #7AC52F",
"A. c #63C530",
"S. c #68CA33",
"D. c #6CCF34",
"F. c #7CC330",
"G. c #7DC731",
"H. c #6FD237",
"J. c #73D63B",
"K. c #75D73C",
"L. c #75D73D",
"P. c #75D83D",
"I. c #49D245",
"U. c #4DDD49",
"Y. c #54C450",
"T. c #57C753",
"R. c #52D250",
"E. c #66C748",
"W. c #64D15E",
"Q. c #62DC5F",
"!. c #72DE59",
"~. c #4FEF4B",
"^. c #43F140",
"/. c #72E56F",
"(. c #7CF779",
"). c #81CA33",
"_. c #82CD35",
"`. c #83CF36",
"'. c #83CF37",
"]. c #84CC34",
"[. c #85CD35",
"{. c #85CE35",
"}. c #85CC37",
"|. c #85CD37",
" X c #87CD37",
".X c #84CE36",
"XX c #85CE36",
"oX c #85CF36",
"OX c #85CE37",
"+X c #85CF37",
"@X c #86CE36",
"#X c #87CF36",
"$X c #83CC38",
"%X c #85CC38",
"&X c #84CD38",
"*X c #85CD38",
"=X c #85CC39",
"-X c #85CD39",
";X c #85CE38",
":X c #85CF38",
">X c #84D037",
",X c #9F8A4A",
"<X c #B0845A",
"1X c #B7946A",
"2X c #BDA079",
"3X c #89DF63",
"4X c #8CE76A",
"5X c #8CE86A",
"6X c #8DE86A",
"7X c #8EE96B",
"8X c #DA608C",
"9X c #E66483",
"0X c #F7748A",
"qX c #F8829B",
"wX c #C3B28B",
"eX c #C7B48D",
"rX c #C7B58E",
"tX c #C7B58F",
"yX c #C7B68F",
"uX c #EA80A3",
"iX c #F68DAF",
"pX c #F797B8",
"aX c #94EA88",
"sX c #89F787",
"dX c #8FF98D",
"fX c #91FB90",
"gX c #ED9EC7",
"hX c #F79CC2",
"jX c #F7A1CA",
/* pixels */
"I / ) ) ) uXgXwX X{.@X@X@X@X@X@X@X[.@X@X@X).z.z.z.C.C.C.C.C.F.[.@X@X@X@X@X@X@X@X@X@X@X@XXX>X.X*X%XXX",
"K T / ( qXhXjXtX X{.@X@X@X@X@X@X[.@X).C.C.h.x c v %.%.%.%.#.2.C.Z.G.[.@X@X@X@X@X@X@X@X@XoX:XOX}.-XoX",
"H M T ^ qXjXjXrX X{.@X@X@X@X@X[.@X).h.x c j %.g.N.A.A.A.N.i.<.%.#.2.F.[.@X@X@X@X@X@X@XXX`.|.+X%X-X*X",
"H M S Z ^ hXjXrX X{.@X@X@X@X[.@X].r.8 O.p.g.S.L.J.H.D.D.D.D.S.N.i.;.2.F.[.@X@X@X@X@X@XXX:X%X*X-X-X*X",
"J S V V Z ) hXtX X{.@X@X@X@X@X].r.> e y.H.P.L.J.A.y.=.=.<.s.H.J.D.d.t.&.C.[.@X@X@X@X@X*X:X-X%X-X%X*X",
"m B V V V Z ) wX X{.@X@X@X@X#Xh.> $ v S.J.L.J.g.t.N.f.f.g.g.s.J.J.D.a.@.&.G.@X@X@X@X@X'.;X-X%X-X%X*X",
"K A A A A A U <X@X{.@X@X@X@X[.e.X * v J.L.L.N.9.A.S.y.<.s.g.<.H.L.H.B.t.c C.[.@X@X@XXX:X%X*X-X-X*X%X",
"P ~ ~ ~ ~ 9XuX2X X{.@X@X@X#Xh.6 % * v H.L.L.N.y.H.D.N.y.4.s.;.H.L.H.B.a.@.&.G.@X@X@X[.|.-X*X-X-X*X%X",
"L W ( ( 0XpXjXyX X{.@X@X@X#Xe.X * - u f.J.L.H.N.y.;.4.s.s.s.N.J.K.H.B.B.t.c F.@X@X@X*X:X-X*X-X%X-X*X",
"H M W ( qXjXjXrX X{.@X@X@X@Xe.X * - < v f.H.J.H.N.s.f.S.H.S.J.J.H.V.B.B.u.c C.@X@X@X*X_.-X*X-X%X*X*X",
"H M D F ) jXjXrX X{.@X@X#Xj.7 $ - ; - 5 O.4.f.H.J.J.J.J.J.J.H.V.V.B.B.B.a.@.,.G.@X@X:X*X-X%X-X%X*X*X",
"H A B V F 0XjXtX X{.@X@X#Xe.  O * - < r a k +.<.<.9.p.p.p.p.i.i.B.B.B.B.d.%.x F.@XXX-X*X%X%X-X*X*X*X",
"b B V V V F 0XeX X{.@X@X#Xe.o % + * 4 a g a a a a k +.<.1.1.1.4.i.B.B.d.y.#.x F.@X-X-X%X%X-X-X*X%X*X",
"b S S S S S Y <X@X{.@X@X#Xe.O 1 % + 4 a g g a a a a z <.3.3.3.1.t.d.d.y.4.#.x F.-X-X-X-X-X-X%X%X*X*X",
"P T T T T ! 8X1X@X{.@X@X#Xe.X , 4 % O 2 f f g g g a z <.3.1.1.1.9.u.y.3.3.#.x F.-X-X-X-X-X-X%X%X*X-X",
"L ~ ( ( 0XpXjXtX X{.@X@X#Xe.X * , 4 ; = & 1 f f f a z <.3.;.O.O.#.<.1.1.;.z x F.-X-X-X-X-X-X-X%X%X-X",
"H U ~ ( qXjXjXtX X{.@X@X#Xe.X * - , 0 4 = = = = : w k O.O.{ g a k O.O.O.$.#.x F.@X-X-X-X-X-X-X%X%X-X",
"H M D R 0XjXjXrX X{.@X@X#Xe.  @ - ; - , 0 4 * * % + , 0 0 0 0 0 w l ;.1.9.2.c F.*X;X-X-X-X-X*X*X%X=X",
"H A C V R qXjXtX X{.@X@X#Xe.X $ @ - ; ; - , 0 0 4 & 2 u h h h h z 3.i.p.u.$.x F.|.@X*X%X-X$X-X%X%X-X",
"b C V V V R qXtX X{.@X@X#Xe.+ 1 $ @ - ; - ; ; ; , w k +.+.+.+.$.9.u.4.3.3.#.x F.@X@X|.|.*XoX}.%X%X-X",
"b N N N N N T 1X X{.@X@X#Xe.X , 1 $ O $ - ; - - - , w a g g f k $.1.1.1.3.#.x F.@X@X@X@X;X@X}.}.-X@X",
"L Y Y Y Y T ! <X@X{.@X@X#Xe.X * < 1 $ @ O $ - ; ; - 1 a g a a a z <.3.3.<.{ x F.@X@X@X@X@X@X*X*X&X@X",
"P ^ ( ( 0XiXjXeX X{.@X@X#Xe.X * ; < w 1 $ @ + O $ - , r a g g a l #.$.$.$.{ x F.@X@X@X@X@X@X@X@XXX@X",
"H U ^ ( qXjXjXtX X{.@X@X#Xe.. $ - ; ; < w 4 @ @ + + $ , w w w w w k $.$.;.2.c F.@X@X@X@X@X@X@X@X@X@X",
"H M Y Q 0XjXjXrX X{.@X@X#Xe.. + $ - - ; : < w w 4 + & r r r r r u -.p.a.i.%.x F.@X@X@X@X@X@X@X@X@X@X",
"H n N V Q iXjXtX X{.@X@X#Xe.@ 2 + % ; ; - ; : : < r k $.$.$.$.=.9.u.9.4.4.#.x F.@X@X@X@X@X@X@X@X@X@X",
"K N V V V Q iXyX X{.@X@X#Xe.X 1 2 + @ % ; ; - - ; < y g g g g z -.3.1.1.3.#.x F.@X@X@X@X@X@X@X@X@X@X",
"m C B B B C W 2X X{.@X@X#Xe.X - 1 2 o O @ % ; ; ; ; 3 a a a a a z <.3.3.<.O.x F.@X@X@X@X@X@X@X@X@X@X",
"# G G G G G E ,X@X{.@X@X#Xe.. % ; 1 w 2 o O $ $ % - < y a g g a l =.-.-.=.z x F.@X@X@X@X@X@X@X@X@X@X",
"[ v.v.v.M.!.aX3X@X[.@X@X#Xe.  O % : : 1 w 2 o X O $ % < r y y y y k O.O.-.2.c F.@X@X@X@X@X@X@X@X@X@X",
"t 6.b.n.^.sXfX5X@X[.@X@X#Xe.@ , O % - : : 1 w w 1 o @ 5 e e e e r #.p.a.i.%.x F.@X@X@X@X@X@X@X@X@X@X",
"q ] 7.b.~.fXfX4X@X[.@X@X#Xe.o 1 , O $ & - : , , 1 w h #.$.$.$.=.3.u.9.9.9.#.x F.@X@X@X@X@X@X@X@X@X@X",
"q ' X.7.I.sXfX4X@X[.@X@X#Xe.X ; 4 , X o % & - ; : 4 p k k k k { ;.9.3.3.1.O.x F.@X@X@X@X@X@X@X@X@X@X",
"q ..6.8.8.R.sX6X@X[.@X@X).w.O & : 1 e , X o % % & ; 4 y a a a g { ;.;.;.=.u v G.@X@X@X@X@X@X[.-X[.[.",
"s 5.6.6.6.8.R.3X@X@X).Z.p.} 1 o - : , 1 e , X . o % * 4 y y y y k =.O.{ r 7 l.].@X@X@X@X@X[.-X-X-X@X",
"i  . . . . .>.f.).G.p.o.} ` 0 o % & - : , 1 e e 2 X O 1 5 5 5 5 w #.u.,.: 9 F.@X[.@X@X@X[.-X-X-X-X-X",
" .c.c.c.c.U./.!.p.o.} _ _ ` d 3 X O & - - : < < 1 e u +.#.#.#.#.-.t.%.> 9 l.].@X@X@X@X@X[.-X-X-X-X-X",
"i 7.n.n.^.sXfXW.} _ _ _ ` _ ` s t 3 O & & * - - : 5 f z z l k k h 8 : k j.].@X[.@X@X@X@X-X-X-X-X-X-X",
"q [ 7.n.~.fXfXT.` _ ` ` ` ` _ ` ' d 3 X . o & * & * 4 y y w ; + o @ t ] 3.).@X@X@X@X@X@X-X-X-X-X-X-X",
"q _ X.7.U.dXfXT.` _ ` ` ` ` ` ` _ ` s t t 1 .   . . X O o X $ q t i _ _ *.G.@X@X@X@X@X[.-X-X-X-X-X-X",
"q  .6.8.0.Q.dXT.` _ ` ` ` ` ` ` ` _ ` ` ' s ,   & 5 5 2 o X t _ ' ` ` _ *.G.@X@X@X@X@X[.-X-X-X-X-X-X",
"s 5.8.6.8.0.Q.Y.` _ ` ` ` ` ` ` ` ` ` ` _ ' q X < p f r $ $ d ` _ ` _ _ *.G.@X@X@X@X@X-X-X-X-X-X-X-X",
"i  . . . . .>.:.' _ _ ` ` ` ` ` ` ` ` ` ` ` s 1 o + @ O $ t _ ` _ _ _ | k.].@X@X@X@X@X-X-X-X-X-X-X-X",
"[ x.x.x.x.m.W.E.9.' ` _ _ ` ` ` ` ` ` ` ` _ ` s q 0 0 0 t _ ` _ ` ' | k.].@X[.@X@X@X@X@X-X-X-X-X-X-X",
"d x.n.n.M.(.fX7XC.k.3.' ` _ _ _ _ ` ` ` ` ` _ ` ` ` ` ` ` _ ` ` | p.k.].@X[.@X@X@X@X@X@X-X@X-X-X-X-X",
"q  .x.n.~.fXfX4X@X@XC.a.3.' ` ' ` _ _ _ _ _ _ _ _ _ ` ` ' ` | i.k.].@X@X[.@X@X@X@X@X@X[.-X-X-X-X-X-X",
"q _ 5.x.U.dXfX4X@X[.@X#XC.p.p.p.3.' ` ` ` ` ` ` ` ` o.i.p.p.k.].@X@X@X@X@X@X@X@X@X@X@X[.-X-X-X-X-X-X",
"q [ 5.8.m./.fX5X@X[.@X@X@X@X@X#XC.i.i.i.i.i.i.i.i.i.k.[.@X@X@X@X@X@X@X@X@X@X@X@X@X@X@X[.-X-X-X-X-X-X",
"i 5.8.8.6.m./.4X@X[.@X@X@X@X@X@X@X@X@X@X@X@X@X@X@X@X@X@X@X@X@X@X@X@X@X@X@X@X@X@X@X@X@X@X-X-X-X-X-X-X",
"i ..........q.E.@X@X@X@X@X@X@X@X@X@X@X@X@X@X@X@X@X@X@X@X@X@X@X@X@X@X@X@X@X@X@X@X@X@X@X@X[.-X-X-X-X-X"
};
