/* XPM */
static char *result[] = {
/* columns rows colors chars-per-pixel */
"50 50 195 2 ",
"   c #022D00",
".  c #033500",
"X  c #033C00",
"o  c #762D37",
"O  c #044300",
"+  c #044D00",
"@  c #094C01",
"#  c #174E05",
"$  c #065400",
"%  c #0B5501",
"&  c #055901",
"*  c #0B5A01",
"=  c #195905",
"-  c #255A0A",
";  c #076201",
":  c #0B6301",
">  c #076A02",
",  c #096B01",
"<  c #116402",
"1  c #136B02",
"2  c #1B6E06",
"3  c #0A7204",
"4  c #077803",
"5  c #0C7B03",
"6  c #167303",
"7  c #1B7406",
"8  c #1C7906",
"9  c #256E08",
"0  c #267009",
"q  c #29720A",
"w  c #217D09",
"e  c #2B7B0E",
"r  c #2D7E11",
"t  c #980C3D",
"y  c #A20D36",
"u  c #B30E36",
"i  c #B71237",
"p  c #DA161D",
"a  c #EF1A0D",
"s  c #F31A0B",
"d  c #EA1912",
"f  c #E41719",
"g  c #CF1425",
"h  c #C6142D",
"j  c #D61A2A",
"k  c #C81630",
"l  c #D42438",
"z  c #F32521",
"x  c #F53231",
"c  c #9B432B",
"v  c #A54438",
"b  c #890A45",
"n  c #981649",
"m  c #BD1B40",
"M  c #9D2154",
"N  c #A32959",
"B  c #A63662",
"V  c #C82749",
"C  c #D32D49",
"Z  c #CF314C",
"A  c #CF3A5D",
"S  c #DA3B54",
"D  c #F53B42",
"F  c #B14A4F",
"G  c #AC7E54",
"H  c #DA4057",
"J  c #F64142",
"K  c #E1475C",
"L  c #F64A54",
"P  c #D54B72",
"I  c #E74562",
"U  c #E54E61",
"Y  c #E95363",
"T  c #F75D6A",
"R  c #F7656D",
"E  c #EE6875",
"W  c #F96770",
"Q  c #F16976",
"!  c #F96870",
"~  c #F4637B",
"^  c #0D8102",
"/  c #0A8C06",
"(  c #168606",
")  c #0E9407",
"_  c #0F930A",
"`  c #0C9A0B",
"'  c #14940D",
"]  c #119A0D",
"[  c #24810B",
"{  c #29860D",
"}  c #228E09",
"|  c #2B890E",
" . c #28920C",
".. c #2E8B11",
"X. c #388714",
"o. c #338D13",
"O. c #349314",
"+. c #3A9616",
"@. c #3D9D16",
"#. c #379619",
"$. c #3C9B19",
"%. c #0BB80A",
"&. c #14A714",
"*. c #13A914",
"=. c #11AD14",
"-. c #269B21",
";. c #29B329",
":. c #32BE31",
">. c #458C1A",
",. c #429719",
"<. c #419E1A",
"1. c #46A21B",
"2. c #4CA91F",
"3. c #558F21",
"4. c #5B9723",
"5. c #44A321",
"6. c #4CAB22",
"7. c #5CA224",
"8. c #53AE22",
"9. c #53B124",
"0. c #5CB726",
"q. c #55B52A",
"w. c #5ABA2D",
"e. c #58B534",
"r. c #5EBE31",
"t. c #66A72A",
"y. c #63B628",
"u. c #6EB32D",
"i. c #62BD29",
"p. c #75BD31",
"a. c #78BF32",
"s. c #0CC60B",
"d. c #0CC80B",
"f. c #0BD40B",
"g. c #11CF12",
"h. c #22DA11",
"j. c #2AD518",
"k. c #0CE40D",
"l. c #0CEA0C",
"z. c #3BCC36",
"x. c #39EF36",
"c. c #5FC031",
"v. c #63C22A",
"b. c #62C333",
"n. c #67C936",
"m. c #6ACB36",
"M. c #6CCE39",
"N. c #75C131",
"B. c #7BC333",
"V. c #7EC836",
"C. c #6ED03A",
"Z. c #73D53E",
"A. c #43F03F",
"S. c #4CD748",
"D. c #56C753",
"F. c #53D950",
"G. c #67C64A",
"H. c #6BD55C",
"J. c #50EE4D",
"K. c #4CF149",
"L. c #69E358",
"P. c #64D662",
"I. c #6EE46C",
"U. c #7AED77",
"Y. c #84CC37",
"T. c #85CD39",
"R. c #86D03B",
"E. c #9E894B",
"W. c #B0865E",
"Q. c #B6936B",
"!. c #BC9F79",
"~. c #88DE64",
"^. c #8BE66A",
"/. c #8DE86B",
"(. c #D9608B",
"). c #EE6983",
"_. c #F6738D",
"`. c #F97A8B",
"'. c #F87F95",
"]. c #E479A3",
"[. c #F7829B",
"{. c #C4AF88",
"}. c #C6B48D",
"|. c #F289A9",
" X c #F688A8",
".X c #F796B7",
"XX c #93E987",
"oX c #8AF788",
"OX c #90FA8E",
"+X c #92FC90",
"@X c #EC9DC6",
"#X c #F69CC3",
"$X c #F79FC8",
"%X c #F6A0C7",
"&X c #F6A1C9",
/* pixels */
"T.T.T.T.T.T.T.T.T.T.T.T.T.T.T.T.T.T.Y.B.N.N.N.N.N.p.p.p.Y.Y.T.T.T.T.T.T.T.T.T.T.T.T.}.@X|.Q E E T B ",
"T.T.T.T.T.T.T.T.T.T.T.T.T.T.T.T.B.B.N.,...o.o.o.o.r q q 7.B.p.Y.T.T.T.T.T.T.T.T.V.T.}.&X.X'.W R H b ",
"T.T.Y.T.T.T.T.T.T.T.T.T.T.T.T.B.,.o.o.#.6.c.n.b.b.b.i.O.0 q 9 7.T.T.T.T.T.T.T.T.T.T.}.&X$X'.T S i b ",
"T.T.Y.T.T.T.T.T.T.T.T.T.T.T.B.,.O.2.c.n.M.M.M.M.G.Z.G.C.r.8.{ = 4.T.T.T.T.T.T.T.T.T.}.&X#XT z j u b ",
"T.Y.T.Y.T.T.T.T.T.T.T.T.Y.p.>.1.0.M.Z.C.q.#.O.O.2.b.Z.G.Z.Z.6.< # 4.T.T.T.T.T.T.T.T.}.#X~ z s a g b ",
"Y.T.T.Y.T.T.T.T.T.T.T.T.B.>...9.M.Z.Z.q.w.c.q.e.c.6.v.Z.Z.Z.m.e O # t.T.T.T.T.T.T.T.{.).z d s s d y ",
"T.T.T.T.Y.Y.T.T.T.T.Y.Y.a.q 2.v.C.Z.C.$.w.q.$.6.m.c.1.b.Z.Z.Z.r O . 3.T.T.T.T.T.T.T.G V h k k k k n ",
"T.T.T.T.Y.T.T.T.T.T.T.B.>.X.9.v.C.Z.C.$.q.<.6.c.C.C.2.m.Z.G.C.r + O # t.R.T.T.T.T.T.!.].(.I U U U N ",
"Y.Y.T.T.T.T.T.T.T.T.T.B.q 1.i.v.C.Z.Z.c.q.q.q.<.#.5.c.M.Z.C.w.7 + + . 3.R.T.T.T.T.T.}.&X.X`.! R H M ",
"R.Y.T.Y.T.T.T.T.T.T.Y.B.q 8.v.v.n.C.Z.Z.m.C.b.v.q.c.C.Z.C.w.w $ + + . 3.T.T.T.T.T.R.}.&X&X[.R K m b ",
"T.Y.R.Y.T.T.T.T.T.T.Y.>.| 9.v.v.v.v.b.C.Z.Z.C.G.G.Z.C.c.$.{ : + + + O - t.T.T.T.T.T.}.$X%X! x l u b ",
"Y.T.T.T.T.T.T.T.T.T.B.9 o.0.v.v.v.v.9.9.6.q.9.9.2.@.#.| 8 6 1 $ + + X   3.T.R.T.T.T.}.$X_.x s d h b ",
"T.T.T.T.T.T.T.T.T.T.B.q | 2.0.v.v.2.@.@.$.$.$.| 6 1 6 6 6 7 6 * + X O X 3.T.T.T.T.T.}._.x s s s f t ",
"Y.T.T.T.T.T.T.T.T.T.B.q ..@.2.0.v.1.@.@.$.$.$.w 6 6 6 6 6 6 6 * X @ * X 3.T.T.T.T.T.W.C g g g g p t ",
"T.T.T.T.T.T.T.T.T.T.B.0 ..$.$.2.6.<.@.#.$.,.$.( 6 6 6 7 6 6 $ X O * % . 3.T.T.T.T.T.Q.(.P K H H H M ",
"T.T.T.T.T.T.T.T.T.T.B.9 w +.$.$.@...{ | O.$.$.[ 6 6 6 7 % @ % @ % $ + . 3.R.T.T.T.T.}.$X X`.! ! U M ",
"T.Y.Y.T.T.T.Y.T.T.T.B.0 | ..{ { { 8 6 6 [ { { 7 : % @ @ @ @ * : $ + + X 3.T.T.T.T.T.}.&X$X[.! Y V b ",
"T.T.T.T.T.T.Y.T.T.T.a.q $.@.$.@.8 : : : : : : $ X O @ @ * * $ + + + X   3.T.T.T.T.T.}.&X$X_.J l u b ",
"T.T.T.T.T.T.Y.T.T.T.B.0 o.2.9.8.$.w 7 7 7 0 7 % @ * < : $ + @ $ @ O O . 3.T.T.T.T.T.}.&X[.D s f i b ",
"T.Y.T.T.T.Y.T.T.T.T.B.0 ..@.$.$.2.<.....{ ..| 8 < $ + + + + + + X @ % X 3.T.T.T.T.T.}. XD s s s f t ",
"Y.T.T.T.T.T.T.T.T.T.Y.9 | @.$.$.$.o.8 6 6 6 6 : $ + + + + + O X O % % . 3.T.T.T.T.T.Q.S p p p p p t ",
"T.T.T.Y.T.T.T.T.T.T.a.9 w $.$.,.$.w 6 6 6 6 6 * + + + + O X O O * $ + . 3.T.R.T.T.T.G P A Z Z Z Z M ",
"T.T.T.T.T.T.T.T.T.T.a.q [ ......| 8 6 7 6 6 1 $ + O X X X O % : $ $ @ . 3.T.T.T.T.T.{.$X X_.W ! Y N ",
"T.T.T.T.T.T.T.T.T.T.B.q <.@.o...7 , < , < : $ O X O O O * < * + + @ O . 3.T.T.T.T.T.}.$X$X'.W Y C b ",
"T.T.T.T.T.T.T.T.T.T.B.9 o.8.9.8.O.7 1 1 < 1 < + X * : < $ + + + $ O X . 3.T.T.T.T.T.}.$X&X'.L C u b ",
"T.T.T.T.T.T.T.T.T.T.B.9 | <.@.<.8.<.O...o...o.8 1 $ + $ $ + + + O X $ O 3.T.T.R.T.R.}.$X XL s p i b ",
"T.T.T.T.T.T.T.T.T.T.B.q o.$.$.$.$.o.8 7 7 7 7 1 $ + + + + + O O O % $ . 3.T.T.T.T.T.}..XL s s s p t ",
"T.T.T.T.T.T.T.T.T.T.B.0 [ $.$.$.#.w 6 6 6 6 6 & @ $ + + O O X X % * + . 3.T.T.T.T.T.!.U f f d f f y ",
"T.T.T.T.T.T.T.T.T.T.B.9 [ o.o.O.O.8 6 6 6 6 1 $ + O O O X X % < * + O . 3.T.T.T.T.T.E.F v c c c c o ",
"T.T.T.T.T.T.T.T.T.T.B.q @.O.{ { 8 1 1 1 1 < $ + O X . X * < $ $ + + X   3.T.T.T.T.T.~.XXL.j.h.h.h.( ",
"T.T.T.T.T.T.T.T.T.T.B.0 ..8.9.8...< < : < < * O X $ < < $ $ + + O X # X 3.T.T.T.Y.T./.+XoXK.l.k.%.; ",
"T.T.T.T.T.T.T.T.T.T.B.q | 1.@.1.8.$.o.o...o.o.7 < $ $ $ + + + O X % * . 3.T.T.T.T.T.^.+X+XJ.f.%.^ * ",
"T.T.T.T.T.T.T.T.T.T.B.9 | ,.@.$.<.+.( 7 8 8 8 6 * + + + O O X . % * + . 4.T.T.T.T.T.^.OXoXS.=.&.^ ; ",
"T.T.T.Y.T.T.T.T.T.T.Y.q 9 | +.+.O.[ 7 6 6 6 1 * + + O + X . $ < % $ + X >.T.T.T.T.T.^.oXS.=.=.=.` ; ",
"T.T.Y.T.Y.T.T.T.T.T.T.u.- 1 w { O.8 1 6 1 1 * + O . . . $ < $ & + + . & ( 8.B.Y.T.Y.~.D.*.&.=.&.&.4 ",
"T.T.T.T.T.Y.T.T.T.T.T.Y.- @ +.2...< * * * : $ X . % < : * $ + + + O X ; ^ ( } 9.B.Y.e.-.' ) ) ) _ 4 ",
"T.T.T.T.T.T.Y.T.T.T.T.Y.u.- # X.1.O...........2 < $ $ $ + + + + X . & 5 ^ ^ ^ (  .7.H.U.S.k.f.f.f./ ",
"T.T.T.T.T.T.T.T.T.T.Y.T.Y.t.7 $ = 7 7 8 8 8 8 7 * $ + + + + O X & , 5 ^ ^ ^ ^ ^ ^ w H.+XoXA.l.l.%.4 ",
"T.T.T.T.Y.T.T.T.T.T.T.T.V.@.( , O . O @ < 1 1 * + + + + . . . & 5 ^ ^ ^ ^ ^ ^ ^ ^ ^ D.+XOXJ.k.%./ : ",
"T.T.T.T.T.Y.T.T.T.T.T.T.V. .^ 5 3 > : O . X X . .     . & > > 5 ^ ^ ^ ^ ^ ^ ^ ^ 5 ^ D.OXoXF.g.] 5 ; ",
"T.T.T.T.Y.T.T.T.T.T.T.T.V. .^ ^ ^ ^ ^ 1 X X $ < * +   $ 5 ^ ^ ^ ^ ^ ^ ^ ^ ^ ^ ^ ^ ^ D.OXP.;.%.=._ ; ",
"T.T.T.T.Y.T.T.T.T.T.T.T.V. .^ ^ ^ 5 ^ 5 O O < 6 6 $ . ; ^ ^ ^ ^ ^ ^ ^ ^ ^ ^ ^ ^ ^ ^ D.P.;.=.=.=.*.4 ",
"T.T.T.T.T.T.Y.T.T.T.T.T.Y.y.} ^ ^ ^ ^ ^ > O X O X X * 5 ^ ^ ^ ^ ^ ^ ^ ^ ^ ^ ^ ^ ^ ^ -.-._ ) _ _ _ 3 ",
"Y.T.T.T.T.Y.T.T.T.T.T.Y.T.T.y.' ^ ^ ^ ^ 5 , ; & & : 5 ^ ^ ^ ^ ^ ^ ^ ^ ^ ^ ^ ^ ^ ^ @.G.P.z.s.s.s.s./ ",
"T.T.Y.Y.T.T.T.T.T.T.T.T.T.T.Y.y.8.} ^ ^ ^ ^ ^ ^ ^ ^ ^ ^ ^ ^ ^ ^ ^ ^ ^ ^ ^ ^ ( @.q.N.^.OXU.x.l.l.s.4 ",
"T.Y.T.T.T.T.Y.T.T.T.T.T.T.T.T.T.Y.y.8.} ^ ^ ^ 5 ^ ^ ^ ^ ^ 5 ^ ^ ^ ^ ^ ^ ^ $.9.N.T.T.^.OX+XK.l.d.` ; ",
"T.T.T.T.T.T.T.T.T.T.T.T.T.T.T.T.T.T.T.y.9.8.8.} ^ 5 ^ ^ ^ ^ 5 ( ^ @.8.8.8.N.T.T.T.T.^.OXOXS.g.` 5 : ",
"T.T.T.T.T.T.T.T.T.T.T.T.T.T.T.T.T.T.T.T.T.T.T.0.8.8.8.8.8.8.8.8.8.B.R.T.T.T.T.T.Y.T.^.OXI.z.=.*.) : ",
"T.T.T.T.T.T.T.T.T.T.T.T.T.T.T.T.T.T.T.T.T.T.T.T.T.T.T.T.T.T.T.T.T.T.T.T.T.T.T.T.T.T.^.I.:.&.=.=.&.6 ",
"T.T.T.T.T.T.T.T.T.T.T.T.T.T.T.T.T.T.T.T.T.T.T.T.T.T.T.T.T.T.T.T.T.T.T.T.T.T.T.T.T.T.G.;.] ] ] ] ] 3 "
};
