/* XPM */
static char *result[] = {
/* columns rows colors chars-per-pixel */
"50 50 130 2 ",
"   c #0D7D04",
".  c #B65B0B",
"X  c #B85E0B",
"o  c #BB620B",
"O  c #C1660B",
"+  c #C46C0C",
"@  c #C86E0B",
"#  c #C7710C",
"$  c #C9730D",
"%  c #CD7A0C",
"&  c #D27C0C",
"*  c #CA7511",
"=  c #0E8306",
"-  c #0E8A06",
";  c #0E8F09",
":  c #108F0A",
">  c #0E9307",
",  c #0F940A",
"<  c #0F990C",
"1  c #119D10",
"2  c #189813",
"3  c #0BAE09",
"4  c #08BB0A",
"5  c #0EAB12",
"6  c #11A311",
"7  c #11AC14",
"8  c #16AF19",
"9  c #14B119",
"0  c #1AB21D",
"q  c #38A52C",
"w  c #22BA23",
"e  c #34BB32",
"r  c #7E930B",
"t  c #40AC34",
"y  c #07C60B",
"u  c #0CC30A",
"i  c #0CD30B",
"p  c #0BDB0C",
"a  c #1BC417",
"s  c #0CE10C",
"d  c #0CEB0C",
"f  c #1CEC1A",
"g  c #21EB1F",
"h  c #23C723",
"j  c #24D321",
"k  c #34C034",
"l  c #7EC435",
"z  c #7FC936",
"x  c #7AC739",
"c  c #7DCB3E",
"v  c #4FBA43",
"b  c #43C741",
"n  c #55CC52",
"m  c #53D351",
"M  c #7FCD40",
"N  c #65CD5C",
"B  c #5CF358",
"V  c #68DE65",
"C  c #7BD262",
"Z  c #77DE6D",
"A  c #6AF566",
"S  c #74E770",
"D  c #79EB77",
"F  c #7FF57C",
"G  c #82A611",
"H  c #84AE18",
"J  c #93BF32",
"K  c #D7830C",
"L  c #DA870C",
"P  c #DD8A0D",
"I  c #CF8211",
"U  c #C68A17",
"Y  c #D78B10",
"T  c #DA8D10",
"R  c #CA931A",
"E  c #DD9210",
"W  c #E1930E",
"Q  c #E29510",
"!  c #E59B11",
"~  c #E99F11",
"^  c #DAAF1C",
"/  c #E5A012",
"(  c #ECA411",
")  c #ECAA13",
"_  c #F1AC12",
"`  c #E9B51A",
"'  c #EEBB19",
"]  c #F2B213",
"[  c #F0BD19",
"{  c #E0BD21",
"}  c #85C633",
"|  c #84CD37",
" . c #85CD39",
".. c #93C133",
"X. c #9BCE35",
"o. c #87D13B",
"O. c #8AD33E",
"+. c #9CD035",
"@. c #F3C41B",
"#. c #F6CD1F",
"$. c #F8CB1B",
"%. c #F9D21F",
"&. c #E9CB22",
"*. c #ECD424",
"=. c #EFDB27",
"-. c #F7D120",
";. c #F9D420",
":. c #FBDC23",
">. c #84C74E",
",. c #84D246",
"<. c #87D54A",
"1. c #80EA77",
"2. c #0E69A3",
"3. c #678E89",
"4. c #6A928E",
"5. c #6C9590",
"6. c #7BA99B",
"7. c #1392C3",
"8. c #19B4DF",
"9. c #1CBCE6",
"0. c #21C0E7",
"q. c #33D2F1",
"w. c #4FE7EC",
"e. c #43E5FB",
"r. c #47EAFE",
"t. c #87F485",
"y. c #8FF585",
"u. c #8DFA8B",
"i. c #90F687",
"p. c #91FA8F",
/* pixels */
"  - 1 ; y < =   - 1 : 4 3 =     < , r Y o X X @ $ $ E O . . O % + E # . . o % O E * o . X % O 3.7.2.",
"- 6 7 > i p < - < 7 > u p 3 = < 7 < r ( T O @ L & % ( W @ O L K @ ~ ! * O & L @ Q ( % o & L $ 4.8.7.",
"5 7 7 > i d p 4 7 7 , u d s u 8 7 < r ) ( W L P & $ ) ( ! L P K @ ( _ ~ T L L @ Q _ ( P P P # 4.9.8.",
"w 9 7 > i f g h 0 7 , u f f j 0 7 1 r _ ] ( W P & $ _ ] ) W P K @ ( ] _ ! P L @ Q ] ] / E P # 4.9.0.",
"S e 7 > j A F F k 0 , a B F F n 0 < r @.%.%.' W & % ' %.%.@.! K @ ) -.;.#.! L + ! $.;.-.) P * 5.q.e.",
"p.D e 2 V u.p.u.t.b 2 n t.p.p.t.m 2 G :.:.:.:.[ K I %.:.:.:.@.E * &.:.:.:.-.! @ ` :.:.:.;.) % 6.e.r.",
"i.y.Z q Z i.y.y.y.1.t N i.y.y.y.t.v H =.=.=.=.=.^ R *.=.=.=.=.&.U &.=.=.=.=.&.U { =.=.=.=.*.R 6.w.w.",
"<.<.,.x ,.<.<.<.<.<.x M <.<.<.<.<.M } X.+.X.+.+.X.J X.+.X.+.+...J X.+.X.+.+.X.J X.X.X.X.+.+...>.C C ",
"|  .|  . . . . . . . . . . . . . . . . .c  . . .| |  . .c |  . . .o. . . . . . . . . . . . . . .| | ",
" . . . . . . . . . . . .o. . . . . . . . . . . . .|  . . . . . . . . . . . . . . . . . . . . . . . .",
" . . . . . . . . . . . . . . . . . . . . . . . . . . . . . . . . . . . . . . . . . . . . . . . . . .",
" . . . . . . . . . . . . . . . . . . . . . . . . . . . . . . . . . . . . . . . . . . . . . . . . . .",
" . . . . . . . . . . . . . . . . . . . . . . . . .|  . . . . . . . . . . . . . .o. . . . . . . . . .",
" . . . . . . . . . . . . .o. . . . . . . . . . . .| ,. . . . . . . . . . . .o. . .,.O. . . .O. . . .",
" . . . . . . . . . . .,. . .O.O. . . .,. . . . . . . . . . . . . . . . . . . . .,. . . .o. .O. . . .",
" . . . . . . . . . . . . .O. . . .o. .O. . . . . . . . . . . . . . . . . . .o.o.}  . . . . . . . . .",
" . . . . . . . . . . .o. . . . . . . . . . . . . . . . . . . . . . . . .o. .O. . . . . . .O.O. . . .",
" . . . . . . . . .o. .O. . . . . . .O.O.o. . . . . . . . . . . . . .,. . . . . . . . . . .O. . . . .",
" . . . . . . .o. . .} o. . . . . . .O. . . . . . . . . . . . . . . . . . .O.o.O. . . . . .O. . . . .",
" . . . . . . . . . .o.O.,. . . . . .O. . . . . . . . . . . . . . . . . . . . . .O. . .O. . . . . . .",
" . . . . . . . . . . .O. .,. . . . . . . . . . . . . . . . . . . . . . . . . . . . . . .,. . .o.o. .",
" . . . . . . . . . . . . . . . .o.,. . . . . . . . . . . . . . . . . . . . . . . . . . . . . . . . .",
" . . . . . . . . . . . . . . . . .|  . . . . . . . . . . . . .o. . .o. . . . . . . . . . . . . . . .",
" . . . . . . . . . . . . . . .o. .o. . . . .|  . . . . . . . . . . . . . . . . . . . . . . . . . . .",
" . . . . . . . . . . . . . . . . . . . . . . . . . . . .o. . . . . . . . . . . . . . . . . . . . .o.",
"o. . . . .,. . . . . . . . . . . . . . . . .}  . . .o. . .O.,. . . .O. . . . . . . . . . . . . . . .",
" . . . . . . . . . . . . . . . . . . .|  . . . . . . . .O. .} o.o. .O. . . . . .o. . . . . . . . . .",
" . . . . . . . . . . . . . . . . . .|  .|  . .}  . . . . . . . . . . . . . . . . . . . . . . . . . .",
" . . . . . . . . . . . . . . . . . . . . . . . .o. .O. . . . . . .O.O. . . . . . . . . . . . . . . .",
"}  . . . . . . . . . . . . . . . . . .|  . . . . . . . . . . . . .O. . . . . . . . . . . . . . .o. .",
"}  . . . . . . . . .o. . . .o.| | |  .|  . . . . .o.o.o. . . . . .<. . . . . . . . . . . . . . . . .",
"l  . . . . . . . . . . . . .| o.o.| | |  . . .}  . .o. .O. . .O. . . . . . . . . . . . . . . . . . .",
"l  . . . . . . . . . . . . . . .o. .| | o. . . . . . . .o. . . .O. .o. . . . . . . . . . . . . . . .",
"l  . . . . . . . . . .o. . . . .| | | |  . . . . . . . . . . . . . . . . . . . . . . . . .o. . . . .",
"l  . .,. . . . . .O. . .O.O. . .| O.| |  .}  . . . . .|  . . . . . . . . . . . . . . . . . . . . . .",
"l  . . . . . . . . . .O. . . .O.| O. .}  . . . .}  .|  . . . . . . . . . . . . . . . . . . . . . . .",
"J x  . . . . . . . .|  . . . .| |  . . . .}  .|  . . . . . .o. . . . . . .o. . . . . . . . . . . . .",
"l  . . . . . .,. .O. . . . . . .O.O. . . . . . .|  . . . . .|  . . . . . . . . . . . . . . . . . . .",
"z  . . . . . . . . . .|  . . . .O.|  . . . . .|  .| |  . . . . . . . . . . . . . . . . . . . . . . .",
" .|  . . . . . .o.o.O. . . . . .O. . . . . . . . . .|  . . . . . . . . . .o. . . . . . . . . . . . .",
" . . . .o. . . . .o.o.O. . .o.|  . . . . . . . . . .| |  . . . . . . .|  . .O.O. . . .O. . . .o. . .",
" . . . . . . .| | | | | | |  .O. . .}  . . . .}  .|  . . . . . .|  . . . .O. . . .o. .O. .}  . . . .",
" . . . . . . . .| o.|  . . . . . . . .} |  .|  . .|  . . . .|  .|  . . . .}  . . . . . . .}  . . . .",
" . . . . . . . .| | | | |  .|  . . . . . . . . . .| |  . . . .|  .o. .O. .o. . . . .O.o. . . . . .} ",
" . . . . .|  .| | |  . . . . . . . . . . . . . . .|  .|  . .| | |  . . . . . . . . .O. . . . . . . .",
" . . . . . . . . .o. . . . . .|  . . . . . . . . .| | | |  . . . .| O.| O. . . . . .O. . . . . . . .",
" . . . . . . .|  . .|  .|  .|  . . . . . . . . . . . .| |  . . . . . .|  .O.o. .o. . . . . . . . .} ",
" . . . . . .| | | |  .| o. . .|  . . . . . . . . .|  . .| | | |  .o.| |  . . .o.} o. . . . . . . . .",
" . . . . . . .o.|  . . . . . . . .|  . .|  . . . . . .| |  . . .| | O. . . .|  .|  . . . . .| o.} o.",
" . . . . .o. . . . .|  .} |  . . . .|  .|  . . . . . .|  . . .| | | | |  .| |  . . . .| | | | |  .o."
};
