/* XPM */
static char *result[] = {
/* columns rows colors chars-per-pixel */
"50 50 132 2 ",
"   c #0D7D04",
".  c #B65B0B",
"X  c #B85E0B",
"o  c #BB620B",
"O  c #BF680C",
"+  c #C1660B",
"@  c #C46C0C",
"#  c #C86E0B",
"$  c #C7710C",
"%  c #C9730D",
"&  c #CD7A0C",
"*  c #D27C0C",
"=  c #CA7511",
"-  c #0E8306",
";  c #0E8A06",
":  c #0E8F09",
">  c #0E9307",
",  c #0F940A",
"<  c #0F990C",
"1  c #119D10",
"2  c #189813",
"3  c #0CA207",
"4  c #0BAE09",
"5  c #08BB0A",
"6  c #0EAB12",
"7  c #11A311",
"8  c #11AC14",
"9  c #16AF19",
"0  c #0DB611",
"q  c #14B119",
"w  c #1AB21D",
"e  c #38A52C",
"r  c #22BA23",
"t  c #34BB32",
"y  c #7E930B",
"u  c #07C60B",
"i  c #0CC30A",
"p  c #0CD30B",
"a  c #0BDB0C",
"s  c #1BC417",
"d  c #0CE10C",
"f  c #0CEB0C",
"g  c #19EC17",
"h  c #1CEC1A",
"j  c #21EB1F",
"k  c #23C723",
"l  c #24D321",
"z  c #34C034",
"x  c #7EC435",
"c  c #7AC739",
"v  c #7DCB3E",
"b  c #4FBA43",
"n  c #43C741",
"m  c #42C841",
"M  c #55CC52",
"N  c #53D351",
"B  c #65CD5C",
"V  c #5CF358",
"C  c #68DE65",
"Z  c #7BD262",
"A  c #77DE6D",
"S  c #6AF566",
"D  c #74E770",
"F  c #79EB77",
"G  c #7BEE79",
"H  c #7FF57C",
"J  c #82A611",
"K  c #93BF32",
"L  c #D7830C",
"P  c #DA870C",
"I  c #DD8A0D",
"U  c #CF8211",
"Y  c #C68A17",
"T  c #D78B10",
"R  c #DA8D10",
"E  c #CA931A",
"W  c #DD9210",
"Q  c #E1930E",
"!  c #E29510",
"~  c #E59B11",
"^  c #E99F11",
"/  c #DAAF1C",
"(  c #E5A012",
")  c #ECA411",
"_  c #ECAA13",
"`  c #F1AC12",
"'  c #E9B51A",
"]  c #E2BE1F",
"[  c #EEBB19",
"{  c #F2B213",
"}  c #F0BD19",
"|  c #E0BD21",
" . c #85C633",
".. c #84CD37",
"X. c #85CD39",
"o. c #93C133",
"O. c #9BCE35",
"+. c #87D13B",
"@. c #8AD33E",
"#. c #9CD035",
"$. c #F3C41B",
"%. c #F6CD1F",
"&. c #F9D21F",
"*. c #E9CB22",
"=. c #ECD424",
"-. c #EFDB27",
";. c #F7D120",
":. c #F9D420",
">. c #FBDC23",
",. c #84C74E",
"<. c #84D246",
"1. c #87D54A",
"2. c #86EF7D",
"3. c #81F07F",
"4. c #0E69A3",
"5. c #678E89",
"6. c #6A928E",
"7. c #6C9590",
"8. c #7BA99B",
"9. c #1392C3",
"0. c #19B4DF",
"q. c #1CBCE6",
"w. c #21C0E7",
"e. c #33D2F1",
"r. c #4FE7EC",
"t. c #43E5FB",
"y. c #47EAFE",
"u. c #87F485",
"i. c #8FF585",
"p. c #8DFA8B",
"a. c #90F687",
"s. c #91FA8F",
/* pixels */
"X.X.....X.X.X.X.X.X.X.X...X.X.X.X...X.+.X.X...X.X...X.X.X. .+...X.X.X.X. ...X.X.X...X.X.X.X.X.X.X.X.",
"X...X.X.X.X...X.X.....X.....X.X.X.......X.....X.X.X.X.X.X.X...+.X.X.X.X.X.X.X.X.X.X...X.X.X.X.X.X.X.",
"..X.X.X.X.X.X.X.@.X...X.....+. ...+.......X.X.X.X.X.+.X.X.X...X.+.X.....X.X.X. .....+...X.X.+.X.X.X.",
"..X.X.X.X.X.X.....+.X.X.@...@.X.......+.X...+. . .X.X.X.X.+. .X.....+...X.X.X.X.........X.X.X.X.X.X.",
"X.X.X.X.X.X.X.@.X.X.X.X.X.@.+.+.X.......+.......X.X.X.X.X.X.X.X.X.X.X. .........+.....+...X.X.X.X.X.",
" ...X.X.X.X.X.@.X.X.X.X.X.X.X.X.X.X.....X.....X...X.X.X.X.X.X.X.X.X.X.X.+.+.........X...X.X.X.X.X.X.",
"+.X.X.X.X.X.+.@.X.X.X.X.X.X.@.X.+...X.X.X.X.X.....X.X.X.X.X.X.X.X.X.X.X.X.X...X.+.......X.X.X.X.X.X.",
"..X.X.X. .X.X.X.X.X.X.X...X.X.X.X.....X.X.X.X.X.X...X.+. ...X.X.X.X.X.X.X.X.X.........+.X.X.X.X.X.X.",
"X.X.X...X.X.@.X.+. .+.X.<.+. .X.X.X.X.X.X.X.X.+.X...X.X.X. .+.X.X...@...X....... .X.X.X.<.X.X.X.X.X.",
"X.X.X.X.X.X.@.X...X.@.@.X.X.@.X.X.X.X.X.X.X... .X.X.X. .X.X.X.X.X.X.X.+.X.X.@.X.+.X.X.X.X.X.X.X.X.X.",
"X.X...X.X.X.X.X.X...X.X.X.X.X.X.X.X.X.X.X.X.X.X.X.+...X.X.X.X...X.@.X.X.X.X...@.+.+.X.X.X.X.X.X.X.X.",
"X.+. .X.X.X.X.+.X.X.X.X.X.X.X.X.X.X.X.X.X.X.X.X...X...X.X.X.X.X.X.@.X.X.X.X...X. .+.X.X.X.X.X.X.X.X.",
"X.X.X.X.X.X.X.X...X.X.X.X.X.X.X.X.X.X.X.X.X.X.X.+. .X.X.X...X.X.+.@.X.X.X.X.X.X.<.X.@.X.X.X.X.X.X. .",
"X.X.X.X.X.X.X.X.X.X.X.X.X.X.X.X.X.X.X.X.X.X.X.X.X.X.X.X.X.X.X.X.......X.X.X.X.X.+.X.X.X.X.X.X.X.X.x ",
"X.X.X.X.X.X.X.X.X.X.X.X.X.X.X.X.X.X.X.X.X.X.+. ...X.X. ...+. .X.@...+.X.X.X.@.X.X.X.X.X.X.X.X.X.X.x ",
"X.X.X.X.X.X.X.X.+.X.X.X.X.X.X.X.X.X.X.X.X.X.X...X.X.X.X.......X.@.X.X.X.@.@.X.X.+.X.X.X.X.X.X.@.X.x ",
"X.X.X.X.X.X.X.X.X.X.X.X.X.X.X.X.X.+. .+.X.X.X.X.X.X.X. .X.X...X.X.X.X.X.X.X.+.X.X.X.X.X.X.X.X.X.X.x ",
"X.X.X.X.X.X.X.X.X.X.X.X.+.X.X.X.X.<.X.+.X.X...X.X.X.X.X.X.X.X.X.X.X.X.X.X.X.X.X.X.X.X.+.X.X.X.X.X. .",
"X.X.X.X.X.X.X.X.X.X.X.X.X.X.X.X.X.X.+.X.X.@.X.+.X.X.X...........X.X.X.X.X.X.X.<.X.X.X.X.X.X.X.X.X.x ",
"X.X.X.X.X.X.X.X.X.X.X.X.X.X.X.X.@.X.X.X.X.X.@.@.+.X.X.X.X...X.X.X.X.X.X.X.X.X.X.X.X.X.X.X.X.X.X.X.x ",
"X.X.X.X.X.X.X.X.X.X.X.X.X.X.X.+.@.X.X.X.X.X. .X.X.X.X.X.X.......X.X.X.X.X.X.X.X.X.X.X.X.X.X.X.X.X.x ",
"X.X.X.X.X.X.<.X.X.X.X.X.X.X.X.X.@.X.X.X.X.X.X.@.X.X.X.X.X.......X.X.X.X.X.X.X.X.X.X.X.X.X.X.X.X.X...",
"X.X.X.X.X.X.X.X.X.X.X.X.X.X.+. .X.+.X.X.X.X.X.X.X.X.X.X.X...+...X.X.X.X.X.X.X.X.X.X.X.X.X.X.X.X.X.X.",
"X.X.X.X.X.X.X.X.X.X.X.X.X.X.+.@.X.X.X.X.X.@.X.X.X.X.X.X.X.......X.X.X.X.X.X.X.X.X.X.X.X.X.X.X.X.X.X.",
"X.X.X.X.X.X.X.X.X.X.+.X.X.X.X.<.X.X.X.@.@.X.X.@.X.X...X...X.X...X.X.X.X.X.X.X.X.X.X.X.X.X.X.X.X.X.X.",
"X.X.X.X.X.X.X.X.X.X.X.X.X.X.X.X.X.X.X.X.X.@.X.X.X.X.X.X.X.X.X.X.X.X.X.X.X.X.X.X.X.X.X.X.X.X.X.X.X.X.",
"X.X.X.X.X.X.X.X.X.X.X.X.X.X.X.X.X.X.X.X.X.X.X.X.X.X.X...X.X.X.X.X.X.X.X.X.X.X.X.X.X.X.X.X.X.X.X.X.X.",
"@.X.X.X.X.X.X.X.X.X.X.X.X.X.X.X.X.X.X.X.X.X.X.X.X.X.X.X.X.X.X.X.X...+.X.X.X.X.X.X.X.X.X.X.X.X.X.X.X.",
"X.X.X.X.X.X.X.X.X.X.X.X.X.X.X.X.X.X.X.X.X.X.X.X.X.X.X.X.X.X.X.X.<.X.X...X.X.X.X.X.X.X.X.X.X.X.X.X.X.",
"X.X.X.X.X.1.X.X.X.X.X.X.X.X.X.X.X.X.X.X.X.X.X.X.X.X.X.X.X.X.X.X.X.+.X.+.@.X.+.X.X.X.X.<.X.X.X.X.X.X.",
"X.X.X.X.X.X.@.X.X.@.+.+.X.X.X.X.X.X.X.X.X.X.X.X.X.X.X.X.X.X.X.@.X.X.X.X.X.@.@.+.X.X.X.X.X.X.<.X.X.X.",
"X.X.X.X.@.X.X.X.X.X.@.+.<.X.X.X.X.X.X.X.X.X.X.X.X.X.X.X.X.X.X.@.X.X.X.X.X.X.X.X.X.X.X.X.X.X...X.X.X.",
"X.X.X.X.@.X.X.X.X.X.X.X.X.X.X.X.X.X.X.X.X.X.X.<.X.X.X.X.X.X.+.@.X.+.X.X.+.X.@.X.+.X.X.X.X.X.X.X.X.X.",
"X.X.X.@.@.X.X.X.X.X.X.O.X.@.X.X.X.X.X.X.X.X.X.X.X.X.X.X.X.X.X.X.+. .X.X. .+.X.X.X.X.X.X.X.X.X.X.X.X.",
"X.X.X.X.X.X.X.X.X.X.X.X.X.X.X.X.X.X.X.X.X.X.X.X.X.X.X.X.X.X.<.X.@.X.X.X.@.X.X.X.X.X.X.X.X.X.X.X.X.X.",
"X.X.X.@.X.@.X.X.X.<.X.X.X.X.X.X.X.X.X...X.X.X.X.X.X.X.X.+...<.X.X.X.@.@.X.+.<.X.X.+.X.X.X.X.X.X.X.X.",
"X.X.X.<.X.X.X.@.@.X.+.<.X.X.X.X.X.X.X...X.X.X.X.X.X.X.X.X.X.X.X.X.X.X.X.X.X.X.X.X.X.X.X.X.X.X.X.X.X.",
"X.X.X.X.X.X.X.X.X.+.X.X.X.X.X.X.X.X.<...X.X.X.X.X.X.X.X.X.X.X.X.X.X.X.X.X.X.X.X.X.X.X.X.X.X.X.X.X.X.",
"X.X.X.X.X.X.X.X.X.X.X.X.X.X.X.X.X.X.X.X.X.X.X.X.X.X.X.X.X.X.X.X.X.X.X.X.X.X.X.X.X.X.X.X.X.X.X.X.X.X.",
"X.X.X.X.X.X.X.X.X.+.X.X.X.X.X.X.X.X.X.X.X.X.X.X.X.X.X.X.X.X.X.X.X.X.X.X.X.X.X.X.X.X.X.X.X.X.X.X.X.X.",
"X.X...+.X.X.X.X.X.X.X.X.X.X.X.X...X.X.X.X.X.X.X.X.X.X.X.X.X.X.X.X.X.X.X.X.X.X.X.X.X.X.X.X.X.X.X.X.X.",
"X.....+.X.X.X...X.X.......X.X.X.....X.v ....X.X.X.X.X...v X.X.X.X...X.X...X...X.X.X. .X.X.X.X.X.X.X.",
"Z Z ,.o.O.O.#.#.O.O.K O.O.O.O.O.O.K O.#.O.O.O.O.o.o.O.O.O.#.O. .v 1.1.1.1.1.<.c 1.1.1.1.1.<.c <.1.1.",
"r.r.8.E =.-.-.-.-.| Y *.-.-.-.-.*.Y ] -.-.-.-.-.E / -.-.-.-.:.J b 3.i.i.i.i.B e 2.i.i.i.a.A e A u.a.",
"y.t.8.= _ :.>.>.>.' $ ~ %.>.>.>.$.= W $.>.>.>.:.U U $.>.>.>.>.J 2 N u.s.s.p.M 2 n G s.s.p.C 2 t F s.",
"t.e.7.$ I _ ;.:.%.~ @ I ( %.:.;._ # L ~ $.:.&.{ & * Q [ :.&.} J < w N 3.H V s , 9 m H 3.S l : 9 z D ",
"w.q.7.$ I I ^ { { ! @ P I ~ _ { ) @ P I Q _ { _ % * I Q _ { _ y < 8 w l j g i , 8 w k j h p > 8 q r ",
"q.q.6.$ I I I ) ` ! @ I I I ^ ` ) @ L I P ^ ` ) % * I P ! ) ` y < q 8 i d f i > 8 8 0 a f p : 8 8 6 ",
"9.0.6.# I & + & ) ! @ I L O $ ~ ) @ L L @ @ W ) & * P @ @ I ) y < 8 < ; 4 d i , 8 1 ; 3 a p > 8 7 ; ",
"4.9.5.+ % o . X & R + & o . X @ W @ & + X X O W $ & @ X . o T y , <     - 4 5 : 1 -     3 u : 1 -   "
};
