/* XPM */
static char *result[] = {
/* columns rows colors chars-per-pixel */
"50 50 195 2 ",
"   c black",
".  c #030100",
"X  c #0A0300",
"o  c #0C0400",
"O  c #0D0400",
"+  c #0E0400",
"@  c #0F0500",
"#  c #140700",
"$  c #150700",
"%  c #160700",
"&  c #180800",
"*  c #1A0900",
"=  c #1B0900",
"-  c #1C0900",
";  c #1B0C02",
":  c #1D1107",
">  c #1E190F",
",  c #1E1A11",
"<  c #1E1B11",
"1  c #220C00",
"2  c #321100",
"3  c #331200",
"4  c #391400",
"5  c #2A1F11",
"6  c #461800",
"7  c #471900",
"8  c #4B1A00",
"9  c #4D1B00",
"0  c #4E1B00",
"q  c #4F1B00",
"w  c #501C00",
"e  c #511C00",
"r  c #571E00",
"t  c #591F00",
"y  c #5A1F00",
"u  c #4F2307",
"i  c #5A2000",
"p  c #5C2000",
"a  c #5D2000",
"s  c #5D2100",
"d  c #512B0F",
"f  c #602200",
"g  c #622200",
"h  c #632300",
"j  c #642300",
"k  c #662300",
"l  c #632502",
"z  c #662400",
"x  c #672400",
"c  c #642602",
"v  c #682400",
"b  c #692500",
"n  c #6A2500",
"m  c #6C2600",
"M  c #6F2600",
"N  c #732700",
"B  c #722800",
"V  c #732800",
"C  c #762900",
"Z  c #772900",
"A  c #772A00",
"S  c #792A00",
"D  c #7A2B00",
"F  c #7D2A00",
"G  c #7F2B00",
"H  c #663411",
"J  c #6E3711",
"K  c #6F3711",
"L  c #793B11",
"P  c #7A3B11",
"I  c #7B3D13",
"U  c #7C3E13",
"Y  c #802D00",
"T  c #812D00",
"R  c #822D00",
"E  c #822E00",
"W  c #832E00",
"Q  c #9D3500",
"!  c #9C3600",
"~  c #9E3700",
"^  c #A13800",
"/  c #AC3B00",
"(  c #AD3B00",
")  c #AC3C00",
"_  c #AD3D00",
"`  c #AE3D00",
"'  c #B03C00",
"]  c #B03E00",
"[  c #B23E00",
"{  c #B43E00",
"}  c #B53E00",
"|  c #B53F00",
" . c #B63F00",
".. c #B73F00",
"X. c #874011",
"o. c #894011",
"O. c #904716",
"+. c #904816",
"@. c #9A4F1A",
"#. c #B64000",
"$. c #B74000",
"%. c #B84000",
"&. c #B84100",
"*. c #B94100",
"=. c #B67336",
"-. c #B87235",
";. c #BE7737",
":. c #C74500",
">. c #C74600",
",. c #C84600",
"<. c #C94600",
"1. c #C94700",
"2. c #CB4600",
"3. c #CA4700",
"4. c #CB4700",
"5. c #CD4700",
"6. c #CC4800",
"7. c #CD4800",
"8. c #CF4B02",
"9. c #D34A00",
"0. c #D44A00",
"q. c #D14C02",
"w. c #D14C03",
"e. c #DA5407",
"r. c #CF5911",
"t. c #CF5E16",
"y. c #C75F1B",
"u. c #D05911",
"i. c #D25F16",
"p. c #E44E00",
"a. c #E44F00",
"s. c #E54F00",
"d. c #E64F00",
"f. c #E55000",
"g. c #E65000",
"h. c #E75000",
"j. c #E65100",
"k. c #E75100",
"l. c #E75200",
"z. c #E85100",
"x. c #E95100",
"c. c #EA5100",
"v. c #E95200",
"b. c #EA5200",
"n. c #EB5200",
"m. c #EB5300",
"M. c #E9600F",
"N. c #EB6311",
"B. c #EE6311",
"V. c #EE6411",
"C. c #EA6B1A",
"Z. c #EB6B1A",
"A. c #EA6B1B",
"S. c #EB6C1B",
"D. c #EC6C1A",
"F. c #ED6D1B",
"G. c #D37C35",
"H. c #D67C35",
"J. c #D2833E",
"K. c #D2843E",
"L. c #D5853E",
"P. c #D6853E",
"I. c #D6863F",
"U. c #D98138",
"Y. c #EA8637",
"T. c #E48A3E",
"R. c #EE8938",
"E. c #EE8D3E",
"W. c #F08938",
"Q. c #F28A38",
"!. c #F18C3B",
"~. c #F08C3C",
"^. c #F18D3C",
"/. c #F28F3E",
"(. c #D58F49",
"). c #D59049",
"_. c #D89149",
"`. c #D79750",
"'. c #DA9750",
"]. c #EF9445",
"[. c #EF9546",
"{. c #F39746",
"}. c #F49746",
"|. c #F39847",
" X c #F69B49",
".X c #EE9F50",
"XX c #F6A352",
"oX c #F6A453",
"OX c #E3AF66",
"+X c #F0B164",
"@X c #F3B566",
"#X c #F9B261",
"$X c #FAB867",
"%X c #FDBD6B",
"&X c None",
/* pixels */
"&X&X&X&X&X&X&X&X&X&X{.XX&X&X&X&X&X#X{.|.{.XX&X&X&X&X&X#X{.|.{.XX&X&X&X&X&X#X{.|.&X&X&X&X&X&X&X&X&X&X",
"&X&X&X&X&X&X&X&X&X&Xs.Z.&X&X&X&X&X^.f.j.f.S.&X&X&X&X&X^.f.j.f.S.&X&X&X&X&X^.f.j.&X&X&X&X&X&X&X&X&X&X",
"&X&X&X&X&X&X&X&X&X&Xs.Z.&X&X&X&X&X!.s.g.s.Z.&X&X&X&X&X!.s.g.s.Z.&X&X&X&X&X!.s.g.&X&X&X&X&X&X&X&X&X&X",
"&X&X&X&X&X&X&X&X&X&Xp.C.&X&X&X&X&X~.a.f.a.C.&X&X&X&X&X~.a.f.a.C.&X&X&X&X&X~.a.f.&X&X&X&X&X&X&X&X&X&X",
"&X&X&X&X&X&X&X&X&X&XN O.+X$XOX@X%X=.N x M +.+X$XOX@X%X=.N x M +.+X$XOX@X%X=.N k &X&X&X&X&X&X&X&X&X&X",
"&X&X&X&X&X&X&X&X&X&X,.8.M.N.o.u.B.e.>.z ) w.M.N.o.u.B.e.>.z ) w.M.N.o.u.B.e.>.t &X&X&X&X&X&X&X&X&X&X",
"&X&X&X&X&X&X&X&X&X&X$.$...{ p ! ..$.#.s ~ *...{ p ! ..$.#.s ~ *...{ p ! ..$.#.e &X&X&X&X&X&X&X&X&X&X",
"&X&X&X&X&X&X&X&X&X&XW b q R D Y b q R D Y b q R D Y b q R D Y b q R D Y b q R S &X&X&X&X&X&X&X&X&X&X",
"&X&X&X&X&X&X&X&X&X&Xb.#.T v.z.m.$.E n.v.b.#.T v.z.b.#.T v.z.m.$.E n.v.b.#.T v.z.&X&X&X&X&X&X&X&X&X&X",
"&X&X&X&X&X&X&X&X&X&XC g 0 C j y 6 2 y a V g 0 C x B g 0 C j y 6 2 y a V g 0 C k &X&X&X&X&X&X&X&X&X&X",
"&X&X&X&X&X&X&X&X&X&X<.1.3.<.0         & ] 4.3.>.z _ 4.3.<.0         & ] 4.3.>.t &X&X&X&X&X&X&X&X&X&X",
"&X&X&X&X&X&X&X&X&X&X$.%.&.$.7         % ^ *.&.#.s ~ *.&.$.7         % ^ *.&.#.e &X&X&X&X&X&X&X&X&X&X",
"&X&X&X&X&X&X&X&X&X&XW b q W n O       @ V n q R D Y b q W n O       @ V n q R S &X&X&X&X&X&X&X&X&X&X",
"&X&X&X&X&X&X&X&X&X&Xb.#.T n.6.-       = 7.%.T v.z.b.#.T n.6.-       = 7.%.T v.z.&X&X&X&X&X&X&X&X&X&X",
"&X&X&X&X&X&X&X&X&X&XC g 0 Z t X       + v h 0 C x B g 0 Z t X       + v h 0 C k &X&X&X&X&X&X&X&X&X&X",
"&X&X&X&X&X&X&X&X&X&X<.1.3.<.0         & ] 4.3.>.z _ 4.3.<.0         & ] 4.3.>.t &X&X&X&X&X&X&X&X&X&X",
"&X&X&X&X&X&X&X&X&X&X$.%.&.$.7         % ^ *.&.#.s ~ *.&.$.7         % ^ *.&.#.e &X&X&X&X&X&X&X&X&X&X",
"&X&X&X&X&X&X&X&X&X&XW b q W n O       @ V n q R D Y b q W n O       @ V n q R S &X&X&X&X&X&X&X&X&X&X",
"&X&X&X&X&X&X&X&X&X&Xc. .T n.6.-       = 5.%.T v.z.b.#.T c.2.=       = 7.%.T x.h.&X&X&X&X&X&X&X&X&X&X",
"&X&X&X&X&X&X&X&X&X&XU H u C a 1 ; > < 5 K H u C x B l d P J 5 , : * & x c d L I &X&X&X&X&X&X&X&X&X&X",
"{.XX&X&X&X&X&X#X}.[.L.(.G.:.x ' i.'.P.P.J.).G.:.z ( t.`.K.K.L._.H.2.v / t.`.K.I.].oX&X&X&X&X&X#X{.|.",
"s.Z.&X&X&X&X&X^.f.j.h.F.U.} s Q y.R.k.l.h.F.U.} s Q y.R.k.l.h.F.U.} s Q y.R.k.l.g.S.&X&X&X&X&X^.f.j.",
"s.Z.&X&X&X&X&X!.s.g.s.D.;.G D F @.Y.d.g.s.D.;.G D F @.Y.d.g.s.D.;.G D F @.Y.d.g.s.Z.&X&X&X&X&X!.s.g.",
"p.C.&X&X&X&X&X~.a.f.a.A.Q.z.v.z.F.W.a.f.a.A.Q.z.v.z.F.W.a.f.a.A.Q.z.v.z.F.W.a.f.a.C.&X&X&X&X&X~.a.f.",
"N O.+X$XOX@X%X=.N x M O..X/.T.E. X-.N x M O..X/.T.E. X-.N x M O..X/.T.E. X-.N x M +.+X$XOX@X%X=.N k ",
",.8.M.N.o.u.B.e.>.z ) q.M.N.X.r.V.e.>.z ) q.M.N.X.r.V.e.>.z ) q.M.N.X.r.V.e.>.z ) w.M.N.o.u.B.e.>.t ",
"$.$...{ p ! ..$.#.s ~ *...{ p ! ..$.#.s ~ *...{ p ! ..$.#.s ~ *...{ p ! ..$.#.s ~ *...{ p ! ..$.#.e ",
"W b q R D Y b q R D Y b q R D Y b q R D Y b q R D Y b q R D Y b q R D Y b q R D Y b q R D Y b q R S ",
"b.#.T v.z.b.#.T v.z.b.#.T v.z.b.#.T v.z.b.#.R b.v.m.$.R v.z.b.#.T v.z.b.#.T v.z.b.#.T v.z.b.#.T v.z.",
"C g 0 C x B g 0 C x B g 0 C x B g 0 C x B h w f t y 9 w A x B g 0 C x B g 0 C x B g 0 C x B g 0 C k ",
"<.1.3.>.z _ 4.3.>.z _ 4.3.>.z _ 4.3.>.z ` | m #     $ m [ x _ 4.3.>.z _ 4.3.>.z _ 4.3.>.z _ 4.3.>.t ",
"$.%.&.#.s ~ *.&.#.s ~ *.&.#.s ~ *.&.#.s ~ y .         . r a ~ *.&.#.s ~ *.&.#.s ~ *.&.#.s ~ *.&.#.e ",
"W b q R D Y b q R D Y b q R D Y b q E D 8 .             . 6 Y b q R D Y b q R D Y b q R D Y b q R S ",
"b.#.T v.z.b.#.T v.z.b.#.T v.z.b.#.T b.9.3                 3 0.$.T v.z.b.#.T v.z.b.#.T v.z.b.#.T v.z.",
"C g 0 C x B g 0 C x B g 0 C x B g 0 Z t X                 + v h 0 C x B g 0 C x B g 0 C x B g 0 C k ",
"<.1.3.>.z _ 4.3.>.z _ 4.3.>.z _ 4.3.<.0                   & ] 4.3.>.z _ 4.3.>.z _ 4.3.>.z _ 4.3.>.t ",
"$.%.&.#.s ~ *.&.#.s ~ *.&.#.s ~ *.&.$.7                   % ^ *.&.#.s ~ *.&.#.s ~ *.&.#.s ~ *.&.#.e ",
"W b q R D Y b q R D Y b q R D Y b q W n O                 @ V n q R D Y b q R D Y b q R D Y b q R S ",
"b.#.T v.z.b.#.T v.z.b.#.T v.z.b.#.T n.6.-                 = 7.%.T v.z.b.#.T v.z.b.#.T v.z.b.#.T v.z.",
"C g 0 C x B g 0 C x B g 0 C x B g 0 Z t X                 + v h 0 C x B g 0 C x B g 0 C x B g 0 C k ",
"<.1.3.>.z _ 4.3.>.z _ 4.3.>.z _ 4.3.<.0                   & ] 4.3.>.z _ 4.3.>.z _ 4.3.>.z _ 4.3.>.t ",
"$.%.&.#.s ~ *.&.#.s ~ *.&.#.s ~ *.&.$.7                   % ^ *.&.#.s ~ *.&.#.s ~ *.&.#.s ~ *.&.#.e ",
"W b q R D Y b q R D Y b q R D Y b q W n O                 @ V n q R D Y b q R D Y b q R D Y b q R S ",
"b.#.T v.z.b.#.T v.z.b.#.T v.z.b.#.T n.6.-                 = 7.%.T v.z.b.#.T v.z.b.#.T v.z.b.#.T v.z.",
"C g 0 C x B g 0 C x B g 0 C x B g 0 Z t X                 + v h 0 C x B g 0 C x B g 0 C x B g 0 C k ",
"<.1.3.>.z _ 4.3.>.z _ 4.3.>.z _ 4.3.<.0                   & ] 4.3.>.z _ 4.3.>.z _ 4.3.>.z _ 4.3.>.t ",
"$.%.&.#.s ~ *.&.#.s ~ *.&.#.s ~ *.&.$.7                   % ^ *.&.#.s ~ *.&.#.s ~ *.&.#.s ~ *.&.#.e ",
"W b q R D Y b q R D Y b q R D Y b q W n O                 @ V n q R D Y b q R D Y b q R D Y b q R S ",
"b.#.T v.k.v.#.T v.k.v.#.T v.k.v.#.T n.4.=                 = 7.%.T v.k.v.#.T v.k.v.#.T v.k.v.#.T v.k.",
"x w 4 x k x w 4 x k x w 4 x k x w 4 x t o                 o i e 4 x k x w 4 x k x w 4 x k x w 4 x k "
};
