/* XPM */
static char *result[] = {
/* columns rows colors chars-per-pixel */
"50 50 190 2 ",
"   c black",
".  c #030000",
"X  c #050000",
"o  c #060000",
"O  c #060100",
"+  c #0E0100",
"@  c #110200",
"#  c #130200",
"$  c #140200",
"%  c #150200",
"&  c #140400",
"*  c #1C0400",
"=  c #170901",
"-  c #181206",
";  c #181309",
":  c #181409",
">  c #2E0900",
",  c #360C00",
"<  c #251909",
"1  c #441100",
"2  c #451200",
"3  c #4D1400",
"4  c #4E1400",
"5  c #4F1500",
"6  c #4E1E01",
"7  c #501500",
"8  c #501600",
"9  c #581900",
"0  c #591900",
"q  c #5A1900",
"w  c #5A1A00",
"e  c #5C1A00",
"r  c #5D1A00",
"t  c #5D1B00",
"y  c #621C00",
"u  c #631E00",
"i  c #641E00",
"p  c #661E00",
"a  c #661F00",
"s  c #671F00",
"d  c #681F00",
"f  c #502706",
"g  c #632000",
"h  c #642100",
"j  c #692000",
"k  c #6A2000",
"l  c #6F2100",
"z  c #732300",
"x  c #742200",
"c  c #742300",
"v  c #772400",
"b  c #782400",
"n  c #7A2500",
"m  c #7A2600",
"M  c #7B2700",
"N  c #7E2500",
"B  c #663109",
"V  c #6E3409",
"C  c #6F3409",
"Z  c #7A3809",
"A  c #7B3809",
"S  c #7C3A0B",
"D  c #7D3C0B",
"F  c #802700",
"G  c #812900",
"H  c #822900",
"J  c #832900",
"K  c #832A00",
"L  c #842900",
"P  c #842A00",
"I  c #883E09",
"U  c #8A3E09",
"Y  c #9D3300",
"T  c #9E3200",
"R  c #9F3400",
"E  c #A23500",
"W  c #AD3800",
"Q  c #AD3900",
"!  c #AE3800",
"~  c #AE3A00",
"^  c #B13900",
"/  c #B13C00",
"(  c #B53C00",
")  c #B63C00",
"_  c #B73D00",
"`  c #B73E00",
"'  c #B83D00",
"]  c #B83E00",
"[  c #B93E00",
"{  c #B93F00",
"}  c #BA3F00",
"|  c #91450E",
" . c #91460E",
".. c #9B4E13",
"X. c #B77433",
"o. c #B97332",
"O. c #BF7834",
"+. c #C84300",
"@. c #C94300",
"#. c #CB4300",
"$. c #C84400",
"%. c #C94400",
"&. c #CA4400",
"*. c #CA4500",
"=. c #CB4500",
"-. c #CC4400",
";. c #CC4500",
":. c #CE4500",
">. c #CD4600",
",. c #CE4600",
"<. c #D04A00",
"1. c #D24B00",
"2. c #D44900",
"3. c #D54900",
"4. c #DB5301",
"5. c #D05809",
"6. c #D15809",
"7. c #D05E0E",
"8. c #D35F0E",
"9. c #C85F14",
"0. c #E54D00",
"q. c #E64D00",
"w. c #E54E00",
"e. c #E64E00",
"r. c #E74E00",
"t. c #E64F00",
"y. c #E74F00",
"u. c #E84F00",
"i. c #E75000",
"p. c #E85000",
"a. c #E95000",
"s. c #E85100",
"d. c #EA5000",
"f. c #EB5000",
"g. c #EA5100",
"h. c #EB5100",
"j. c #EC5100",
"k. c #EC5200",
"l. c #EA6007",
"z. c #EC6309",
"x. c #EE6309",
"c. c #EE6409",
"v. c #EB6B13",
"b. c #EC6B13",
"n. c #ED6C13",
"m. c #EB6B14",
"M. c #EC6C14",
"N. c #ED6D14",
"B. c #D47D32",
"V. c #D77D32",
"C. c #DA8235",
"Z. c #D3843C",
"A. c #D3853C",
"S. c #D6863C",
"D. c #D7863C",
"F. c #D7873D",
"G. c #EB8734",
"H. c #EE8A35",
"J. c #E58B3C",
"K. c #EE8E3C",
"L. c #F08A35",
"P. c #F28B35",
"I. c #F18D37",
"U. c #F08D3A",
"Y. c #F18E3A",
"T. c #F2903C",
"R. c #D69047",
"E. c #D69147",
"W. c #D99247",
"Q. c #D8984F",
"!. c #DB984F",
"~. c #EF9542",
"^. c #EF9743",
"/. c #F29943",
"(. c #F49943",
"). c #F39844",
"_. c #F39945",
"`. c #F29A44",
"'. c #F69C47",
"]. c #EEA04F",
"[. c #F6A451",
"{. c #F6A552",
"}. c #E3B066",
"|. c #F0B264",
" X c #F3B667",
".X c #F9B361",
"XX c #F9B461",
"oX c #FAB967",
"OX c #FEBF6A",
"+X c None",
/* pixels */
"+X+X+X+X+X+X+X+X+X+X/.[.+X+X+X+X+X.X)._.).[.+X+X+X+X+X.X)._.).[.+X+X+X+X+X.X).`.+X+X+X+X+X+X+X+X+X+X",
"+X+X+X+X+X+X+X+X+X+Xq.b.+X+X+X+X+XY.t.i.t.M.+X+X+X+X+XY.t.i.t.M.+X+X+X+X+XY.t.i.+X+X+X+X+X+X+X+X+X+X",
"+X+X+X+X+X+X+X+X+X+Xq.b.+X+X+X+X+XI.e.y.e.b.+X+X+X+X+XI.e.y.e.b.+X+X+X+X+XI.e.y.+X+X+X+X+X+X+X+X+X+X",
"+X+X+X+X+X+X+X+X+X+X0.v.+X+X+X+X+XU.w.t.w.v.+X+X+X+X+XU.w.t.w.v.+X+X+X+X+XU.w.t.+X+X+X+X+X+X+X+X+X+X",
"+X+X+X+X+X+X+X+X+X+Xx | |.oX}. XOXX.x s l  .|.oX}. XOXX.x s l  .|.oX}. XOXX.x p +X+X+X+X+X+X+X+X+X+X",
"+X+X+X+X+X+X+X+X+X+X@.<.l.z.U 6.x.4.$.a Q 1.l.z.U 6.x.4.$.a Q 1.l.z.U 6.x.4.$.0 +X+X+X+X+X+X+X+X+X+X",
"+X+X+X+X+X+X+X+X+X+X' ] ' ( e Y ' ] ` t R } ' ( e Y ' ] ` t R } ' ( e Y ' ] ` 8 +X+X+X+X+X+X+X+X+X+X",
"+X+X+X+X+X+X+X+X+X+XL j 4 J M G j 4 J M G j 4 J M G j 4 J M G j 4 J M G j 4 J m +X+X+X+X+X+X+X+X+X+X",
"+X+X+X+X+X+X+X+X+X+Xh.` H g.a.k.] K j.g.h.` H g.a.h.` H g.a.k.] K j.g.h.` H g.a.+X+X+X+X+X+X+X+X+X+X",
"+X+X+X+X+X+X+X+X+X+Xb y 3 v i q 1 > q r c y 3 v s z y 3 v i q 1 > q r c y 3 v p +X+X+X+X+X+X+X+X+X+X",
"+X+X+X+X+X+X+X+X+X+X#.*.=.&.3         @ / ;.=.$.a ~ ;.=.&.3         @ / ;.=.$.0 +X+X+X+X+X+X+X+X+X+X",
"+X+X+X+X+X+X+X+X+X+X' [ { ] 2         + E } { ` t R } { ] 2         + E } { ` 8 +X+X+X+X+X+X+X+X+X+X",
"+X+X+X+X+X+X+X+X+X+XL j 4 P k X       O c k 4 J M G j 4 P k X       O c k 4 J m +X+X+X+X+X+X+X+X+X+X",
"+X+X+X+X+X+X+X+X+X+Xh.` H j.>.%       $ ,.[ H g.a.h.` H j.>.%       $ ,.[ H g.a.+X+X+X+X+X+X+X+X+X+X",
"+X+X+X+X+X+X+X+X+X+Xb y 3 b 9 .       o d u 3 v s z y 3 b 9 .       o d u 3 v p +X+X+X+X+X+X+X+X+X+X",
"+X+X+X+X+X+X+X+X+X+X#.*.=.&.3         @ / ;.=.$.a ~ ;.=.&.3         @ / ;.=.$.0 +X+X+X+X+X+X+X+X+X+X",
"+X+X+X+X+X+X+X+X+X+X' [ { ] 2         + E } { ` t R } { ] 2         + E } { ` 8 +X+X+X+X+X+X+X+X+X+X",
"+X+X+X+X+X+X+X+X+X+XL j 4 P k X       O c k 4 J M G j 4 P k X       O c k 4 J m +X+X+X+X+X+X+X+X+X+X",
"+X+X+X+X+X+X+X+X+X+Xf._ H j.>.%       $ :.[ H g.a.h.` H f.-.$       $ ,.[ H d.u.+X+X+X+X+X+X+X+X+X+X",
"+X+X+X+X+X+X+X+X+X+XD B 6 v r * & - : < C B 6 v s z g f A V < ; = # @ s h f Z S +X+X+X+X+X+X+X+X+X+X",
"/.[.+X+X+X+X+XXX(.^.S.R.B.+.s ^ 8.!.D.D.Z.E.B.+.a ! 7.Q.A.A.S.W.V.-.d W 7.Q.A.F.~.{.+X+X+X+X+XXX).`.",
"e.b.+X+X+X+X+XY.t.i.u.N.C.) t T 9.H.p.s.u.N.C.) t T 9.H.p.s.u.N.C.) t T 9.H.p.s.y.M.+X+X+X+X+XY.t.i.",
"e.b.+X+X+X+X+XI.e.y.e.n.O.F M N ..G.r.y.e.n.O.F M N ..G.r.y.e.n.O.F M N ..G.r.y.e.b.+X+X+X+X+XI.e.y.",
"0.v.+X+X+X+X+XU.w.t.w.m.P.a.g.a.N.L.w.t.w.m.P.a.g.a.N.L.w.t.w.m.P.a.g.a.N.L.w.t.w.v.+X+X+X+X+XU.w.t.",
"x | |.oX}. XOXX.x s l | ].T.J.K.'.o.x s l | ].T.J.K.'.o.x s l | ].T.J.K.'.o.x s l  .|.oX}. XOXX.x p ",
"%.<.l.z.U 6.x.4.$.a Q 1.l.z.I 5.c.4.$.a Q 1.l.z.I 5.c.4.$.a Q 1.l.z.I 5.c.4.$.a Q 1.l.z.U 6.x.4.$.9 ",
"] ] ' ( e Y ' ] ` t R } ' ( e Y ' ] ` t R } ' ( e Y ' ] ` t R } ' ( e Y ' ] ` t R } ' ( e Y ' ] ` 7 ",
"P j 4 J M G j 4 J M G j 4 J M G j 4 J M G j 4 J M G j 4 J M G j 4 J M G j 4 J M G j 4 J M G j 4 J n ",
"h.` H g.a.h.` H g.a.h.` H g.a.h.` H g.a.h.` J h.g.k.] J g.a.h.` H g.a.h.` H g.a.h.` H g.a.h.` H g.a.",
"v y 3 v s z y 3 v s z y 3 v s z y 3 v s G j 4 J M G j 4 P k z y 3 v s z y 3 v s z y 3 v s z y 3 v p ",
"&.*.=.$.a ~ ;.=.$.a ~ ;.=.$.a ~ ;.=.$.a h.` H g.a.h.` H j.>.~ ;.=.$.a ~ ;.=.$.a ~ ;.=.$.a ~ ;.=.$.9 ",
"] [ { ` t R } { ` t R } { ` t R } { ` t z y 3 v s z y 3 b 9 R } { ` t R } { ` t R } { ` t R } { ` 7 ",
"P j 4 J M G j 4 J M G j 4 J M G j 4 K M ~ ;.=.$.a ~ ;.=.&.3 G j 4 J M G j 4 J M G j 4 J M G j 4 J n ",
"h.` H g.a.h.` H g.a.h.` H g.a.h.` H h.2.R } { ` t R } { ] 2 3.] H g.a.h.` H g.a.h.` H g.a.h.` H g.a.",
"v y 3 v s z y 3 v s z y 3 v s z y 3 b 9 G j 4 J M G j 4 P k d u 3 v s z y 3 v s z y 3 v s z y 3 v p ",
"&.*.=.$.a ~ ;.=.$.a ~ ;.=.$.a ~ ;.=.&.3 g.` H g.p.g.` H j.;./ ;.=.$.a ~ ;.=.$.a ~ ;.=.$.a ~ ;.=.$.9 ",
"] [ { ` t R } { ` t R } { ` t R } { ] 2 s 5 , s p s 5 , s 9 E } { ` t R } { ` t R } { ` t R } { ` 7 ",
"P j 4 J M G j 4 J M G j 4 J M G j 4 P k ~ ;.=.$.a ~ ;.=.&.3 c k 4 J M G j 4 J M G j 4 J M G j 4 J n ",
"h.` H g.a.h.` H g.a.h.` H g.a.h.` H j.>.R } { ` t R } { ] 2 ,.[ H g.a.h.` H g.a.h.` H g.a.h.` H g.a.",
"v y 3 v s z y 3 v s z y 3 v s z y 3 b 9 G j 4 J M G j 4 P k d u 3 v s z y 3 v s z y 3 v s z y 3 v p ",
"&.*.=.$.a ~ ;.=.$.a ~ ;.=.$.a ~ ;.=.&.3 g.` H g.p.g.` H j.;./ ;.=.$.a ~ ;.=.$.a ~ ;.=.$.a ~ ;.=.$.9 ",
"] [ { ` t R } { ` t R } { ` t R } { ] 2 s 5 , s p s 5 , s 9 E } { ` t R } { ` t R } { ` t R } { ` 7 ",
"P j 4 J M G j 4 J M G j 4 J M G j 4 P k G j 4 J M G j 4 P k c k 4 J M G j 4 J M G j 4 J M G j 4 J n ",
"h.` H g.a.h.` H g.a.h.` H g.a.h.` H j.>.h.` H g.a.h.` H j.>.,.[ H g.a.h.` H g.a.h.` H g.a.h.` H g.a.",
"v y 3 v s z y 3 v s z y 3 v s z y 3 b 9 z y 3 v s z y 3 b 9 d u 3 v s z y 3 v s z y 3 v s z y 3 v p ",
"&.*.=.$.a ~ ;.=.$.a ~ ;.=.$.a ~ ;.=.&.3 ~ ;.=.$.a ~ ;.=.&.3 / ;.=.$.a ~ ;.=.$.a ~ ;.=.$.a ~ ;.=.$.9 ",
"] [ { ` t R } { ` t R } { ` t R } { ] 2 R } { ` t R } { ] 2 E } { ` t R } { ` t R } { ` t R } { ` 7 ",
"P j 4 J M G j 4 J M G j 4 J M G j 4 P k G j 4 J M G j 4 P k c k 4 J M G j 4 J M G j 4 J M G j 4 J n ",
"h.` H g.p.g.` H g.p.g.` H g.p.g.` H j.;.g.` H g.p.g.` H j.;.,.[ H g.p.g.` H g.p.g.` H g.p.g.` H g.p.",
"s 5 , s p s 5 , s p s 5 , s p s 5 , s 9 s 5 , s p s 5 , s 9 w 7 , s p s 5 , s p s 5 , s p s 5 , s p "
};
