/* XPM */
static char *result[] = {
/* columns rows colors chars-per-pixel */
"50 50 114 2 ",
"   c #82C936",
".  c #84CB37",
"X  c #85CB37",
"o  c #83CD36",
"O  c #83CD37",
"+  c #83CE36",
"@  c #84CD36",
"#  c #84CC37",
"$  c #85CC37",
"%  c #84CD37",
"&  c #85CD37",
"*  c #84CE37",
"=  c #84CC38",
"-  c #85CC38",
";  c #84CD38",
":  c #85CD38",
">  c #84CC39",
",  c #85CC39",
"<  c #84CD39",
"1  c #85CD39",
"2  c #85CE39",
"3  c #85CF39",
"4  c #85CE3A",
"5  c #86CE3A",
"6  c #86CF3A",
"7  c #86CF3B",
"8  c #87CF3B",
"9  c #85D039",
"0  c #87D03B",
"q  c #87D03C",
"w  c #87D13C",
"e  c #87D13D",
"r  c #88D13C",
"t  c #88D13D",
"y  c #88D23D",
"u  c #89D23E",
"i  c #89D33E",
"p  c #89D33F",
"a  c #89D43F",
"s  c #8AD43F",
"d  c #8AD53F",
"f  c #8AD540",
"g  c #8BD540",
"h  c #8BD640",
"j  c #8BD641",
"k  c #8BD741",
"l  c #8CD741",
"z  c #8CD742",
"x  c #8CD842",
"c  c #8CD843",
"v  c #8DD943",
"b  c #8DDA44",
"n  c #8EDA44",
"m  c #8EDA45",
"M  c #8EDB45",
"N  c #8FDB45",
"B  c #8FDC46",
"V  c #8FDD46",
"C  c #8FDD47",
"Z  c #90DD47",
"A  c #90DE47",
"S  c #90DE48",
"D  c #91DE48",
"F  c #91DF48",
"G  c #91DF49",
"H  c #92DF49",
"J  c #92E049",
"K  c #92E04A",
"L  c #92E14A",
"P  c #93E14A",
"I  c #93E14B",
"U  c #93E24B",
"Y  c #94E34C",
"T  c #95E44D",
"R  c #95E54D",
"E  c #95E54E",
"W  c #96E54E",
"Q  c #96E64E",
"!  c #96E64F",
"~  c #96E74F",
"^  c #97E74F",
"/  c #97E750",
"(  c #97E850",
")  c #98E850",
"_  c #98E851",
"`  c #98E951",
"'  c #98E952",
"]  c #99E952",
"[  c #98EA52",
"{  c #99EA52",
"}  c #99EA53",
"|  c #99EB53",
" . c #9AEB53",
".. c #9AEB54",
"X. c #9AEC54",
"o. c #9BEC54",
"O. c #9BED55",
"+. c #9CEE56",
"@. c #9DEF56",
"#. c #9DEF57",
"$. c #9DF057",
"%. c #9DF058",
"&. c #9EF058",
"*. c #9EF158",
"=. c #9EF159",
"-. c #9EF259",
";. c #9FF259",
":. c #9FF25A",
">. c #9FF35A",
",. c #A0F35A",
"<. c #A0F45B",
"1. c #A1F55C",
"2. c #A1F65C",
"3. c #A2F65D",
/* pixels */
"1 1 1 1 1 1 1 1 1 1 1 1 1 1 1 1 1 1 1 1 1 1 1 1 1 1 1 1 1 1 1 1 1 1 1 , ; % # $ $ $ - - - - - - - # ",
"1 1 1 1 1 1 1 1 1 1 1 1 1 1 1 1 1 1 1 1 1 1 1 1 1 1 1 1 1 1 1 1 1 1 1 1 - # = - - - - - - - - - - - ",
"1 1 1 1 1 1 1 1 1 1 1 1 1 1 1 1 1 1 1 1 1 1 1 1 1 1 1 1 1 1 1 1 1 1 1 1 = = - - - - - - - - - ; # = ",
"1 1 1 1 1 1 1 1 1 1 1 1 1 1 1 1 1 1 1 1 1 1 1 1 1 1 1 1 1 1 1 1 1 1 1 : = = = = = = - - - - % * % # ",
": : 1 1 1 1 1 1 1 1 1 1 1 1 1 1 1 1 1 1 1 1 1 1 1 1 = - 1 1 1 1 1 1 1 : - - = # # & - - - % % % ; % ",
"; = ; : 1 1 - , 1 1 1 1 1 1 1 1 1 1 1 1 1 1 1 1 1 = = = = 1 1 1 1 1 1 1 1 : : = % $ - - # % % & : - ",
"% % ; ; : ; ; ; , 1 1 1 1 1 1 1 1 1 1 1 1 = = = = w m l 1 = 1 1 1 1 1 1 , , ; ; # = - - = # # - : - ",
"% ; ; % ; % % = ; - 1 1 1 1 1 1 1 1 1 1 = w b g r U <.+.x 1 = 1 1 1 1 , ; : % % = : - - = = # - : - ",
"- - ; = % * % # % ; , 1 1 1 1 1 1 1 1 = = G <.o.G ( { { P 5 = , , 1 : ; ; % % % - - - - # # $ - : - ",
"- - - - = % : - % ; ; , 1 1 1 : 1 1 : = 1  .,. .E M k 7 4 1 - : : : ; % = = # = - - - - # # # - : - ",
"- - - : - - : - % % ; - ; ; ; ; ; ; : > 1 T Y 7 m >.X.h 1 ; ; % % # # = - - - - $ - : - - # # - : - ",
"- - - - - - - - - % O % % # % = % # = 1 = y c i l  .o.U 5 = # # = = = = - = = - - - - - - # # - : - ",
"- - - - - - - - - = = = = = = = = = = 1 = Z ;.{ f q q 7 1 = = - - - - - - = # $ - = - - $ # # - : - ",
"- - - - - - - - - - - - = - - = - - - = 1 / 3.1./ 5 = = = - - - - - $ - - - - # # - # $ - # # % : - ",
"- - - - - - - - - - - - - - - - - - - < = b O.=.] 5 = = > - - - - $ $ - - - : = % % # $ - - # % - - ",
"$ - - - - $ - - - - - # # # $ = $ = = < ; i c K ^ f p t 1 = $ - - - - - 1 1 : ; # = = - - - # = - - ",
"- - - - $ $ - : - - - # % ; ; ; : ; ; ; : / =./ N X.*.^ 5 = - - 1 1 1 1 1 , ; % - - - - - - = = - - ",
"- - - - - $ - $ - - : - # % ; , 1 1 1 = 1 { :.( i B %.^ 5 = 1 1 1 1 1 1 , ; ; = - - - - - - = # - - ",
"- - - - - - - $ $ - - - - $ ; ; , 1 1 = 2 F f Z W i a y 1 = 1 1 1 1 1 1 , ; % - - # # # $ $ # % - 1 ",
"- - - - - - - - - - - - - - # ; ; 1 1 - - 0 = n >.E 4 = = 1 1 1 1 1 1 1 1 ; % - = O % % # % o # % # ",
"- - - - - - - - - : - - - - - # ; - 1 - = = = v -.) 5 = 1 1 1 1 1 1 1 1 1 = = - % @ # # = # = = = # ",
"- - - - - - - - - - = - - - - - - : 1 1 1 1 = 0 j i 1 = 1 1 1 1 1 1 1 1 - = = - # # % = - - - - - - ",
"= - - - - $ - - - = $ # # = = = - 1 1 1 1 1 1 = = = = 1 1 1 1 1 1 1 1 1 - - : = % % = - - : - - - - ",
". - - - - - - - - = = = # = = = : 1 1 1 1 1 1 1 1 1 1 1 1 1 1 1 1 1 1 1 : - - = = = - - $ - - - - - ",
"= - $ = = = = $ . # ; : : - ; = - 1 1 1 1 1 1 1 1 1 1 1 1 1 1 1 1 1 1 1 1 1 - = = - - $ - - - - - - ",
": - - = - # # - = = - : 1 1 - - - 1 1 1 1 1 1 1 1 1 1 1 1 1 1 1 1 1 1 1 1 , 1 = # = - - - - - - - - ",
"; = = ; : - - , 1 1 1 1 1 1 1 1 1 1 1 1 1 1 1 1 1 1 1 1 1 1 1 1 1 1 1 1 , ; ; # # % = - - - - - - - ",
"# = = - : 1 1 1 1 1 1 1 1 1 1 1 1 1 1 1 1 1 1 1 1 1 1 1 1 1 1 1 1 1 1 = = ; ; $ = % = - - - & - - - ",
"# : = = : 1 1 1 1 1 1 1 1 1 1 1 1 1 1 1 1 1 1 1 1 1 1 1 1 1 1 = = = = 1 1 1 - = : $ - - - $ $ - - - ",
"= - = = 1 1 1 1 = = = = 1 1 1 1 1 1 1 1 1 1 1 1 1 1 1 1 1 1 - 1 1 1 = i T L 7 = = - - - - - - - - - ",
"- - - - = = = = 1 i a 5 = 1 1 1 1 1 1 1 1 1 1 1 1 1 1 1 1 1 = i Y F s ~ 1.:.L 6 # - - - - - - : - & ",
"$ - - = 1 u i 5 h o.#.b 4 = 1 1 1 1 1 1 1 1 1 1 1 1 1 1 1 1 = L 1.-.T K J J B 5 = - - - - - - - $ $ ",
"$ - - = i o.+.N ~ @.$.' i = 1 1 1 1 1 1 1 1 1 1 1 1 1 1 1 1 = _ =.U I Y A 5 = : ; - - - - - - $ $ $ ",
"- - - = S 1.=.{ B x a y 5 = 1 1 1 1 1 1 1 1 1 1 1 1 1 1 1 1 = M Z 1 j ,.;.F 5 = # % - - - - - - - - ",
"- - - = Z +.c j } O.z 1 = 1 1 1 1 1 1 1 1 1 1 1 1 1 1 1 1 1 = y G N i P Y D 6 = = % - - - - - - : - ",
"- - - = q z t r  .;.[ i = 1 1 1 1 1 1 1 1 1 1 1 1 1 1 1 1 1 = G 1.*.V 5 1 1 1 1 = ; - - - - - $ - - ",
"- - $ = y `  .k a f s 5 = 1 1 1 1 1 1 1 1 1 1 1 1 1 1 1 1 1 = I 1.3.o.0 = = > - ; = - - - - - - $ - ",
"- - $ = B 1.2.X.u = = = 1 1 1 1 1 1 1 1 1 1 1 1 1 1 1 1 1 1 = i T { X.0 = = = - & : - - : : : - - - ",
"- - $ = f +.<.=.f = = = 1 1 1 1 1 1 1 1 1 1 1 1 1 1 1 1 1 1 = z Z J T Z B v 5 = = = - : & $ $ - - = ",
"- - - = 7 x C  .j 7 7 1 = 1 1 1 1 1 1 1 1 1 1 1 1 1 1 1 1 1 = ) 3...j _ 1.O.q = = = - $ $ - - - = X ",
"- - - . m  ._ Z !  ._ i = 1 1 1 1 1 1 1 1 1 1 1 1 1 1 1 1 1 1 W | Q x d / Y 7 = - % # - - - - - = X ",
"$ - - . H 3.&.j b $.=.g = 1 1 1 1 1 1 1 1 1 1 1 1 1 1 1 1 1 1 v q c X.v 7 4 1 , ; % # - - $ $ - - = ",
"$ - - . B G B T s z v 8 = 1 1 1 1 1 , , 1 1 , , : : : 1 1 : : 1 = z ,.X.0 = = : ; = = - - - - - - - ",
"- - - = t 6 e O.` y = = 1 1 1 1 1 , : : - , ; ; % % ; 1 , ; % ; = s { R 7 = < ; % = - - - - - - - - ",
"- - - - = = t +.;.f = 1 1 1 1 1 - ; % % % ; % * # % ; - - ; % % % : 9 3 : = = = # = $ $ - - - - - = ",
"1 - - - 1 = 5 n N 0 = 1 1 1 1 < ; + + + + + + % % % ; : : & % % # # # # # # # # $ $ $ $ $ - - $ $ = ",
"- - - - 1 1 = = = = 1 1 1 1 1 ; * @ # # # % % = - - - - - = - : $ - - - - - - - - - - - - - - $ $ # ",
"- - - - 1 1 > = = = 1 1 1 1 1 - # - - - $ $ - - $ $ $ $ $ $ $ - $ - : ; = - - - - - - - - - - - - = ",
"- - - 1 1 1 1 1 1 1 1 1 1 1 1 ; ; - - - - - - - - - - - - - - $ $ $ $ # # # # $ # # = - - - - - = > ",
"1 1 1 1 1 1 1 1 1 1 1 1 1 1 1 = # - 1 - - - - - - - - - - - - - - =   = - = = - = # = - $ $ - - = = "
};
