/* XPM */
static char *result[] = {
/* columns rows colors chars-per-pixel */
"50 50 104 2 ",
"   c #021E01",
".  c #022101",
"X  c #032D01",
"o  c #033401",
"O  c #063F02",
"+  c #163412",
"@  c #193417",
"#  c #143910",
"$  c #293228",
"%  c #2A3A29",
"&  c #313631",
"*  c #3F3E3F",
"=  c #064402",
"-  c #084403",
";  c #064C01",
":  c #114C0C",
">  c #065202",
",  c #095504",
"<  c #075A03",
"1  c #085B04",
"2  c #0E5509",
"3  c #1B4217",
"4  c #23561D",
"5  c #23581C",
"6  c #096503",
"7  c #066D03",
"8  c #0B6B04",
"9  c #14630D",
"0  c #067204",
"q  c #0A7504",
"w  c #077D05",
"e  c #097D05",
"r  c #1F6B1C",
"t  c #246414",
"y  c #25771F",
"u  c #227A1D",
"i  c #234421",
"p  c #324231",
"a  c #3E473E",
"s  c #3A4C39",
"d  c #345730",
"f  c #297523",
"g  c #366E32",
"h  c #367233",
"j  c #40463F",
"k  c #3F3F40",
"l  c #454545",
"z  c #4B4B4B",
"x  c #4E524E",
"c  c #4C5A4B",
"v  c #565656",
"b  c #5F5F5F",
"n  c #4C664A",
"m  c #5A605A",
"M  c #5F5F60",
"N  c #605F60",
"B  c #078305",
"V  c #0A8105",
"C  c #078A05",
"Z  c #0B8A05",
"A  c #10890C",
"S  c #0A9606",
"D  c #0B9B06",
"F  c #1F901A",
"G  c #21811E",
"H  c #21921E",
"J  c #07A206",
"K  c #0AA407",
"L  c #04AA07",
"P  c #0CAD07",
"I  c #08A509",
"U  c #0DAA0A",
"Y  c #04B407",
"T  c #09B007",
"R  c #05B509",
"E  c #0AB509",
"W  c #04BA09",
"Q  c #0BBD0A",
"!  c #13B511",
"~  c #2FB41C",
"^  c #47862D",
"/  c #62963F",
"(  c #62983F",
")  c #4DA231",
"_  c #04C10A",
"`  c #0BC00B",
"'  c #04CB0B",
"]  c #0BCE0B",
"[  c #11C50C",
"{  c #09D30B",
"}  c #09DE10",
"|  c #2AD71F",
" . c #09E110",
".. c #0EEE12",
"X. c #0FF112",
"o. c #28E21F",
"O. c #51DB36",
"+. c #52EC37",
"@. c #62A040",
"#. c #65B341",
"$. c #69CC44",
"%. c #66DC42",
"&. c #68DD44",
"*. c #68E444",
/* pixels */
"b b b b b b b b b b m b b b N b b b b b b b v b b b N b b v b b b b b b v b b b b b v b b b b b b b ",
"b b b b b b b b b b b N b b v b b b v b b b b b b b v b b b b b v b b b b b b b b b b b b b b b b b ",
"b b b b b b b b b N b b b b b b b b N N N b b b b b b b b b b v b b b b b b b b b N b M b M N N b b ",
"b b b b b b b b b b N b b b b b N b b N b b b b b b b b b b N N b b b b b b b b b b b b N N N m b b ",
"b b b b b b b b N b b b b b b b b b b b b b b b b b b b b b b b b b v b b b b b b b b N b b b b b b ",
"b b b b b b b b b b b b b N b b b b b b N b b b b b b b b b b N b b b b b b b b b N b b N b N b b b ",
"b b b b b b b b b b b b b N b b b b b b b b b b b b b b b b b b b b b b b b b b b b b b b b N b b b ",
"b b b b b b b b N b b b b b b b b b b b b b b b b b b b b b b b b b b b b b b b b b b N b b b b b b ",
"N b N b b b m N N b M b b b b b b b m m h g y y y y y f n n m m b b b b b b b b N N b b m b b b b b ",
"b b b b N b N N N b b N b b b b m b b m g h y y y y y y n n b m b M b b v b b b b N m N N b N M b b ",
"N m b N M b N m N N b m b b b b m g g u ! ! { ] ] ] ] ] F H f f n M b b M b b b b b M b N N N N b b ",
"N b b b N N N N b N N N b m v m h ! ! { U U w w 7 7 7 0 S S Q Q F n n M b M b M b N b b N N N N b b ",
"N N N b b b b b b b N b b b b b h ! ! ] P U w V 7 7 7 q C S Q Q H n n M b b N b b N b b b b b m b b ",
"M N N N b M b b b N b N b b h h ! T P V ; = . .   X o O > > 0 0 R G u c N b b b b b b b N N b N b b ",
"b b b N N N N N b N b b b h ! ! T < < .     .   o = - ; , > < < q I I r x z b M N N N b N N N b b b ",
"b N m N b m N N b b m m m u { { D o o       .   = ; ; ; 6 6 q q = L P e a a N N N N m b N m b M b b ",
"N b b N b b b b b b m m m u { { S o o       . . O ; = > 8 8 q q - T T q a a N b N b M b N N N b b b ",
"b b b b b b b b b b m m m u { { D o o           X - = ; 8 6 q q 6 Q ` e a l N b b b b N N N b b N b ",
"b b b b b b N b b b b v b t K D Q q 8 X           X X o - - 8 8 U E E , a a N b N N b m b m b M b b ",
"b N b b b b b m b N b b b 3 8 8 Q [ [ ) t t X X   . . - ^ ^ ~ ~ ' S D O a a N N b N N N b N b N m b ",
"b N b b b b b b b b b b v 3 8 7 W [ [ ) t t X X   . . - ^ ^ ~ ~ ' D S O j a N N b b b b b b N N N N ",
"b b b b b b b b b N b b b @ 6 6 L { { +.$.$.@.@./ ( / #.*.*.o.o._ Z Z - a j N N b N b b m N N N N N ",
"N N N b b b b b b b b b b p : : q L L ] O.O.&.&.&.&.&.%.| | Q _ C < < i v x N N m N N N N N N m b b ",
"N b b b b b b b b b b b b s : : 7 L L ] O.O.&.&.&.&.&.&.| | _ _ C 1 1 i x x N N N N M b N N b b b N ",
"N m N b N b N N b N b N N m @ @ = 7 7 S R R W W W W Q W K K B w , X X p b b N N b b b N N N N m N b ",
"N N N m b b m N b b b b b b @ @ 1 8 8 1 e w S D D D D Z 6 6 ; ; 6 O - $ z z v N N b N N b N N b N m ",
"b b b N b b N N b N N b b b @ @ 6 K K w 0 q D D U U U Z 7 7 V V e - O $ * * z v b b N N b M N b N N ",
"b N N N N b b N b b b b b v @ @ 6 K K w 0 q D D U U K V 7 7 V V e O O $ * * z b b b m b N b b b N N ",
"m N N N b m N N b b b b m b % % 2 J J Y W W } } ......' Y W R Y q + + & * * k x z N N N m N N M M b ",
"N N N m N N b N N b N b b m z l + B B Y W W  . .......' R R I L > $ $ j * * l b v m N N N b N N b b ",
"N N b N N m b N b b b b b b v b p 2 2 C Y Y  . .......' J J 7 7 # $ & * l l v N N b b b b b N N b b ",
"M N N N N N b b b N b b b b b b p 2 2 C Y R  . .X.....' D K 8 7 # & & * l l v N m b b M N N N m N b ",
"m N N N N N M b b b b m N N N b v p p 4 Z A Y Y _ Q Q K 9 9 + + $ l l z v v b b b b b N b b N b b N ",
"N N N m N N b N N m b b N N M b b b b v d d 5 5 5 5 5 4 s s l l l v v b b b b b b b b b b b m b b b ",
"N m N N b m b N N N M N N N b N b b b b d d 5 5 5 5 5 4 s s l l l v v b b b b b b b b b b b N N N b ",
"N M N N N b b N N N b b N N m b b b b N b b v b b b b b b b b b b b b b b N b N b b b b M N N N b b ",
"N N M m N N N N N N N m N b b b b b b N M N N m b b b b b b b b b b b b b b b b b b b b b b b b b b ",
"m M N N N N N m b N N N b b m N N b m N b N N b b b b b b b b b b b b b b b b N b b b v b b b b N b ",
"N N N N N b b b b m b b b b N N b M N N N b b N b b b b b b b b b b b b b b b N v b b b b b b b b b ",
"N N m N b M N b N N b M b N N N N N N m b b b b b b b b b b b b b b b b N b m N b b b b b b b b b b ",
"N N b N b N b b N N M b N b N b N b b N N N N N N N b N b b N N b N b b b b b b b b b b b b b b b v ",
"N N m b b b M N M N N N b b N m b b m N b N N N N N m b m N N N b b b N b b b b b b b b b b b b b b ",
"M b b b m N N N b N b N b b N N N M m N M N b N M b b b N N N m b N b b b b b b b b b b b b b b b b ",
"b N N N N N N N b b m N b N b N N N N b b b b m b N M N N N b b b b b b N b b b b b b b b b b b b b ",
"b b N m b N b m N m b b m N N N N N N b m b b b b b N m b b N b b b b b b b b b b b b b b b b b b b ",
"b b N N M N b b N b N M N N b M N N b b N b N N b b N N M N b b b N N b b b b b b b b b b b b b b b ",
"M b N N N N b b N N b b N N b N b m M b N N N N M b N N N N b b N b b b b b b b b b b b b b b b N b ",
"m b b N N m N b b N N N N m b b N b b b N N N N m b b N N m N b m b b b b b b b b b b b b b b b b b ",
"N N b N b N N N M b b N m N b b b N N M b b b m N b M N b m N b N N m N N N b M m N M b b b b b b b ",
"N N b N b m N N b b b b N N N N N m N N N b N N N N b b N N N N N N b N N N b b b N N b b b b b b b "
};
