/* XPM */
static char *result[] = {
/* columns rows colors chars-per-pixel */
"30 30 73 1 ",
"  c #372A00",
". c #372A01",
"X c #372B07",
"o c #3C2E00",
"O c #3D2F00",
"+ c #3C2F06",
"@ c #372B08",
"# c #3E3000",
"$ c #3E3001",
"% c #413300",
"& c #41340B",
"* c #6A5800",
"= c #6E5C00",
"- c #6E5D08",
"; c #6E633D",
": c #6A6041",
"> c #877200",
", c #887400",
"< c #877C51",
"1 c #9D8600",
"2 c #9E8800",
"3 c #C0A500",
"4 c #C0A600",
"5 c #C0A800",
"6 c #C1A800",
"7 c #C1AA00",
"8 c #C9AD00",
"9 c #C9AF00",
"0 c #CBB100",
"q c #CBB200",
"w c #D1B600",
"e c #D1B700",
"r c #D2B700",
"t c #D3B900",
"y c #D2B801",
"u c #DEB800",
"i c #C0A91C",
"p c #DEBA15",
"a c #E2B800",
"s c #EDBC00",
"d c #EEBC00",
"f c #EEBD00",
"g c #EEBE0B",
"h c #EDBF17",
"j c #E2BC25",
"k c #E8CC00",
"l c #F3C700",
"z c #F5CC00",
"x c #F5CD00",
"c c #EFD200",
"v c #F9D300",
"b c #F9D301",
"n c #F9D500",
"m c #FAD700",
"M c #FAD800",
"N c #FCDE00",
"B c #FDDE00",
"V c #FCDF00",
"C c #FEDE00",
"Z c #FFE000",
"A c #FFE100",
"S c #FFE300",
"D c #FFE400",
"F c #FCE010",
"G c #EEC334",
"H c #EEC439",
"J c #9D936B",
"K c #C9B84D",
"L c #D1C471",
"P c #FCEE7E",
"I c #C0B689",
"U c #C0B995",
"Y c None",
/* pixels */
"YYYYYYYYYYYYYYYYYYYYYYYYYYYYYY",
"YYYYYYYYYYYYYYYYYYYYYYYYYYYYYY",
"YYYYYYYYYYYYYYYYYYYYYYYYYYYYYY",
"YYYYYYYYYYYYY*-;:YYYYYYYYYYYYY",
"YYYYYYYYYYYY%wFPL&YYYYYYYYYYYY",
"YYYYYYYYYYYY#tZby#YYYYYYYYYYYY",
"YYYYYYYYYYYY,kClp<YYYYYYYYYYYY",
"YYYYYYYYYYYoqDAmhK+YYYYYYYYYYY",
"YYYYYYYYYYYo0SAms8oYYYYYYYYYYY",
"YYYYYYYYYYYO0SAmd8$YYYYYYYYYYY",
"YYYYYYYYYYY2cAABzjJYYYYYYYYYYY",
"YYYYYYYYYY 7DZZAnHU@YYYYYYYYYY",
"YYYYYYYYYY 6DAAAnGIXYYYYYYYYYY",
"YYYYYYYYYY 6DAAAngi.YYYYYYYYYY",
"YYYYYYYYYY 6DAAAnf3 YYYYYYYYYY",
"YYYYYYYYYY 6DAAAnf4 YYYYYYYYYY",
"YYYYYYYYYY 6DAAAnf4 YYYYYYYYYY",
"YYYYYYYYYY 6DAAAnf4 YYYYYYYYYY",
"YYYYYYYYYY 7DZZAnf5 YYYYYYYYYY",
"YYYYYYYYYYY2cAABxa1YYYYYYYYYYY",
"YYYYYYYYYYYO0SAmd8#YYYYYYYYYYY",
"YYYYYYYYYYYo0SAms8oYYYYYYYYYYY",
"YYYYYYYYYYYoqDAMs9oYYYYYYYYYYY",
"YYYYYYYYYYYY,kClu>YYYYYYYYYYYY",
"YYYYYYYYYYYY#tZvr#YYYYYYYYYYYY",
"YYYYYYYYYYYY%wNVe%YYYYYYYYYYYY",
"YYYYYYYYYYYYY*==*YYYYYYYYYYYYY",
"YYYYYYYYYYYYYYYYYYYYYYYYYYYYYY",
"YYYYYYYYYYYYYYYYYYYYYYYYYYYYYY",
"YYYYYYYYYYYYYYYYYYYYYYYYYYYYYY"
};
