/* XPM */
static char *result[] = {
/* columns rows colors chars-per-pixel */
"30 30 73 1 ",
"  c #302300",
". c #332600",
"X c #332601",
"o c #342700",
"O c #352700",
"+ c #352701",
"@ c #342704",
"# c #695700",
"$ c #6E5C00",
"% c #6E5D08",
"& c #796600",
"* c #7C6900",
"= c #6E633D",
"- c #695F41",
"; c #796F4C",
": c #7C7250",
"> c #847100",
", c #907B00",
"< c #847B55",
"1 c #AC9500",
"2 c #AC9700",
"3 c #B79F00",
"4 c #AC9819",
"5 c #B7A000",
"6 c #B7A83F",
"7 c #C0A800",
"8 c #EBB900",
"9 c #EBBA00",
"0 c #EBBB00",
"q c #ECBB00",
"w c #DFC400",
"e c #E0C400",
"r c #E0C500",
"t c #E1C500",
"y c #EFC200",
"u c #E8CB00",
"i c #E8CC00",
"p c #F1C700",
"a c #F3C800",
"s c #F3CA00",
"d c #F4CC00",
"f c #F5CD00",
"g c #F5CE00",
"h c #F7D200",
"j c #F7D300",
"k c #F9D500",
"l c #FCDC00",
"z c #FCDD00",
"x c #FDDD00",
"c c #FCDE00",
"v c #FFE000",
"b c #FFE100",
"n c #FFE200",
"m c #FFE300",
"M c #FFE400",
"N c #FFE500",
"B c #FFE60F",
"V c #FCE010",
"C c #FFE41C",
"Z c #FFE61E",
"A c #FFE61F",
"S c #E1C821",
"D c #E8D233",
"F c #908764",
"G c #ACA37A",
"H c #C0B151",
"J c #FFEC49",
"K c #FFEE50",
"L c #DFD173",
"P c #FCED7D",
"I c #ACA785",
"U c #E0D482",
"Y c None",
/* pixels */
"YYYYYYYYYYYYYYYYYYYYYYYYYYYYYY",
"YYYYYYYYYYYYYYYYYYYYYYYYYYYYYY",
"YYYYYYYYYYYYYYYYYYYYYYYYYYYYYY",
"YYYYYYYYYYYYY#%=-YYYYYYYYYYYYY",
"YYYYYYYYYYYY&eVPU;YYYYYYYYYYYY",
"YYYYYYYYYYY*wbggCL:YYYYYYYYYYY",
"YYYYYYYYYYo7mdyydAH@YYYYYYYYYY",
"YYYYYYYYYY>tfpzzpfS<YYYYYYYYYY",
"YYYYYYYYY.5n9kbbk8Z6XYYYYYYYYY",
"YYYYYYYYYO3b9kbblhm3+YYYYYYYYY",
"YYYYYYYYY,uasxbvbbbDFYYYYYYYYY",
"YYYYYYYY 2M0jnvbbbvKI YYYYYYYY",
"YYYYYYYY 1mqhbbbbbvJG YYYYYYYY",
"YYYYYYYY 1mqhbbbbbvB4 YYYYYYYY",
"YYYYYYYY 1mqhbbbbbbM1 YYYYYYYY",
"YYYYYYYY 1mqhbbbbbbM1 YYYYYYYY",
"YYYYYYYY 1mqhbbbbbbM1 YYYYYYYY",
"YYYYYYYY 1mqhbbbbbbM1 YYYYYYYY",
"YYYYYYYY 2M0jnvbbbvN2 YYYYYYYY",
"YYYYYYYYY,uasxbvbbni,YYYYYYYYY",
"YYYYYYYYYO3b9kbblhm3OYYYYYYYYY",
"YYYYYYYYY.5n9kbbk8n5.YYYYYYYYY",
"YYYYYYYYYY>tfpzzpft>YYYYYYYYYY",
"YYYYYYYYYYo7mdyydm7oYYYYYYYYYY",
"YYYYYYYYYYY*wbggbw*YYYYYYYYYYY",
"YYYYYYYYYYYY&rccr&YYYYYYYYYYYY",
"YYYYYYYYYYYYY#$$#YYYYYYYYYYYYY",
"YYYYYYYYYYYYYYYYYYYYYYYYYYYYYY",
"YYYYYYYYYYYYYYYYYYYYYYYYYYYYYY",
"YYYYYYYYYYYYYYYYYYYYYYYYYYYYYY"
};
