/* XPM */
static char *result[] = {
/* columns rows colors chars-per-pixel */
"30 30 71 1 ",
"  c #372A00",
". c #372A01",
"X c #372B07",
"o c #3C2E00",
"O c #3D2F00",
"+ c #3C2F06",
"@ c #372B08",
"# c #3D3001",
"$ c #3E3000",
"% c #413300",
"& c #41340B",
"* c #6A5800",
"= c #6E5C00",
"- c #6E5D08",
"; c #6E633D",
": c #6A6041",
"> c #877200",
", c #887400",
"< c #887E51",
"1 c #9D8600",
"2 c #9E8800",
"3 c #C0A600",
"4 c #C0A800",
"5 c #C1A800",
"6 c #C1AA00",
"7 c #C9AD00",
"8 c #C9AF00",
"9 c #CBB100",
"0 c #CBB200",
"q c #D1B600",
"w c #D1B700",
"e c #D2B700",
"r c #D3B900",
"t c #D3B901",
"y c #DEB800",
"u c #C1AB1C",
"i c #E2B800",
"p c #EDBC00",
"a c #EEBC00",
"s c #EEBD00",
"d c #E8CC00",
"f c #F3C700",
"g c #F5CD00",
"h c #EFD200",
"j c #F9D300",
"k c #F9D500",
"l c #FAD700",
"z c #FAD800",
"x c #FCDE00",
"c c #FDDE00",
"v c #FCDF00",
"b c #FEDE00",
"n c #E8CF15",
"m c #FFE000",
"M c #FFE100",
"N c #FFE001",
"B c #FFE300",
"V c #FFE400",
"C c #FFE50B",
"Z c #FCE110",
"A c #FFE617",
"S c #EFD725",
"D c #FFEA34",
"F c #FFEB39",
"G c #9E956B",
"H c #CBBB4D",
"J c #D1C471",
"K c #FCED7E",
"L c #C1B889",
"P c #C1BC95",
"I c None",
/* pixels */
"IIIIIIIIIIIIIIIIIIIIIIIIIIIIII",
"IIIIIIIIIIIIIIIIIIIIIIIIIIIIII",
"IIIIIIIIIIIIIIIIIIIIIIIIIIIIII",
"IIIIIIIIIIIII*-;:IIIIIIIIIIIII",
"IIIIIIIIIIII%qZKJ&IIIIIIIIIIII",
"IIIIIIIIIIII$ejNt$IIIIIIIIIIII",
"IIIIIIIIIIII>yfbn<IIIIIIIIIIII",
"IIIIIIIIIIIo8pzMAH+IIIIIIIIIII",
"IIIIIIIIIIIo7plMB9oIIIIIIIIIII",
"IIIIIIIIIII$7alMB9#IIIIIIIIIII",
"IIIIIIIIIII1igcMMSGIIIIIIIIIII",
"IIIIIIIIII 4skMmmFP@IIIIIIIIII",
"IIIIIIIIII 3skMMmDLXIIIIIIIIII",
"IIIIIIIIII 3skMMmCu.IIIIIIIIII",
"IIIIIIIIII 3skMMMB5 IIIIIIIIII",
"IIIIIIIIII 3skMMMV5 IIIIIIIIII",
"IIIIIIIIII 3skMMMV5 IIIIIIIIII",
"IIIIIIIIII 3skMMMV5 IIIIIIIIII",
"IIIIIIIIII 4skMmmV6 IIIIIIIIII",
"IIIIIIIIIII1igcMMh2IIIIIIIIIII",
"IIIIIIIIIII$7alMB9OIIIIIIIIIII",
"IIIIIIIIIIIo7plMB9oIIIIIIIIIII",
"IIIIIIIIIIIo8pzMV0oIIIIIIIIIII",
"IIIIIIIIIIII>yfbd,IIIIIIIIIIII",
"IIIIIIIIIIII$ejmr$IIIIIIIIIIII",
"IIIIIIIIIIII%wvxq%IIIIIIIIIIII",
"IIIIIIIIIIIII*==*IIIIIIIIIIIII",
"IIIIIIIIIIIIIIIIIIIIIIIIIIIIII",
"IIIIIIIIIIIIIIIIIIIIIIIIIIIIII",
"IIIIIIIIIIIIIIIIIIIIIIIIIIIIII"
};
