/* XPM */
static char *result[] = {
/* columns rows colors chars-per-pixel */
"30 30 38 1 ",
"  c #403200",
". c #413300",
"X c #413303",
"o c #473800",
"O c #493A00",
"+ c #493A01",
"@ c #413511",
"# c #403412",
"$ c #413513",
"% c #413614",
"& c #473A10",
"* c #473B1A",
"= c #6B5900",
"- c #6B5A09",
"; c #6B5F35",
": c #AB9400",
"> c #D4B900",
", c #D4BC00",
"< c #D4BC18",
"1 c #DBC000",
"2 c #DEC300",
"3 c #DFC300",
"4 c #DEC511",
"5 c #DBC31C",
"6 c #F5D800",
"7 c #F5DB18",
"8 c #FFE300",
"9 c #FFE405",
"0 c #FFE721",
"q c #FFE725",
"w c #FFE825",
"e c #ABA16F",
"r c #DECF60",
"t c #D4CA8E",
"y c #D4CC9C",
"u c #D4CE9E",
"i c #DBD29D",
"p c None",
/* pixels */
"pppppppppppppppppppppppppppppp",
"pppppppppppppppppppppppppppppp",
"pppppppppppppppppppppppppppppp",
"pppppppppppppp-;pppppppppppppp",
"pppppppppppppo5i*ppppppppppppp",
"pppppppppppppo4r&ppppppppppppp",
"pppppppppppppo22oppppppppppppp",
"pppppppppppppo22oppppppppppppp",
"pppppppppppppo22oppppppppppppp",
"pppppppppppppO33+ppppppppppppp",
"pppppppppppp :67e#pppppppppppp",
"pppppppppppp.,8wu%pppppppppppp",
"pppppppppppp.>8qy$pppppppppppp",
"pppppppppppp.>80t@pppppppppppp",
"pppppppppppp.>89<Xpppppppppppp",
"pppppppppppp.>88>.pppppppppppp",
"pppppppppppp.>88>.pppppppppppp",
"pppppppppppp.>88>.pppppppppppp",
"pppppppppppp.,88,.pppppppppppp",
"pppppppppppp :66: pppppppppppp",
"pppppppppppppO33Oppppppppppppp",
"pppppppppppppo22oppppppppppppp",
"pppppppppppppo22oppppppppppppp",
"pppppppppppppo22oppppppppppppp",
"pppppppppppppo22oppppppppppppp",
"pppppppppppppo11oppppppppppppp",
"pppppppppppppp==pppppppppppppp",
"pppppppppppppppppppppppppppppp",
"pppppppppppppppppppppppppppppp",
"pppppppppppppppppppppppppppppp"
};
