/* XPM */
static char *result[] = {
/* columns rows colors chars-per-pixel */
"30 30 72 1 ",
"  c #2D2000",
". c #2E2100",
"X c #2E2201",
"o c #685600",
"O c #6A5900",
"+ c #6E5C00",
"@ c #6E5D0A",
"# c #725F00",
"$ c #796600",
"% c #7D6A00",
"& c #7D6D1D",
"* c #685E40",
"= c #6A6040",
"- c #6E6440",
"; c #726848",
": c #796F50",
"> c #816E00",
", c #817859",
"< c #978100",
"1 c #978300",
"2 c #97841A",
"3 c #A18C00",
"4 c #A28C00",
"5 c #AB9400",
"6 c #A19337",
"7 c #D3B900",
"8 c #D7BC00",
"9 c #EBBB00",
"0 c #ECBC00",
"q c #ECBD00",
"w c #EDBD00",
"e c #DBC000",
"r c #E1C500",
"t c #EFC200",
"y c #F1C600",
"u c #F2C900",
"i c #F3C900",
"p c #F3CA00",
"a c #F4CD00",
"s c #F5CD00",
"d c #F6CF00",
"f c #F6CF01",
"g c #F6D000",
"h c #F7D300",
"j c #FCDB00",
"k c #FADD00",
"l c #FCDC00",
"z c #FCDE00",
"x c #FDDF00",
"c c #FEDF00",
"v c #FDE000",
"b c #FEE000",
"n c #FFE000",
"m c #FFE100",
"M c #FFE200",
"N c #FFE300",
"B c #FFE400",
"V c #FFE500",
"C c #FAE016",
"Z c #FFE618",
"A c #D7C12D",
"S c #FFE626",
"D c #FFEA29",
"F c #FFE92B",
"G c #AB9D49",
"H c #97906D",
"J c #E1CD43",
"K c #DBCD6B",
"L c #D3C674",
"P c #FFF063",
"I c #FCEE82",
"U c None",
/* pixels */
"UUUUUUUUUUUUUUUUUUUUUUUUUUUUUU",
"UUUUUUUUUUUUUUUUUUUUUUUUUUUUUU",
"UUUUUUUUUUUUUUUUUUUUUUUUUUUUUU",
"UUUUUUUUUUUUo++@-*UUUUUUUUUUUU",
"UUUUUUUUUUO%ezkCIK&=UUUUUUUUUU",
"UUUUUUUUU#7mvdppfxSL;UUUUUUUUU",
"UUUUUUUU 5BbsttttsbFG UUUUUUUU",
"UUUUUUUU$8MayjmmjyamA:UUUUUUUU",
"UUUUUUUU3Vc9hmnnmh9cD6UUUUUUUU",
"UUUUUUU.4Bc0hmmmmh0cB4XUUUUUUU",
"UUUUUUU>rmuilmmmmliumJ,UUUUUUU",
"UUUUUUU1VbqgMnmmnMgqbPHUUUUUUU",
"UUUUUUU<NbwgmmmmmmgwbZ2UUUUUUU",
"UUUUUUU<NbwgmmmmmmgwbN<UUUUUUU",
"UUUUUUU<NbwgmmmmmmgwbN<UUUUUUU",
"UUUUUUU<NbwgmmmmmmgwbN<UUUUUUU",
"UUUUUUU<NbwgmmmmmmgwbN<UUUUUUU",
"UUUUUUU<NbwgmmmmmmgwbN<UUUUUUU",
"UUUUUUU1VbqgMnmmnMgqbV1UUUUUUU",
"UUUUUUU>rmuilmmmmliumr>UUUUUUU",
"UUUUUUU.4Bc0hmmmmh0cB4.UUUUUUU",
"UUUUUUUU3Vc9hmnnmh9cV3UUUUUUUU",
"UUUUUUUU$8MayjmmjyaM8$UUUUUUUU",
"UUUUUUUU 5BbsttttsbB5 UUUUUUUU",
"UUUUUUUUU#7mvdppdvm7#UUUUUUUUU",
"UUUUUUUUUUO%ezkkze%OUUUUUUUUUU",
"UUUUUUUUUUUUo++++oUUUUUUUUUUUU",
"UUUUUUUUUUUUUUUUUUUUUUUUUUUUUU",
"UUUUUUUUUUUUUUUUUUUUUUUUUUUUUU",
"UUUUUUUUUUUUUUUUUUUUUUUUUUUUUU"
};
