/* XPM */
static char *result[] = {
/* columns rows colors chars-per-pixel */
"30 30 82 1 ",
"  c #6B5900",
". c #6D5B00",
"X c #6E5D00",
"o c #715F00",
"O c #736000",
"+ c #736100",
"@ c #756300",
"# c #73620A",
"$ c #73683F",
"% c #6B6143",
"& c #6D6340",
"* c #6E6542",
"= c #716747",
"- c #736947",
"; c #736A4B",
": c #756C4C",
"> c #847000",
", c #857100",
"< c #857200",
"1 c #887400",
"2 c #907C00",
"3 c #857418",
"4 c #847423",
"5 c #887929",
"6 c #857C57",
"7 c #978200",
"8 c #90812C",
"9 c #978938",
"0 c #CAB100",
"q c #CFB600",
"w c #D1B700",
"e c #D4BA00",
"r c #D4BB00",
"t c #CFBC3A",
"y c #EFC200",
"u c #EFC300",
"i c #F0C400",
"p c #F0C500",
"a c #F1C500",
"s c #F0C600",
"d c #F1C600",
"f c #F1C700",
"g c #F1C701",
"h c #F0C502",
"j c #F3CA00",
"k c #F4CA00",
"l c #F5CE00",
"z c #F4CF00",
"x c #F5CF00",
"c c #F4CF02",
"v c #F5CF02",
"b c #F4CB05",
"n c #F4CB06",
"m c #F6D000",
"M c #F2D700",
"N c #F9D700",
"B c #F3D800",
"V c #FAD800",
"C c #FAD900",
"Z c #F9DC00",
"A c #F9DD00",
"S c #F9DE00",
"D c #FCDE00",
"F c #F2D913",
"G c #FDE000",
"H c #FEE000",
"J c #FFE000",
"K c #FEE100",
"L c #FFE100",
"P c #F9E01F",
"I c #F9E028",
"U c #F9E22F",
"Y c #FCE32D",
"T c #FDE532",
"R c #CABE6D",
"E c #D1C04B",
"W c #D4C44C",
"Q c #D4C761",
"! c #F2E471",
"~ c #F9EB70",
"^ c #F3E886",
"/ c None",
/* pixels */
"//////////////////////////////",
"//////////////////////////////",
"//////////////////////////////",
"//////////// O#$;%////////////",
"//////////.>rBF!^Q4&//////////",
"////////X1wZxkkbnvIE5*////////",
"///////o0AzfiyuuyigcUR=///////",
"///////7GmpfVHHHHVfpmT9///////",
"//////+qmpNLHJLLJHLNpmt-//////",
"//////2DujLHLLLLLLHLjuY8//////",
"/////@elsCLLLLLLLLLLCslW://///",
"/////<SpfKJLLLLLLLLJKfh~6/////",
"/////,AafHLLLLLLLLLLHfdP3/////",
"/////,AafHLLLLLLLLLLHfaZ,/////",
"/////,AafHLLLLLLLLLLHfaA,/////",
"/////,AafHLLLLLLLLLLHfaA,/////",
"/////,AafHLLLLLLLLLLHfaA,/////",
"/////,AafHLLLLLLLLLLHfaA,/////",
"/////<SpfKJLLLLLLLLJKfpS</////",
"/////@elsCLLLLLLLLLLCsle@/////",
"//////2DujLHLLLLLLHLjuD2//////",
"//////+qmpNLHJLLJHLNpmq+//////",
"///////7GmpfVHHHHVfpmG7///////",
"///////o0AzfiyuuyifzA0o///////",
"////////X1wZxkkkkxZw1X////////",
"//////////.>rBMMBr>.//////////",
"//////////// OOOO ////////////",
"//////////////////////////////",
"//////////////////////////////",
"//////////////////////////////"
};
